M48
METRIC,LZ,000.000
;FILE_FORMAT=3:3
;TYPE=PLATED
;Layer: PTH_Through_Via
;EasyEDA v6.5.23, 2023-06-02 21:13:54
;33ff916c08f040c1a4a9353f5c15a4ee,b642c611f69d48ac97ba22acea37c14c,10
;Gerber Generator version 0.2
;Holesize 1 = 0.305 mm
T01C0.305
;Holesize 2 = 0.306 mm
T02C0.306
;Holesize 3 = 0.501 mm
T03C0.501
;Holesize 4 = 0.600 mm
T04C0.600
%
G05
G90
T01
X037091Y098362
X034094Y098375
X034106Y095378
X037104Y095378
X034600Y081600
X034600Y080700
X036100Y081600
X036100Y080700
T02
X019800Y103800
X021100Y103800
X022400Y103800
X022400Y098400
X022400Y096100
X027000Y094900
X026900Y100700
X041400Y092600
X033400Y104000
X035999Y102700
X012700Y101600
X012900Y092100
X041600Y096700
X105900Y101700
X095600Y093100
X096000Y100400
X101300Y098000
X102500Y107200
X073100Y097300
X070400Y094600
X011600Y101600
X011600Y092100
X010300Y099500
X010300Y094100
X033500Y088600
X041700Y098600
X041700Y097600
X101200Y095000
X095300Y094200
X093900Y095700
X095200Y102900
X095199Y104201
X095200Y096600
X120200Y091500
X120600Y104300
X139800Y096800
X078400Y086400
X042000Y100300
X042000Y099400
X101800Y102700
X071717Y099400
X070600Y103200
X140100Y091400
X138700Y091400
X137300Y092300
X137300Y093500
X138800Y099900
X139900Y099900
X150900Y099600
X152000Y099600
X150900Y098400
X152000Y098400
X063400Y093300
T03
X026500Y098500
X026100Y092400
X101200Y108000
X057900Y105200
T04
X131600Y086799
M30
