M48
METRIC,LZ,000.000
;FILE_FORMAT=3:3
;TYPE=PLATED
;Layer: PTH_Through
;EasyEDA v6.5.23, 2023-06-02 21:13:54
;33ff916c08f040c1a4a9353f5c15a4ee,b642c611f69d48ac97ba22acea37c14c,10
;Gerber Generator version 0.2
;Holesize 1 = 0.701 mm
T01C0.701
;Holesize 2 = 0.712 mm
T02C0.712
;Holesize 3 = 0.889 mm
T03C0.889
;Holesize 4 = 0.901 mm
T04C0.901
;Holesize 5 = 1.000 mm
T05C1.000
;Holesize 6 = 1.301 mm
T06C1.301
%
G05
G90
T01
X117849Y101400
X119350Y101400
X117949Y095300
X119450Y095300
X139000Y106149
X139000Y107650
X139000Y090350
X139000Y088849
X143900Y101849
X143900Y103350
X143900Y093249
X143900Y094750
T02
X122299Y099972
X122299Y102512
X122299Y094130
X122299Y096670
T03
X042700Y090569
X042700Y088029
T04
X037838Y085800
X032962Y085800
T05
X135609Y090580
X135608Y093120
X135608Y095660
X135608Y098200
X135608Y100740
X135608Y103280
X135608Y105820
X127988Y090580
X127988Y093120
X127988Y095660
X127988Y098200
X127988Y100740
X127988Y103280
X127988Y105820
T06
X053495Y085799
X058504Y085799
X098496Y085900
X103505Y085900
X160200Y093221
X160200Y098301
X160200Y103381
M30
