G04 Layer: TopLayer*
G04 EasyEDA v6.5.23, 2023-06-02 21:13:54*
G04 33ff916c08f040c1a4a9353f5c15a4ee,b642c611f69d48ac97ba22acea37c14c,10*
G04 Gerber Generator version 0.2*
G04 Scale: 100 percent, Rotated: No, Reflected: No *
G04 Dimensions in millimeters *
G04 leading zeros omitted , absolute positions ,4 integer and 5 decimal *
%FSLAX45Y45*%
%MOMM*%

%AMMACRO1*21,1,$1,$2,0,0,$3*%
%AMMACRO2*4,1,4,-0.8,1.5999,0.8,1.5999,0.8,-1.5999,-0.8,-1.5999,-0.8,1.5999,0*%
%ADD10C,0.2500*%
%ADD11C,0.6500*%
%ADD12C,0.5000*%
%ADD13C,0.9000*%
%ADD14C,0.6000*%
%ADD15O,1.2999974X0.2999994*%
%ADD16O,0.2999994X1.2999974*%
%ADD17R,5.2000X5.2000*%
%ADD18R,0.8000X0.9000*%
%ADD19MACRO1,1.35X1.41X0.0000*%
%ADD20R,1.3500X1.4100*%
%ADD21MACRO1,1.35X1.41X-90.0000*%
%ADD22R,1.8000X2.0000*%
%ADD23MACRO1,1.377X1.1325X0.0000*%
%ADD24R,1.3770X1.1325*%
%ADD25MACRO1,1.377X1.1325X90.0000*%
%ADD26MACRO1,1.377X1.1325X-90.0000*%
%ADD27MACRO2*%
%ADD28MACRO1,0.864X0.8065X-90.0000*%
%ADD29MACRO1,0.864X0.8065X0.0000*%
%ADD30R,0.8640X0.8065*%
%ADD31R,1.6000X0.4000*%
%ADD32R,1.4000X1.4000*%
%ADD33R,1.5000X1.4000*%
%ADD34O,2.1999956000000003X0.6999986*%
%ADD35R,0.9000X0.8000*%
%ADD36R,0.6000X0.6000*%
%ADD37R,1.0000X0.7500*%
%ADD38R,1.0720X0.5320*%
%ADD39R,1.5748X1.5748*%
%ADD40C,1.5748*%
%ADD41C,2.0000*%
%ADD42C,1.1938*%
%ADD43O,1.9999959999999999X1.499997*%
%ADD44R,2.0000X1.5000*%
%ADD45R,1.5000X1.5000*%
%ADD46C,1.5000*%
%ADD47C,1.0000*%
%ADD48C,0.6350*%
%ADD49C,0.6100*%
%ADD50C,0.7000*%
%ADD51C,0.8000*%
%ADD52C,0.0111*%

%LPD*%
G36*
X870153Y9919970D02*
G01*
X866292Y9920732D01*
X862990Y9922967D01*
X860755Y9926269D01*
X859993Y9930130D01*
X859993Y10189819D01*
X860755Y10193680D01*
X862990Y10196982D01*
X866292Y10199217D01*
X870153Y10199979D01*
X944270Y10199979D01*
X948232Y10199166D01*
X951585Y10196880D01*
X953769Y10193477D01*
X954430Y10189464D01*
X953516Y10185552D01*
X951128Y10182301D01*
X947623Y10180218D01*
X942238Y10178338D01*
X937361Y10175240D01*
X933246Y10171176D01*
X930148Y10166248D01*
X928268Y10160812D01*
X927557Y10154462D01*
X927557Y10126421D01*
X984605Y10126421D01*
X984605Y10189819D01*
X985367Y10193680D01*
X987602Y10196982D01*
X990853Y10199217D01*
X994765Y10199979D01*
X1062126Y10199979D01*
X1066038Y10199217D01*
X1069340Y10196982D01*
X1071524Y10193680D01*
X1072286Y10189819D01*
X1072286Y10126421D01*
X1129385Y10126421D01*
X1129385Y10154462D01*
X1128674Y10160812D01*
X1126744Y10166248D01*
X1123645Y10171176D01*
X1119581Y10175240D01*
X1114653Y10178338D01*
X1109268Y10180218D01*
X1105814Y10182301D01*
X1103426Y10185552D01*
X1102461Y10189464D01*
X1103172Y10193477D01*
X1105306Y10196880D01*
X1108659Y10199166D01*
X1112621Y10199979D01*
X1345793Y10199979D01*
X1349705Y10199217D01*
X1352956Y10196982D01*
X1417015Y10132923D01*
X1419250Y10129672D01*
X1420012Y10125760D01*
X1420012Y9964166D01*
X1419250Y9960305D01*
X1417015Y9957003D01*
X1397711Y9937699D01*
X1394409Y9935464D01*
X1390548Y9934702D01*
X1386636Y9935464D01*
X1383334Y9937699D01*
X1381150Y9940950D01*
X1380388Y9944862D01*
X1380388Y9963607D01*
X1325829Y9963607D01*
X1325829Y9930130D01*
X1325016Y9926269D01*
X1322832Y9922967D01*
X1319530Y9920732D01*
X1315669Y9919970D01*
X1293876Y9919970D01*
X1290980Y9920376D01*
X1288288Y9921646D01*
X1283614Y9924745D01*
X1275232Y9928301D01*
X1266342Y9930333D01*
X1257249Y9930739D01*
X1254607Y9930384D01*
X1250340Y9930739D01*
X1246581Y9932822D01*
X1243990Y9936276D01*
X1243126Y9940493D01*
X1243126Y9963607D01*
X1188567Y9963607D01*
X1188567Y9935514D01*
X1189024Y9931247D01*
X1188618Y9927031D01*
X1186484Y9923373D01*
X1183081Y9920833D01*
X1178915Y9919970D01*
G37*

%LPC*%
G36*
X1072286Y9989159D02*
G01*
X1102868Y9989159D01*
X1109218Y9989870D01*
X1114653Y9991750D01*
X1119581Y9994849D01*
X1123645Y9998913D01*
X1126744Y10003840D01*
X1128674Y10009276D01*
X1129385Y10015626D01*
X1129385Y10043718D01*
X1072286Y10043718D01*
G37*
G36*
X954024Y9989159D02*
G01*
X984605Y9989159D01*
X984605Y10043718D01*
X927557Y10043718D01*
X927557Y10015626D01*
X928268Y10009276D01*
X930148Y10003840D01*
X933246Y9998913D01*
X937361Y9994849D01*
X942238Y9991750D01*
X947724Y9989870D01*
G37*
G36*
X1325829Y10046309D02*
G01*
X1380388Y10046309D01*
X1380388Y10074351D01*
X1379626Y10080701D01*
X1377746Y10086136D01*
X1374648Y10091064D01*
X1370584Y10095128D01*
X1365656Y10098227D01*
X1360220Y10100157D01*
X1353870Y10100868D01*
X1325829Y10100868D01*
G37*
G36*
X1188567Y10046309D02*
G01*
X1243126Y10046309D01*
X1243126Y10100868D01*
X1215034Y10100868D01*
X1208684Y10100157D01*
X1203248Y10098227D01*
X1198321Y10095128D01*
X1194257Y10091064D01*
X1191158Y10086136D01*
X1189278Y10080701D01*
X1188567Y10074351D01*
G37*

%LPD*%
G36*
X13953794Y9749993D02*
G01*
X13949883Y9750755D01*
X13946581Y9752939D01*
X13944396Y9756241D01*
X13943634Y9760153D01*
X13943634Y9791141D01*
X13926057Y9791141D01*
X13922146Y9791903D01*
X13918844Y9794087D01*
X13916660Y9797389D01*
X13915898Y9801301D01*
X13915898Y9838690D01*
X13916660Y9842550D01*
X13918844Y9845852D01*
X13922146Y9848037D01*
X13926057Y9848850D01*
X13943634Y9848850D01*
X13943634Y9890912D01*
X13930528Y9890912D01*
X13919657Y9889337D01*
X13915948Y9890252D01*
X13912799Y9892487D01*
X13910716Y9895738D01*
X13909954Y9899497D01*
X13909954Y9928961D01*
X13909243Y9930688D01*
X13890701Y9949281D01*
X13888974Y9949992D01*
X13854176Y9949992D01*
X13850315Y9950754D01*
X13847013Y9952939D01*
X13802969Y9996982D01*
X13800734Y10000284D01*
X13799972Y10004196D01*
X13799972Y10049205D01*
X13800683Y10053015D01*
X13802766Y10056266D01*
X13805916Y10058450D01*
X13809675Y10059365D01*
X13813485Y10058806D01*
X13815364Y10058146D01*
X13821714Y10057434D01*
X13849197Y10057434D01*
X13849197Y10105288D01*
X13810132Y10105288D01*
X13806220Y10106101D01*
X13802969Y10108285D01*
X13800734Y10111587D01*
X13799972Y10115448D01*
X13799972Y10164470D01*
X13800734Y10168382D01*
X13802969Y10171684D01*
X13806220Y10173868D01*
X13810132Y10174630D01*
X13849197Y10174630D01*
X13849197Y10219842D01*
X13849959Y10223703D01*
X13852194Y10227005D01*
X13855446Y10229189D01*
X13859357Y10230002D01*
X13920571Y10230002D01*
X13924483Y10229189D01*
X13927785Y10227005D01*
X13929969Y10223703D01*
X13930731Y10219842D01*
X13930731Y10174630D01*
X13984732Y10174630D01*
X13984732Y10196017D01*
X13984020Y10202367D01*
X13982090Y10207802D01*
X13976857Y10216032D01*
X13976146Y10219893D01*
X13976908Y10223754D01*
X13979144Y10227056D01*
X13982446Y10229189D01*
X13986306Y10230002D01*
X14015770Y10230002D01*
X14019631Y10229189D01*
X14022933Y10227005D01*
X14047012Y10202976D01*
X14049197Y10199674D01*
X14049959Y10195763D01*
X14049959Y9884816D01*
X14049044Y9880600D01*
X14046454Y9877145D01*
X14042644Y9875062D01*
X14038275Y9874808D01*
X14034262Y9876332D01*
X14031213Y9879431D01*
X14030147Y9881108D01*
X14026083Y9885172D01*
X14021155Y9888270D01*
X14015719Y9890201D01*
X14009369Y9890912D01*
X13996314Y9890912D01*
X13996314Y9848850D01*
X14039799Y9848850D01*
X14043710Y9848037D01*
X14047012Y9845852D01*
X14049197Y9842550D01*
X14049959Y9838690D01*
X14049959Y9801301D01*
X14049197Y9797389D01*
X14047012Y9794087D01*
X14043710Y9791903D01*
X14039799Y9791141D01*
X13996314Y9791141D01*
X13996314Y9760153D01*
X13995552Y9756241D01*
X13993317Y9752939D01*
X13990015Y9750755D01*
X13986154Y9749993D01*
G37*

%LPC*%
G36*
X13930731Y10057434D02*
G01*
X13958265Y10057434D01*
X13964564Y10058146D01*
X13970050Y10060076D01*
X13974927Y10063124D01*
X13979042Y10067239D01*
X13982090Y10072116D01*
X13984020Y10077602D01*
X13984732Y10083901D01*
X13984732Y10105288D01*
X13930731Y10105288D01*
G37*

%LPD*%
G36*
X15119350Y9619996D02*
G01*
X15115794Y9620605D01*
X15112695Y9622485D01*
X15110409Y9625330D01*
X15068854Y9625330D01*
X15064943Y9626092D01*
X15061641Y9628276D01*
X15032939Y9657029D01*
X15030754Y9660280D01*
X15029992Y9664192D01*
X15029992Y10186924D01*
X15030399Y10189870D01*
X15031669Y10192562D01*
X15036596Y10199928D01*
X15039695Y10202926D01*
X15043708Y10204348D01*
X15047976Y10203992D01*
X15051735Y10201910D01*
X15054326Y10198455D01*
X15055189Y10194290D01*
X15055189Y10174630D01*
X15109190Y10174630D01*
X15109190Y10209834D01*
X15109951Y10213695D01*
X15112187Y10216997D01*
X15115489Y10219182D01*
X15119350Y10219994D01*
X15180563Y10219994D01*
X15184475Y10219182D01*
X15187777Y10216997D01*
X15189962Y10213695D01*
X15190724Y10209834D01*
X15190724Y10174630D01*
X15244724Y10174630D01*
X15244724Y10196017D01*
X15244013Y10202367D01*
X15242590Y10206482D01*
X15242032Y10210292D01*
X15242895Y10214000D01*
X15245130Y10217150D01*
X15248382Y10219232D01*
X15252192Y10219994D01*
X15255748Y10219994D01*
X15259659Y10219182D01*
X15262961Y10216997D01*
X15266974Y10212933D01*
X15269210Y10209682D01*
X15269972Y10205770D01*
X15269972Y9634169D01*
X15269210Y9630308D01*
X15266974Y9627006D01*
X15262961Y9622942D01*
X15259659Y9620758D01*
X15254884Y9619996D01*
X15251328Y9620605D01*
X15248229Y9622485D01*
X15245943Y9625330D01*
X15189504Y9625330D01*
X15187777Y9622942D01*
X15184475Y9620758D01*
X15180563Y9619996D01*
G37*

%LPC*%
G36*
X15190724Y9694672D02*
G01*
X15244724Y9694672D01*
X15244724Y9716058D01*
X15244013Y9722358D01*
X15242082Y9727844D01*
X15239034Y9732721D01*
X15234919Y9736836D01*
X15230043Y9739884D01*
X15224556Y9741814D01*
X15218257Y9742525D01*
X15190724Y9742525D01*
G37*
G36*
X15055189Y9694672D02*
G01*
X15109190Y9694672D01*
X15109190Y9742525D01*
X15081707Y9742525D01*
X15075357Y9741814D01*
X15069921Y9739884D01*
X15064994Y9736836D01*
X15060930Y9732721D01*
X15057831Y9727844D01*
X15055900Y9722358D01*
X15055189Y9716058D01*
G37*
G36*
X15190724Y10057434D02*
G01*
X15218257Y10057434D01*
X15224556Y10058146D01*
X15230043Y10060076D01*
X15234919Y10063124D01*
X15239034Y10067239D01*
X15242082Y10072116D01*
X15244013Y10077602D01*
X15244724Y10083901D01*
X15244724Y10105288D01*
X15190724Y10105288D01*
G37*
G36*
X15081707Y10057434D02*
G01*
X15109190Y10057434D01*
X15109190Y10105288D01*
X15055189Y10105288D01*
X15055189Y10083901D01*
X15055900Y10077602D01*
X15057831Y10072116D01*
X15060930Y10067239D01*
X15064994Y10063124D01*
X15069921Y10060076D01*
X15075357Y10058146D01*
G37*

%LPD*%
G36*
X866089Y9169958D02*
G01*
X862177Y9170771D01*
X858875Y9172956D01*
X856691Y9176258D01*
X855929Y9180118D01*
X855929Y9335363D01*
X859180Y9426651D01*
X860044Y9430461D01*
X862330Y9433661D01*
X865581Y9435744D01*
X869442Y9436455D01*
X873252Y9435642D01*
X876503Y9433458D01*
X880059Y9430156D01*
X881024Y9429953D01*
X1178407Y9429953D01*
X1182268Y9429191D01*
X1185570Y9427006D01*
X1187754Y9423704D01*
X1188567Y9419793D01*
X1188567Y9396323D01*
X1243126Y9396323D01*
X1243126Y9419386D01*
X1243990Y9423603D01*
X1246581Y9427057D01*
X1250340Y9429140D01*
X1254607Y9429496D01*
X1257249Y9429140D01*
X1266342Y9429546D01*
X1269390Y9429953D01*
X1315669Y9429953D01*
X1319530Y9429191D01*
X1322832Y9427006D01*
X1325016Y9423704D01*
X1325829Y9419793D01*
X1325829Y9396323D01*
X1380388Y9396323D01*
X1380388Y9415068D01*
X1381150Y9418980D01*
X1383334Y9422282D01*
X1386636Y9424466D01*
X1390548Y9425228D01*
X1394409Y9424466D01*
X1397711Y9422282D01*
X1407007Y9412935D01*
X1409242Y9409633D01*
X1410004Y9405772D01*
X1410004Y9214205D01*
X1409242Y9210294D01*
X1407007Y9206992D01*
X1372971Y9172956D01*
X1369669Y9170771D01*
X1365808Y9169958D01*
X1129436Y9169958D01*
X1125575Y9170771D01*
X1122273Y9172956D01*
X1120038Y9176258D01*
X1119276Y9180118D01*
X1120038Y9184030D01*
X1122273Y9187332D01*
X1123645Y9188704D01*
X1126744Y9193631D01*
X1128674Y9199067D01*
X1129385Y9205417D01*
X1129385Y9233509D01*
X1072286Y9233509D01*
X1072286Y9180118D01*
X1071524Y9176258D01*
X1069340Y9172956D01*
X1066038Y9170771D01*
X1062126Y9169958D01*
X994765Y9169958D01*
X990853Y9170771D01*
X987602Y9172956D01*
X985367Y9176258D01*
X984605Y9180118D01*
X984605Y9233509D01*
X927557Y9233509D01*
X927557Y9205417D01*
X928268Y9199067D01*
X930148Y9193631D01*
X933246Y9188704D01*
X934669Y9187332D01*
X936853Y9184030D01*
X937615Y9180118D01*
X936853Y9176258D01*
X934669Y9172956D01*
X931367Y9170771D01*
X927455Y9169958D01*
G37*

%LPC*%
G36*
X1215034Y9259062D02*
G01*
X1243126Y9259062D01*
X1243126Y9313621D01*
X1188567Y9313621D01*
X1188567Y9285528D01*
X1189278Y9279178D01*
X1191158Y9273743D01*
X1194257Y9268815D01*
X1198321Y9264751D01*
X1203248Y9261652D01*
X1208684Y9259773D01*
G37*
G36*
X1325829Y9259062D02*
G01*
X1353870Y9259062D01*
X1360220Y9259773D01*
X1365656Y9261652D01*
X1370584Y9264751D01*
X1374648Y9268815D01*
X1377746Y9273743D01*
X1379626Y9279178D01*
X1380388Y9285528D01*
X1380388Y9313621D01*
X1325829Y9313621D01*
G37*
G36*
X1072286Y9316212D02*
G01*
X1129385Y9316212D01*
X1129385Y9344253D01*
X1128674Y9350603D01*
X1126744Y9356039D01*
X1123645Y9360966D01*
X1119581Y9365030D01*
X1114653Y9368129D01*
X1109218Y9370060D01*
X1102868Y9370771D01*
X1072286Y9370771D01*
G37*
G36*
X927557Y9316212D02*
G01*
X984605Y9316212D01*
X984605Y9370771D01*
X954024Y9370771D01*
X947724Y9370060D01*
X942238Y9368129D01*
X937361Y9365030D01*
X933246Y9360966D01*
X930148Y9356039D01*
X928268Y9350603D01*
X927557Y9344253D01*
G37*

%LPD*%
G36*
X13880084Y8960002D02*
G01*
X13876680Y8960561D01*
X13873632Y8962288D01*
X13871397Y8964930D01*
X13870228Y8969298D01*
X13869060Y8971788D01*
X13868603Y8974734D01*
X13868603Y9003690D01*
X13840460Y9003690D01*
X13836599Y9004452D01*
X13833297Y9006687D01*
X13822934Y9017000D01*
X13820749Y9020302D01*
X13819987Y9024213D01*
X13819987Y9056217D01*
X13820749Y9060129D01*
X13822934Y9063431D01*
X13826236Y9065615D01*
X13830147Y9066377D01*
X13868603Y9066377D01*
X13868603Y9103918D01*
X13863726Y9101683D01*
X13853972Y9095384D01*
X13845286Y9087662D01*
X13837970Y9078772D01*
X13834770Y9076182D01*
X13830757Y9075115D01*
X13826693Y9075674D01*
X13823188Y9077807D01*
X13820800Y9081211D01*
X13819987Y9085224D01*
X13819987Y9148978D01*
X13819276Y9150705D01*
X13790676Y9179255D01*
X13788948Y9179966D01*
X13494156Y9179966D01*
X13490295Y9180779D01*
X13486993Y9182963D01*
X13452957Y9216999D01*
X13450722Y9220301D01*
X13449960Y9224213D01*
X13449960Y9230969D01*
X13450722Y9234779D01*
X13452805Y9238030D01*
X13455954Y9240215D01*
X13459713Y9241129D01*
X13463524Y9240570D01*
X13466826Y9238640D01*
X13474395Y9231985D01*
X13485368Y9224670D01*
X13497204Y9218828D01*
X13504468Y9216390D01*
X13504468Y9268206D01*
X13460120Y9268206D01*
X13456259Y9268968D01*
X13452957Y9271152D01*
X13450722Y9274454D01*
X13449960Y9278366D01*
X13449960Y9345726D01*
X13450722Y9349638D01*
X13452957Y9352940D01*
X13456259Y9355124D01*
X13460120Y9355886D01*
X13504468Y9355886D01*
X13504468Y9399828D01*
X13505230Y9403689D01*
X13507415Y9406991D01*
X13510717Y9409226D01*
X13514628Y9409988D01*
X13606983Y9409988D01*
X13610894Y9409226D01*
X13614196Y9406991D01*
X13616381Y9403689D01*
X13617143Y9399828D01*
X13617143Y9355886D01*
X13676426Y9355886D01*
X13673175Y9362490D01*
X13665860Y9373463D01*
X13657122Y9383369D01*
X13647115Y9392158D01*
X13644626Y9395409D01*
X13643660Y9399371D01*
X13644270Y9403384D01*
X13646454Y9406839D01*
X13649807Y9409176D01*
X13653820Y9409988D01*
X13776096Y9409988D01*
X13778534Y9409684D01*
X13824305Y9398355D01*
X13831773Y9397441D01*
X13968323Y9397441D01*
X13974318Y9398050D01*
X14025524Y9408109D01*
X14028826Y9408210D01*
X14031976Y9407245D01*
X14034668Y9405315D01*
X14057020Y9382963D01*
X14059204Y9379661D01*
X14059966Y9375749D01*
X14059966Y9024213D01*
X14059204Y9020302D01*
X14057020Y9017000D01*
X14002969Y8962948D01*
X13999667Y8960764D01*
X13995755Y8960002D01*
X13956385Y8960002D01*
X13952270Y8960866D01*
X13948918Y8963304D01*
X13946784Y8966911D01*
X13946276Y8971026D01*
X13947495Y8975039D01*
X13950442Y8978392D01*
X13958519Y8986774D01*
X13965174Y8996273D01*
X13968882Y9003690D01*
X13931341Y9003690D01*
X13931341Y8970162D01*
X13930528Y8966250D01*
X13928344Y8962948D01*
X13925042Y8960764D01*
X13921181Y8960002D01*
X13911326Y8960002D01*
X13908684Y8960307D01*
X13897051Y8960764D01*
X13889837Y8960002D01*
G37*

%LPC*%
G36*
X13931341Y9066377D02*
G01*
X13968882Y9066377D01*
X13965174Y9073794D01*
X13958519Y9083294D01*
X13950442Y9091676D01*
X13941196Y9098737D01*
X13931341Y9104122D01*
G37*
G36*
X13831671Y9197441D02*
G01*
X13859205Y9197441D01*
X13859205Y9245295D01*
X13805204Y9245295D01*
X13805204Y9223908D01*
X13805916Y9217609D01*
X13807846Y9212122D01*
X13810894Y9207246D01*
X13815009Y9203131D01*
X13819886Y9200083D01*
X13825372Y9198152D01*
G37*
G36*
X13940739Y9197441D02*
G01*
X13968272Y9197441D01*
X13974572Y9198152D01*
X13980058Y9200083D01*
X13984935Y9203131D01*
X13989050Y9207246D01*
X13992098Y9212122D01*
X13994028Y9217609D01*
X13994739Y9223908D01*
X13994739Y9245295D01*
X13940739Y9245295D01*
G37*
G36*
X13617143Y9216390D02*
G01*
X13624407Y9218828D01*
X13636244Y9224670D01*
X13647216Y9231985D01*
X13657122Y9240723D01*
X13665860Y9250629D01*
X13673175Y9261602D01*
X13676426Y9268206D01*
X13617143Y9268206D01*
G37*
G36*
X13805204Y9314637D02*
G01*
X13859205Y9314637D01*
X13859205Y9362490D01*
X13831671Y9362490D01*
X13825372Y9361779D01*
X13819886Y9359900D01*
X13815009Y9356801D01*
X13810894Y9352737D01*
X13807846Y9347809D01*
X13805916Y9342374D01*
X13805204Y9336024D01*
G37*
G36*
X13940739Y9314637D02*
G01*
X13994739Y9314637D01*
X13994739Y9336024D01*
X13994028Y9342374D01*
X13992098Y9347809D01*
X13989050Y9352737D01*
X13984935Y9356801D01*
X13980058Y9359900D01*
X13974572Y9361779D01*
X13968272Y9362490D01*
X13940739Y9362490D01*
G37*

%LPD*%
G36*
X7594193Y8909964D02*
G01*
X7590332Y8910777D01*
X7587030Y8912961D01*
X7580020Y8919972D01*
X7480147Y8919972D01*
X7476236Y8920734D01*
X7472984Y8922969D01*
X7470749Y8926271D01*
X7469987Y8930132D01*
X7469987Y9088983D01*
X7469276Y9090710D01*
X7322972Y9237014D01*
X7320737Y9240316D01*
X7319975Y9245447D01*
X7320889Y9249613D01*
X7323378Y9253016D01*
X7327036Y9255150D01*
X7331303Y9255556D01*
X7333996Y9255252D01*
X7355382Y9255252D01*
X7355382Y9309201D01*
X7330135Y9309201D01*
X7326274Y9310014D01*
X7322972Y9312198D01*
X7320737Y9315500D01*
X7319975Y9319361D01*
X7319975Y9380626D01*
X7320737Y9384487D01*
X7322972Y9387789D01*
X7326274Y9389973D01*
X7330135Y9390786D01*
X7355382Y9390786D01*
X7355382Y9444736D01*
X7336688Y9444736D01*
X7333081Y9445396D01*
X7329931Y9447326D01*
X7327696Y9450222D01*
X7326579Y9453727D01*
X7326833Y9457385D01*
X7328052Y9462262D01*
X7330084Y9466275D01*
X7333589Y9469018D01*
X7337907Y9469983D01*
X7739989Y9469983D01*
X7739989Y11505793D01*
X7740751Y11509654D01*
X7742936Y11512956D01*
X7787030Y11557000D01*
X7790281Y11559184D01*
X7794193Y11559997D01*
X12244832Y11559997D01*
X12249200Y11558981D01*
X12252706Y11556238D01*
X12254687Y11552275D01*
X12260021Y11530787D01*
X12272924Y11487251D01*
X12287707Y11444376D01*
X12304369Y11402161D01*
X12322860Y11360708D01*
X12343231Y11320119D01*
X12365329Y11280495D01*
X12389154Y11241887D01*
X12414707Y11204346D01*
X12441885Y11167973D01*
X12470638Y11132820D01*
X12500914Y11099038D01*
X12532614Y11066576D01*
X12565786Y11035538D01*
X12600279Y11006023D01*
X12635992Y10978083D01*
X12672974Y10951718D01*
X12711074Y10927029D01*
X12750190Y10904067D01*
X12790322Y10882833D01*
X12831318Y10863376D01*
X12873177Y10845800D01*
X12915747Y10830052D01*
X12958978Y10816234D01*
X13002768Y10804296D01*
X13047065Y10794339D01*
X13091718Y10786364D01*
X13136727Y10780318D01*
X13181939Y10776356D01*
X13227304Y10774324D01*
X13272668Y10774324D01*
X13318032Y10776356D01*
X13363244Y10780318D01*
X13408253Y10786364D01*
X13418007Y10788091D01*
X13422426Y10787938D01*
X13426338Y10785906D01*
X13429030Y10782401D01*
X13429996Y10778083D01*
X13429996Y9909962D01*
X13458698Y9909962D01*
X13462660Y9909149D01*
X13466013Y9906863D01*
X13468197Y9903409D01*
X13468807Y9899396D01*
X13467842Y9895433D01*
X13455751Y9881463D01*
X13448436Y9870490D01*
X13445185Y9863886D01*
X13504468Y9863886D01*
X13504468Y9899802D01*
X13505230Y9903714D01*
X13507415Y9907016D01*
X13510717Y9909200D01*
X13514628Y9909962D01*
X13606983Y9909962D01*
X13610894Y9909200D01*
X13614196Y9907016D01*
X13616381Y9903714D01*
X13617143Y9899802D01*
X13617143Y9863886D01*
X13676426Y9863886D01*
X13673175Y9870490D01*
X13665860Y9881463D01*
X13653769Y9895433D01*
X13652754Y9899396D01*
X13653414Y9903409D01*
X13655598Y9906863D01*
X13658951Y9909149D01*
X13662913Y9909962D01*
X13781024Y9909962D01*
X13784986Y9909200D01*
X13788339Y9906863D01*
X13790523Y9903460D01*
X13791184Y9899497D01*
X13790269Y9895535D01*
X13787882Y9892284D01*
X13784376Y9890252D01*
X13778788Y9888270D01*
X13773861Y9885172D01*
X13769797Y9881108D01*
X13766698Y9876180D01*
X13764768Y9870744D01*
X13764056Y9864394D01*
X13764056Y9848850D01*
X13803630Y9848850D01*
X13803630Y9899802D01*
X13804392Y9903714D01*
X13806627Y9907016D01*
X13809929Y9909200D01*
X13813790Y9909962D01*
X13845743Y9909962D01*
X13849654Y9909200D01*
X13853363Y9906609D01*
X13855547Y9903307D01*
X13856309Y9899396D01*
X13856309Y9848850D01*
X13879830Y9848850D01*
X13883690Y9848037D01*
X13886992Y9845852D01*
X13889177Y9842550D01*
X13889990Y9838690D01*
X13889990Y9801301D01*
X13889177Y9797389D01*
X13886992Y9794087D01*
X13883690Y9791903D01*
X13879830Y9791141D01*
X13856309Y9791141D01*
X13856309Y9749078D01*
X13869416Y9749078D01*
X13873988Y9749586D01*
X13878102Y9749180D01*
X13881760Y9747199D01*
X13884249Y9743897D01*
X13885265Y9739884D01*
X13884554Y9735769D01*
X13882319Y9732314D01*
X13862964Y9712960D01*
X13859662Y9710775D01*
X13855750Y9709962D01*
X13633805Y9709962D01*
X13629386Y9710978D01*
X13625880Y9713772D01*
X13623899Y9717836D01*
X13623899Y9722358D01*
X13625830Y9726422D01*
X13629284Y9729266D01*
X13636244Y9732670D01*
X13647216Y9739985D01*
X13657122Y9748723D01*
X13665860Y9758629D01*
X13673175Y9769602D01*
X13676426Y9776206D01*
X13617143Y9776206D01*
X13617143Y9720122D01*
X13616381Y9716262D01*
X13614196Y9712960D01*
X13610894Y9710775D01*
X13606983Y9709962D01*
X13514628Y9709962D01*
X13510717Y9710775D01*
X13507415Y9712960D01*
X13505230Y9716262D01*
X13504468Y9720122D01*
X13504468Y9776206D01*
X13445185Y9776206D01*
X13448436Y9769602D01*
X13455751Y9758629D01*
X13464438Y9748723D01*
X13474395Y9739985D01*
X13485368Y9732670D01*
X13492276Y9729266D01*
X13495782Y9726422D01*
X13497712Y9722358D01*
X13497712Y9717836D01*
X13495731Y9713772D01*
X13492175Y9710978D01*
X13487806Y9709962D01*
X13391794Y9709962D01*
X13388898Y9710623D01*
X13385749Y9709962D01*
X13334288Y9709962D01*
X13330326Y9710775D01*
X13326973Y9713112D01*
X13082828Y9967010D01*
X13080695Y9970262D01*
X13079984Y9974072D01*
X13079984Y10578998D01*
X13079272Y10580674D01*
X12980670Y10679277D01*
X12978993Y10679988D01*
X12912750Y10679988D01*
X12909397Y10680547D01*
X12904571Y10682224D01*
X12898221Y10682935D01*
X12699390Y10682935D01*
X12693040Y10682224D01*
X12688214Y10680547D01*
X12684861Y10679988D01*
X12496800Y10679988D01*
X12492888Y10680750D01*
X12489586Y10682935D01*
X12481610Y10690961D01*
X12473889Y10697464D01*
X12465608Y10702391D01*
X12456668Y10705896D01*
X12447117Y10707928D01*
X12439650Y10708386D01*
X12130633Y10708386D01*
X12127077Y10708995D01*
X12035993Y10742980D01*
X12032589Y10743996D01*
X12026036Y10744758D01*
X11913920Y10744758D01*
X11907621Y10744047D01*
X11902135Y10742117D01*
X11897258Y10739018D01*
X11893143Y10734954D01*
X11890044Y10730026D01*
X11888165Y10724591D01*
X11887454Y10718241D01*
X11887454Y10690148D01*
X11886692Y10686237D01*
X11884456Y10682935D01*
X11881154Y10680750D01*
X11877294Y10679988D01*
X11862663Y10679988D01*
X11858802Y10680750D01*
X11855500Y10682935D01*
X11853265Y10686237D01*
X11852503Y10690148D01*
X11852503Y10718241D01*
X11851792Y10724591D01*
X11849862Y10730026D01*
X11846814Y10734954D01*
X11842699Y10739018D01*
X11837822Y10742117D01*
X11832336Y10744047D01*
X11826036Y10744758D01*
X11804650Y10744758D01*
X11804650Y10690758D01*
X11839803Y10690758D01*
X11843715Y10689996D01*
X11847017Y10687761D01*
X11849201Y10684459D01*
X11849963Y10680598D01*
X11849963Y10619384D01*
X11849201Y10615472D01*
X11847017Y10612170D01*
X11843715Y10609986D01*
X11839803Y10609224D01*
X11804650Y10609224D01*
X11804650Y10555224D01*
X11826036Y10555224D01*
X11832336Y10555935D01*
X11836450Y10557357D01*
X11840260Y10557916D01*
X11844020Y10557052D01*
X11847169Y10554817D01*
X11849252Y10551566D01*
X11849963Y10547756D01*
X11849963Y10509504D01*
X11849252Y10505744D01*
X11847169Y10502493D01*
X11844020Y10500258D01*
X11840260Y10499344D01*
X11835739Y10500156D01*
X11829440Y10500868D01*
X11816334Y10500868D01*
X11816334Y10458805D01*
X11839803Y10458805D01*
X11843715Y10458043D01*
X11847017Y10455859D01*
X11849201Y10452557D01*
X11849963Y10448645D01*
X11849963Y10411307D01*
X11849201Y10407396D01*
X11847017Y10404094D01*
X11843715Y10401909D01*
X11839803Y10401147D01*
X11816334Y10401147D01*
X11816334Y10360152D01*
X11815572Y10356240D01*
X11813336Y10352938D01*
X11810085Y10350754D01*
X11806174Y10349992D01*
X11773814Y10349992D01*
X11769902Y10350754D01*
X11766600Y10352938D01*
X11764416Y10356240D01*
X11763654Y10360152D01*
X11763654Y10401147D01*
X11724081Y10401147D01*
X11724081Y10390428D01*
X11723319Y10386517D01*
X11721084Y10383215D01*
X11717782Y10381030D01*
X11713921Y10380268D01*
X11710009Y10381030D01*
X11706758Y10383215D01*
X11682933Y10406989D01*
X11680748Y10410291D01*
X11679986Y10414203D01*
X11679986Y10553649D01*
X11680748Y10557510D01*
X11682933Y10560812D01*
X11686184Y10562996D01*
X11690045Y10563809D01*
X11693906Y10563098D01*
X11702135Y10557865D01*
X11707571Y10555935D01*
X11713921Y10555224D01*
X11735308Y10555224D01*
X11735308Y10609224D01*
X11687454Y10609224D01*
X11687454Y10590123D01*
X11686641Y10586262D01*
X11684457Y10582960D01*
X11681155Y10580776D01*
X11677294Y10579963D01*
X10944199Y10579963D01*
X10940288Y10580776D01*
X10936986Y10582960D01*
X10590682Y10929264D01*
X10588955Y10929975D01*
X8360968Y10929975D01*
X8359292Y10929264D01*
X8210702Y10780674D01*
X8209991Y10778998D01*
X8209991Y9104172D01*
X8209229Y9100312D01*
X8206994Y9097010D01*
X8022945Y8912961D01*
X8019643Y8910777D01*
X8015782Y8909964D01*
X7937449Y8909964D01*
X7934096Y8910574D01*
X7931150Y8912199D01*
X7927695Y8916568D01*
X7923580Y8920683D01*
X7919567Y8924188D01*
X7917942Y8927947D01*
X7917942Y8932011D01*
X7919567Y8935770D01*
X7923580Y8939276D01*
X7927695Y8943390D01*
X7930794Y8948267D01*
X7932674Y8953754D01*
X7933385Y8960053D01*
X7933385Y8988399D01*
X7880096Y8988399D01*
X7880096Y8936532D01*
X7879334Y8932672D01*
X7877098Y8929370D01*
X7873796Y8927185D01*
X7869936Y8926372D01*
X7810042Y8926372D01*
X7806131Y8927185D01*
X7802880Y8929370D01*
X7800644Y8932672D01*
X7799882Y8936532D01*
X7799882Y8988399D01*
X7736433Y8988399D01*
X7732522Y8989161D01*
X7729220Y8991346D01*
X7727035Y8994648D01*
X7726273Y8998559D01*
X7726273Y9033611D01*
X7667345Y9033611D01*
X7667345Y8964066D01*
X7705394Y8964066D01*
X7711744Y8964777D01*
X7717180Y8966708D01*
X7722108Y8969756D01*
X7726172Y8973870D01*
X7727797Y8976461D01*
X7730845Y8979560D01*
X7734909Y8981084D01*
X7739227Y8980830D01*
X7743037Y8978747D01*
X7745628Y8975293D01*
X7746593Y8971026D01*
X7746593Y8960053D01*
X7747304Y8953754D01*
X7749184Y8948267D01*
X7752283Y8943390D01*
X7756347Y8939276D01*
X7760411Y8935770D01*
X7762036Y8932011D01*
X7762036Y8927947D01*
X7760411Y8924188D01*
X7756347Y8920683D01*
X7752283Y8916568D01*
X7748828Y8912199D01*
X7745882Y8910574D01*
X7742529Y8909964D01*
G37*

%LPC*%
G36*
X7526578Y8964066D02*
G01*
X7564628Y8964066D01*
X7564628Y9033611D01*
X7500061Y9033611D01*
X7500061Y8990533D01*
X7500772Y8984234D01*
X7502702Y8978747D01*
X7505801Y8973870D01*
X7509865Y8969756D01*
X7514793Y8966708D01*
X7520228Y8964777D01*
G37*
G36*
X7880096Y9071559D02*
G01*
X7933385Y9071559D01*
X7933385Y9099905D01*
X7932674Y9106255D01*
X7930794Y9111691D01*
X7927695Y9116618D01*
X7923580Y9120682D01*
X7918703Y9123781D01*
X7913217Y9125661D01*
X7906918Y9126372D01*
X7880096Y9126372D01*
G37*
G36*
X7752232Y9071559D02*
G01*
X7799882Y9071559D01*
X7799882Y9126372D01*
X7773060Y9126372D01*
X7766710Y9125661D01*
X7761274Y9123781D01*
X7756347Y9120682D01*
X7752232Y9116517D01*
G37*
G36*
X7500061Y9146336D02*
G01*
X7564628Y9146336D01*
X7564628Y9215882D01*
X7526578Y9215882D01*
X7520228Y9215170D01*
X7514793Y9213291D01*
X7509865Y9210192D01*
X7505801Y9206077D01*
X7502702Y9201200D01*
X7500772Y9195714D01*
X7500061Y9189415D01*
G37*
G36*
X7667345Y9146336D02*
G01*
X7731912Y9146336D01*
X7731912Y9189415D01*
X7731201Y9195714D01*
X7729270Y9201200D01*
X7726172Y9206077D01*
X7722108Y9210192D01*
X7717180Y9213291D01*
X7711744Y9215170D01*
X7705394Y9215882D01*
X7667345Y9215882D01*
G37*
G36*
X7424724Y9255252D02*
G01*
X7446111Y9255252D01*
X7452461Y9255963D01*
X7457897Y9257842D01*
X7462774Y9260941D01*
X7466888Y9265005D01*
X7469987Y9269933D01*
X7471867Y9275368D01*
X7472578Y9281718D01*
X7472578Y9309201D01*
X7424724Y9309201D01*
G37*
G36*
X7424724Y9390786D02*
G01*
X7472578Y9390786D01*
X7472578Y9418269D01*
X7471867Y9424619D01*
X7469987Y9430054D01*
X7466888Y9434982D01*
X7462774Y9439046D01*
X7457897Y9442145D01*
X7452461Y9444024D01*
X7446111Y9444736D01*
X7424724Y9444736D01*
G37*
G36*
X13790574Y9749078D02*
G01*
X13803630Y9749078D01*
X13803630Y9791141D01*
X13764056Y9791141D01*
X13764056Y9775545D01*
X13764768Y9769246D01*
X13766698Y9763760D01*
X13769797Y9758883D01*
X13773861Y9754768D01*
X13778788Y9751720D01*
X13784224Y9749790D01*
G37*
G36*
X11724081Y10458805D02*
G01*
X11763654Y10458805D01*
X11763654Y10500868D01*
X11750548Y10500868D01*
X11744248Y10500156D01*
X11738762Y10498277D01*
X11733885Y10495178D01*
X11729770Y10491114D01*
X11726722Y10486186D01*
X11724792Y10480751D01*
X11724081Y10474401D01*
G37*
G36*
X11687454Y10690758D02*
G01*
X11735308Y10690758D01*
X11735308Y10744758D01*
X11713921Y10744758D01*
X11707571Y10744047D01*
X11702135Y10742117D01*
X11697208Y10739018D01*
X11693144Y10734954D01*
X11690045Y10730026D01*
X11688165Y10724591D01*
X11687454Y10718241D01*
G37*

%LPD*%
G36*
X11685473Y8830005D02*
G01*
X11681561Y8830767D01*
X11678259Y8832951D01*
X11676075Y8836253D01*
X11675313Y8840165D01*
X11675313Y8889187D01*
X11650116Y8889187D01*
X11646255Y8890000D01*
X11642953Y8892184D01*
X11640769Y8895486D01*
X11639956Y8899347D01*
X11639956Y8960612D01*
X11640769Y8964472D01*
X11642953Y8967774D01*
X11646255Y8969959D01*
X11650116Y8970772D01*
X11675313Y8970772D01*
X11675313Y9024721D01*
X11653926Y9024721D01*
X11651284Y9024467D01*
X11647068Y9024874D01*
X11643360Y9026956D01*
X11640870Y9030411D01*
X11639956Y9034526D01*
X11639956Y9223705D01*
X11640667Y9227362D01*
X11642598Y9230563D01*
X11645595Y9232798D01*
X11657838Y9238894D01*
X11662359Y9239961D01*
X11691010Y9239961D01*
X11695023Y9239199D01*
X11698325Y9236913D01*
X11700510Y9233458D01*
X11701170Y9229496D01*
X11700256Y9225584D01*
X11697868Y9222282D01*
X11694414Y9220250D01*
X11688775Y9218269D01*
X11683898Y9215170D01*
X11679783Y9211106D01*
X11676684Y9206179D01*
X11674805Y9200743D01*
X11674094Y9194393D01*
X11674094Y9178848D01*
X11713616Y9178848D01*
X11713616Y9229801D01*
X11714429Y9233712D01*
X11716613Y9237014D01*
X11719915Y9239199D01*
X11723776Y9239961D01*
X11756186Y9239961D01*
X11760047Y9239199D01*
X11763349Y9237014D01*
X11765584Y9233712D01*
X11766346Y9229801D01*
X11766346Y9178848D01*
X11789816Y9178848D01*
X11793728Y9178036D01*
X11796979Y9175851D01*
X11799214Y9172549D01*
X11799976Y9168688D01*
X11799976Y9131300D01*
X11799214Y9127388D01*
X11796979Y9124086D01*
X11793728Y9121902D01*
X11789816Y9121140D01*
X11766346Y9121140D01*
X11766346Y9079077D01*
X11779402Y9079077D01*
X11790273Y9080601D01*
X11794032Y9079687D01*
X11797182Y9077452D01*
X11799265Y9074251D01*
X11799976Y9070441D01*
X11799976Y9026296D01*
X11799214Y9022435D01*
X11797030Y9019133D01*
X11793778Y9016949D01*
X11789918Y9016136D01*
X11786006Y9016898D01*
X11777827Y9022130D01*
X11772341Y9024010D01*
X11766042Y9024721D01*
X11744655Y9024721D01*
X11744655Y8970772D01*
X11789816Y8970772D01*
X11793728Y8969959D01*
X11796979Y8967774D01*
X11799214Y8964472D01*
X11799976Y8960612D01*
X11799976Y8899347D01*
X11799214Y8895486D01*
X11796979Y8892184D01*
X11793728Y8890000D01*
X11789816Y8889187D01*
X11744655Y8889187D01*
X11744655Y8840165D01*
X11743842Y8836253D01*
X11741658Y8832951D01*
X11738356Y8830767D01*
X11734495Y8830005D01*
G37*

%LPC*%
G36*
X11700560Y9079077D02*
G01*
X11713616Y9079077D01*
X11713616Y9121140D01*
X11674094Y9121140D01*
X11674094Y9105544D01*
X11674805Y9099245D01*
X11676684Y9093758D01*
X11679783Y9088882D01*
X11683898Y9084767D01*
X11688775Y9081719D01*
X11694210Y9079788D01*
G37*

%LPD*%
G36*
X6394196Y8169960D02*
G01*
X6390284Y8170773D01*
X6387033Y8172958D01*
X6383274Y8176717D01*
X6381038Y8180019D01*
X6380276Y8183880D01*
X6381038Y8187791D01*
X6383274Y8191093D01*
X6386525Y8193278D01*
X6390436Y8194040D01*
X6408572Y8194040D01*
X6408572Y8293608D01*
X6349034Y8293608D01*
X6349034Y8220557D01*
X6349746Y8214207D01*
X6351625Y8208772D01*
X6354724Y8203844D01*
X6358788Y8199780D01*
X6360414Y8198764D01*
X6363512Y8195716D01*
X6365087Y8191652D01*
X6364782Y8187334D01*
X6362750Y8183524D01*
X6359245Y8180933D01*
X6355029Y8179968D01*
X6284214Y8179968D01*
X6280302Y8180781D01*
X6277000Y8182965D01*
X6172962Y8287003D01*
X6170777Y8290306D01*
X6169964Y8294166D01*
X6169964Y8358987D01*
X6169304Y8360714D01*
X6160719Y8369300D01*
X6158992Y8369960D01*
X5690158Y8369960D01*
X5686247Y8370773D01*
X5682945Y8372957D01*
X5680760Y8376259D01*
X5679998Y8380120D01*
X5679998Y8628938D01*
X5679795Y8629904D01*
X5670245Y9069933D01*
X5669991Y9071203D01*
X5669991Y9358985D01*
X5669280Y9360712D01*
X5560720Y9469272D01*
X5558993Y9469983D01*
X4259986Y9469983D01*
X4259986Y9244177D01*
X4259224Y9240316D01*
X4257040Y9237014D01*
X4232960Y9212935D01*
X4229658Y9210751D01*
X4225798Y9209989D01*
X4193082Y9209989D01*
X4188764Y9210954D01*
X4185259Y9213596D01*
X4183227Y9217507D01*
X4183075Y9221927D01*
X4184751Y9225991D01*
X4188815Y9231782D01*
X4192981Y9240672D01*
X4195521Y9250172D01*
X4196384Y9259976D01*
X4195521Y9269780D01*
X4192981Y9279280D01*
X4188815Y9288170D01*
X4183176Y9296196D01*
X4181398Y9298025D01*
X4179163Y9301327D01*
X4178401Y9305188D01*
X4178401Y9313976D01*
X4179468Y9318498D01*
X4185107Y9329775D01*
X4187494Y9332874D01*
X4190847Y9334804D01*
X4196181Y9336684D01*
X4201109Y9339783D01*
X4205173Y9343898D01*
X4208272Y9348774D01*
X4210202Y9354261D01*
X4210913Y9360560D01*
X4210913Y9439402D01*
X4210202Y9445752D01*
X4208272Y9451187D01*
X4205173Y9456115D01*
X4201109Y9460179D01*
X4199229Y9461398D01*
X4196283Y9464192D01*
X4194657Y9467951D01*
X4194657Y9472015D01*
X4196283Y9475774D01*
X4199229Y9478568D01*
X4201109Y9479788D01*
X4205173Y9483852D01*
X4208272Y9488779D01*
X4210202Y9494215D01*
X4210913Y9500565D01*
X4210913Y9513620D01*
X4168851Y9513620D01*
X4168851Y9476079D01*
X4168089Y9472168D01*
X4165854Y9468866D01*
X4162551Y9466681D01*
X4158691Y9465919D01*
X4121302Y9465919D01*
X4117390Y9466681D01*
X4114139Y9468866D01*
X4111904Y9472168D01*
X4111142Y9476079D01*
X4111142Y9513620D01*
X4069079Y9513620D01*
X4069079Y9500565D01*
X4069791Y9494215D01*
X4071721Y9488779D01*
X4074769Y9483852D01*
X4078884Y9479788D01*
X4080764Y9478568D01*
X4083710Y9475774D01*
X4085285Y9472015D01*
X4085285Y9467951D01*
X4083710Y9464192D01*
X4080764Y9461398D01*
X4078884Y9460179D01*
X4074769Y9456115D01*
X4071264Y9450527D01*
X4068114Y9447326D01*
X4063847Y9445853D01*
X4059326Y9446310D01*
X4055516Y9448749D01*
X4037329Y9466834D01*
X4031234Y9471812D01*
X4024579Y9475368D01*
X4017365Y9477552D01*
X4009390Y9478314D01*
X3998823Y9478365D01*
X3970528Y9480245D01*
X3966667Y9481261D01*
X3963517Y9483750D01*
X3961536Y9487255D01*
X3961079Y9491218D01*
X3962247Y9495078D01*
X3964736Y9498177D01*
X3968292Y9500108D01*
X3975709Y9502343D01*
X3978808Y9503664D01*
X3981297Y9503968D01*
X3998366Y9503968D01*
X3997807Y9505746D01*
X3995369Y9510318D01*
X3994302Y9513417D01*
X3994302Y9516770D01*
X3995369Y9519869D01*
X3997807Y9524441D01*
X4000144Y9532112D01*
X4000957Y9540087D01*
X4000144Y9548063D01*
X3997807Y9555734D01*
X3995369Y9560306D01*
X3994302Y9563455D01*
X3994302Y9566757D01*
X3995369Y9569907D01*
X3997807Y9574479D01*
X4000144Y9582150D01*
X4000957Y9590125D01*
X4000144Y9598050D01*
X3997807Y9605721D01*
X3995369Y9610293D01*
X3994302Y9613442D01*
X3994302Y9616744D01*
X3995369Y9619894D01*
X3997807Y9624466D01*
X4000144Y9632137D01*
X4001363Y9644583D01*
X4003497Y9648240D01*
X4006900Y9650679D01*
X4011015Y9651542D01*
X4099610Y9651542D01*
X4103979Y9650577D01*
X4107484Y9647834D01*
X4110024Y9644227D01*
X4111193Y9641789D01*
X4116781Y9633762D01*
X4123740Y9626803D01*
X4131818Y9621164D01*
X4140708Y9616998D01*
X4150207Y9614458D01*
X4159554Y9613646D01*
X4163161Y9612630D01*
X4166158Y9610394D01*
X4168140Y9607194D01*
X4168851Y9603536D01*
X4168851Y9566300D01*
X4210913Y9566300D01*
X4210913Y9579406D01*
X4210202Y9585706D01*
X4208272Y9591192D01*
X4205173Y9596069D01*
X4201109Y9600184D01*
X4196181Y9603232D01*
X4192473Y9604552D01*
X4188764Y9606889D01*
X4186326Y9610598D01*
X4185716Y9614966D01*
X4187037Y9619183D01*
X4190034Y9622485D01*
X4196232Y9626803D01*
X4203192Y9633762D01*
X4208780Y9641789D01*
X4212945Y9650679D01*
X4215485Y9660178D01*
X4216349Y9669983D01*
X4215485Y9679787D01*
X4212945Y9689287D01*
X4208780Y9698177D01*
X4204970Y9703663D01*
X4203446Y9706864D01*
X4203141Y9710369D01*
X4204055Y9713772D01*
X4206087Y9716668D01*
X4213199Y9723729D01*
X4218787Y9731806D01*
X4222953Y9740696D01*
X4225493Y9750196D01*
X4226356Y9759950D01*
X4225493Y9769754D01*
X4222953Y9779254D01*
X4218787Y9788144D01*
X4213199Y9796221D01*
X4206595Y9802774D01*
X4204411Y9806076D01*
X4203598Y9809988D01*
X4204411Y9813848D01*
X4206595Y9817150D01*
X4213199Y9823754D01*
X4218787Y9831781D01*
X4222953Y9840671D01*
X4225493Y9850170D01*
X4226356Y9859975D01*
X4225493Y9869779D01*
X4222902Y9879431D01*
X4222699Y9883597D01*
X4224121Y9887458D01*
X4226966Y9890455D01*
X4236262Y9896856D01*
X4243171Y9903764D01*
X4248810Y9911791D01*
X4252976Y9920681D01*
X4255516Y9930180D01*
X4256379Y9939985D01*
X4255516Y9949789D01*
X4252976Y9959289D01*
X4248810Y9968179D01*
X4243171Y9976205D01*
X4241596Y9977780D01*
X4239412Y9981082D01*
X4238599Y9984994D01*
X4239412Y9988854D01*
X4241596Y9992156D01*
X4243171Y9993731D01*
X4248810Y10001808D01*
X4252976Y10010698D01*
X4255516Y10020198D01*
X4256379Y10029952D01*
X4255516Y10039756D01*
X4252976Y10049256D01*
X4248810Y10058146D01*
X4243171Y10066223D01*
X4236212Y10073182D01*
X4228185Y10078770D01*
X4219295Y10082936D01*
X4209796Y10085476D01*
X4199991Y10086340D01*
X4190187Y10085476D01*
X4180687Y10082936D01*
X4171797Y10078770D01*
X4163771Y10073182D01*
X4161942Y10071354D01*
X4158691Y10069169D01*
X4154779Y10068407D01*
X4120184Y10068407D01*
X4117136Y10068255D01*
X4109720Y10066985D01*
X4102709Y10064292D01*
X4096359Y10060228D01*
X4092752Y10057028D01*
X4010558Y9961321D01*
X4007002Y9958679D01*
X4002684Y9957765D01*
X3998366Y9958781D01*
X3994912Y9961575D01*
X3988917Y9968992D01*
X3982770Y9974072D01*
X3975709Y9977831D01*
X3968038Y9980168D01*
X3959555Y9980980D01*
X3861155Y9980980D01*
X3857244Y9981793D01*
X3853942Y9983978D01*
X3851757Y9987280D01*
X3850995Y9991140D01*
X3850995Y10001250D01*
X3823919Y10001250D01*
X3823919Y9988550D01*
X3823208Y9984790D01*
X3821176Y9981590D01*
X3818128Y9979355D01*
X3814419Y9978390D01*
X3811676Y9978186D01*
X3807409Y9978847D01*
X3803751Y9981234D01*
X3801465Y9984841D01*
X3800957Y9990480D01*
X3800957Y10089743D01*
X3798366Y10128961D01*
X3798366Y10191038D01*
X3799078Y10194798D01*
X3801211Y10198049D01*
X3804310Y10200284D01*
X3808069Y10201148D01*
X3811879Y10200589D01*
X3814216Y10199776D01*
X3820566Y10199065D01*
X3833622Y10199065D01*
X3833622Y10241127D01*
X3808374Y10241127D01*
X3804716Y10241788D01*
X3801567Y10243769D01*
X3799332Y10246715D01*
X3798265Y10250271D01*
X3797604Y10257383D01*
X3795420Y10264597D01*
X3791864Y10271252D01*
X3788206Y10275671D01*
X3786479Y10278668D01*
X3785920Y10282123D01*
X3785920Y10288676D01*
X3786682Y10292537D01*
X3788867Y10295839D01*
X3792169Y10298074D01*
X3796080Y10298836D01*
X3833622Y10298836D01*
X3833622Y10340898D01*
X3820566Y10340898D01*
X3814216Y10340187D01*
X3808780Y10338257D01*
X3803853Y10335209D01*
X3799789Y10331094D01*
X3798570Y10329214D01*
X3795776Y10326268D01*
X3792016Y10324642D01*
X3787952Y10324642D01*
X3784193Y10326268D01*
X3781399Y10329214D01*
X3780231Y10331094D01*
X3776116Y10335209D01*
X3771239Y10338257D01*
X3765753Y10340187D01*
X3759454Y10340898D01*
X3680561Y10340898D01*
X3674262Y10340187D01*
X3668776Y10338257D01*
X3663899Y10335209D01*
X3659784Y10331094D01*
X3656736Y10326217D01*
X3654856Y10320832D01*
X3652875Y10317480D01*
X3649776Y10315092D01*
X3645662Y10313009D01*
X3642156Y10311993D01*
X3638550Y10312247D01*
X3635298Y10313771D01*
X3628136Y10318800D01*
X3619246Y10322966D01*
X3609746Y10325506D01*
X3599942Y10326370D01*
X3590137Y10325506D01*
X3580637Y10322966D01*
X3571748Y10318800D01*
X3559810Y10310317D01*
X3556050Y10309504D01*
X3552291Y10310114D01*
X3548989Y10312095D01*
X3546703Y10315194D01*
X3545687Y10318902D01*
X3543300Y10350398D01*
X3543503Y10353141D01*
X3544366Y10355732D01*
X3550767Y10368534D01*
X3553002Y10371531D01*
X3561130Y10376560D01*
X3565194Y10380675D01*
X3568293Y10385552D01*
X3570427Y10391648D01*
X3572560Y10395204D01*
X3575913Y10397591D01*
X3579977Y10398455D01*
X3584041Y10397591D01*
X3587445Y10395204D01*
X3589578Y10391648D01*
X3591712Y10385552D01*
X3594811Y10380675D01*
X3598875Y10376560D01*
X3603802Y10373512D01*
X3609238Y10371582D01*
X3615588Y10370870D01*
X3628796Y10370870D01*
X3628796Y10412018D01*
X3581044Y10412018D01*
X3577183Y10412780D01*
X3573881Y10415016D01*
X3571697Y10418318D01*
X3570884Y10422178D01*
X3570884Y10457789D01*
X3571697Y10461650D01*
X3573881Y10464952D01*
X3577183Y10467136D01*
X3581044Y10467949D01*
X3628796Y10467949D01*
X3628796Y10509097D01*
X3615588Y10509097D01*
X3609238Y10508386D01*
X3603802Y10506456D01*
X3598875Y10503408D01*
X3594811Y10499293D01*
X3591712Y10494416D01*
X3589578Y10488320D01*
X3587445Y10484764D01*
X3584041Y10482376D01*
X3579977Y10481513D01*
X3575913Y10482376D01*
X3572560Y10484764D01*
X3570427Y10488320D01*
X3568293Y10494416D01*
X3565194Y10499293D01*
X3561130Y10503408D01*
X3556203Y10506456D01*
X3550767Y10508386D01*
X3544417Y10509097D01*
X3464915Y10509097D01*
X3458616Y10508386D01*
X3453129Y10506456D01*
X3448253Y10503408D01*
X3444138Y10499293D01*
X3441039Y10494416D01*
X3439160Y10488930D01*
X3438448Y10482630D01*
X3438448Y10397337D01*
X3439160Y10391038D01*
X3441039Y10385552D01*
X3444138Y10380675D01*
X3448253Y10376560D01*
X3456330Y10371531D01*
X3458565Y10368534D01*
X3462629Y10360406D01*
X3463594Y10357459D01*
X3463594Y10354310D01*
X3462629Y10351312D01*
X3460242Y10346486D01*
X3457956Y10343540D01*
X3454806Y10341559D01*
X3451148Y10340898D01*
X3440531Y10340898D01*
X3434232Y10340187D01*
X3428746Y10338257D01*
X3423869Y10335209D01*
X3419754Y10331094D01*
X3418586Y10329214D01*
X3415792Y10326268D01*
X3412032Y10324642D01*
X3407968Y10324642D01*
X3404209Y10326268D01*
X3401415Y10329214D01*
X3400196Y10331094D01*
X3396183Y10335158D01*
X3389934Y10338968D01*
X3387750Y10340746D01*
X3386175Y10343083D01*
X3381552Y10352278D01*
X3380536Y10355783D01*
X3380790Y10359440D01*
X3382365Y10362742D01*
X3388817Y10371836D01*
X3392982Y10380675D01*
X3395522Y10390174D01*
X3396386Y10399979D01*
X3395522Y10409783D01*
X3392982Y10419283D01*
X3388817Y10428173D01*
X3383178Y10436199D01*
X3376218Y10443159D01*
X3368192Y10448798D01*
X3359302Y10452963D01*
X3349802Y10455503D01*
X3339998Y10456367D01*
X3330194Y10455503D01*
X3320694Y10452963D01*
X3311804Y10448798D01*
X3303778Y10443159D01*
X3296818Y10436199D01*
X3291179Y10428173D01*
X3287014Y10419283D01*
X3284474Y10409783D01*
X3283610Y10399979D01*
X3284474Y10390174D01*
X3287014Y10380675D01*
X3291179Y10371836D01*
X3297631Y10362742D01*
X3299155Y10359440D01*
X3299460Y10355783D01*
X3298444Y10352328D01*
X3293821Y10343083D01*
X3292195Y10340746D01*
X3290062Y10338968D01*
X3283864Y10335158D01*
X3279800Y10331094D01*
X3276701Y10326217D01*
X3274822Y10320731D01*
X3274110Y10314432D01*
X3274110Y10225532D01*
X3274822Y10219232D01*
X3276701Y10213746D01*
X3279800Y10208869D01*
X3283864Y10204805D01*
X3290062Y10200995D01*
X3292195Y10199217D01*
X3293821Y10196880D01*
X3300628Y10183266D01*
X3301644Y10179710D01*
X3302355Y10172496D01*
X3304540Y10165283D01*
X3308096Y10158679D01*
X3313176Y10152481D01*
X3318611Y10147046D01*
X3320796Y10143744D01*
X3321608Y10139883D01*
X3321558Y10104780D01*
X3321151Y10101834D01*
X3319983Y10098074D01*
X3319170Y10089591D01*
X3319170Y9990582D01*
X3319475Y9987178D01*
X3319018Y9982962D01*
X3316935Y9979355D01*
X3313480Y9976866D01*
X3309365Y9976002D01*
X3306368Y9976002D01*
X3302508Y9976764D01*
X3299206Y9978999D01*
X3297021Y9982301D01*
X3296208Y9986162D01*
X3296208Y10001250D01*
X3269183Y10001250D01*
X3269183Y9991140D01*
X3268421Y9987280D01*
X3266186Y9983978D01*
X3262884Y9981793D01*
X3259023Y9980980D01*
X3160572Y9980980D01*
X3152089Y9980168D01*
X3144469Y9977831D01*
X3137357Y9974072D01*
X3131210Y9968992D01*
X3126130Y9962794D01*
X3122320Y9955733D01*
X3119983Y9948062D01*
X3119221Y9940086D01*
X3119983Y9932111D01*
X3122320Y9924440D01*
X3124758Y9919868D01*
X3125825Y9916769D01*
X3125825Y9913416D01*
X3124758Y9910318D01*
X3122320Y9905746D01*
X3121812Y9903968D01*
X3138881Y9903968D01*
X3141370Y9903663D01*
X3144469Y9902342D01*
X3151886Y9900107D01*
X3155391Y9898176D01*
X3157931Y9895078D01*
X3159048Y9891217D01*
X3158591Y9887254D01*
X3156610Y9883749D01*
X3153460Y9881260D01*
X3149600Y9880244D01*
X3121355Y9878364D01*
X3064205Y9878364D01*
X3060344Y9879126D01*
X3057042Y9881362D01*
X3054858Y9884664D01*
X3054045Y9888524D01*
X3054858Y9892436D01*
X3057042Y9895687D01*
X3060192Y9898888D01*
X3063290Y9903764D01*
X3065170Y9909251D01*
X3065881Y9915550D01*
X3065881Y9931146D01*
X3026359Y9931146D01*
X3026359Y9886289D01*
X3025444Y9882073D01*
X3022854Y9878669D01*
X3019145Y9876536D01*
X3015284Y9875418D01*
X3008680Y9871862D01*
X3002483Y9866782D01*
X2947060Y9811359D01*
X2943758Y9809175D01*
X2939897Y9808413D01*
X2302916Y9808413D01*
X2299258Y9809073D01*
X2296109Y9811004D01*
X2293874Y9813950D01*
X2292807Y9817506D01*
X2293112Y9821164D01*
X2295499Y9830206D01*
X2296363Y9839960D01*
X2295499Y9849764D01*
X2292959Y9859264D01*
X2288794Y9868154D01*
X2283206Y9876231D01*
X2281377Y9878009D01*
X2279192Y9881311D01*
X2278380Y9885222D01*
X2278380Y10049459D01*
X2279345Y10053777D01*
X2293264Y10083546D01*
X2295194Y10089184D01*
X2295906Y10095585D01*
X2295906Y10154412D01*
X2295194Y10160711D01*
X2293264Y10166197D01*
X2290216Y10171074D01*
X2286101Y10175189D01*
X2281224Y10178237D01*
X2275738Y10180167D01*
X2269439Y10180878D01*
X2210562Y10180878D01*
X2204262Y10180167D01*
X2198776Y10178237D01*
X2193899Y10175189D01*
X2189784Y10171074D01*
X2186686Y10166197D01*
X2184603Y10160101D01*
X2182418Y10156545D01*
X2179066Y10154158D01*
X2175002Y10153294D01*
X2170938Y10154158D01*
X2167534Y10156545D01*
X2165400Y10160101D01*
X2163267Y10166197D01*
X2160219Y10171074D01*
X2156104Y10175189D01*
X2151227Y10178237D01*
X2145741Y10180167D01*
X2139442Y10180878D01*
X2080564Y10180878D01*
X2074265Y10180167D01*
X2068779Y10178237D01*
X2063902Y10175189D01*
X2059787Y10171074D01*
X2056688Y10166197D01*
X2054606Y10160101D01*
X2052421Y10156545D01*
X2049068Y10154158D01*
X2045004Y10153294D01*
X2040940Y10154158D01*
X2037537Y10156545D01*
X2035403Y10160101D01*
X2033270Y10166197D01*
X2030222Y10171074D01*
X2026107Y10175189D01*
X2021230Y10178237D01*
X2015743Y10180167D01*
X2009444Y10180878D01*
X2001367Y10180878D01*
X2001367Y10146334D01*
X2043938Y10146334D01*
X2047798Y10145572D01*
X2051100Y10143337D01*
X2053336Y10140035D01*
X2054098Y10136174D01*
X2054098Y10113772D01*
X2053336Y10109911D01*
X2051100Y10106609D01*
X2047798Y10104374D01*
X2043938Y10103612D01*
X2001367Y10103612D01*
X2001367Y10069068D01*
X2009444Y10069068D01*
X2016556Y10070084D01*
X2021230Y10071709D01*
X2026107Y10074757D01*
X2030222Y10078872D01*
X2033270Y10083749D01*
X2035403Y10089845D01*
X2037588Y10093401D01*
X2041042Y10095839D01*
X2045157Y10096652D01*
X2049221Y10095738D01*
X2052624Y10093198D01*
X2054656Y10089591D01*
X2056282Y10084511D01*
X2070404Y10050983D01*
X2071166Y10047020D01*
X2070049Y9818624D01*
X2069236Y9814763D01*
X2067052Y9811461D01*
X2063750Y9809276D01*
X2059889Y9808514D01*
X2019909Y9808514D01*
X2015998Y9809276D01*
X2012696Y9811512D01*
X1967636Y9856825D01*
X1961438Y9861905D01*
X1954784Y9865461D01*
X1947621Y9867646D01*
X1942084Y9868204D01*
X1938528Y9869220D01*
X1928164Y9874453D01*
X1925167Y9876688D01*
X1923237Y9879838D01*
X1922525Y9883546D01*
X1922525Y9898278D01*
X1921814Y9904577D01*
X1919935Y9910064D01*
X1916836Y9914940D01*
X1912721Y9919055D01*
X1907844Y9922103D01*
X1902358Y9924034D01*
X1896059Y9924745D01*
X1783943Y9924745D01*
X1777644Y9924034D01*
X1772157Y9922103D01*
X1767281Y9919055D01*
X1763166Y9914940D01*
X1760067Y9910064D01*
X1758188Y9904577D01*
X1757476Y9898278D01*
X1757476Y9761677D01*
X1758188Y9755378D01*
X1760067Y9749891D01*
X1763166Y9745014D01*
X1767281Y9740900D01*
X1772157Y9737852D01*
X1777644Y9735921D01*
X1783943Y9735210D01*
X1896059Y9735210D01*
X1902358Y9735921D01*
X1907844Y9737852D01*
X1912721Y9740900D01*
X1916836Y9745014D01*
X1919935Y9749891D01*
X1921814Y9755378D01*
X1922525Y9761677D01*
X1922525Y9768586D01*
X1923288Y9772497D01*
X1925523Y9775799D01*
X1928825Y9777984D01*
X1932686Y9778746D01*
X1936597Y9777984D01*
X1939899Y9775799D01*
X1968500Y9747046D01*
X1970684Y9743744D01*
X1971446Y9739884D01*
X1970684Y9735972D01*
X1968449Y9732721D01*
X1930907Y9695230D01*
X1927606Y9693046D01*
X1923694Y9692284D01*
X1919833Y9693046D01*
X1916531Y9695230D01*
X1912721Y9699040D01*
X1907844Y9702139D01*
X1902358Y9704019D01*
X1896059Y9704730D01*
X1783943Y9704730D01*
X1777644Y9704019D01*
X1772157Y9702139D01*
X1767281Y9699040D01*
X1763166Y9694926D01*
X1760067Y9690049D01*
X1758188Y9684562D01*
X1757476Y9678263D01*
X1757476Y9541713D01*
X1758188Y9535363D01*
X1760067Y9529927D01*
X1763166Y9525000D01*
X1767281Y9520936D01*
X1772157Y9517837D01*
X1777644Y9515957D01*
X1783943Y9515246D01*
X1896059Y9515246D01*
X1902358Y9515957D01*
X1907844Y9517837D01*
X1912721Y9520936D01*
X1916836Y9525000D01*
X1919935Y9529927D01*
X1921814Y9535363D01*
X1922525Y9541713D01*
X1922525Y9574479D01*
X1923491Y9578797D01*
X1926285Y9582302D01*
X2012899Y9668560D01*
X2016201Y9670745D01*
X2020062Y9671507D01*
X2190953Y9671507D01*
X2194814Y9670745D01*
X2198065Y9668560D01*
X2200300Y9665309D01*
X2201113Y9660178D01*
X2200198Y9655810D01*
X2194204Y9642754D01*
X2191207Y9638182D01*
X2187041Y9629292D01*
X2184501Y9619792D01*
X2183638Y9609988D01*
X2184501Y9600184D01*
X2187041Y9590684D01*
X2191207Y9581794D01*
X2196795Y9573768D01*
X2203754Y9566808D01*
X2211832Y9561169D01*
X2220722Y9557004D01*
X2230221Y9554464D01*
X2240026Y9553600D01*
X2249779Y9554464D01*
X2259279Y9557004D01*
X2268169Y9561169D01*
X2276246Y9566808D01*
X2283206Y9573768D01*
X2288794Y9581794D01*
X2292959Y9590684D01*
X2295499Y9600184D01*
X2296363Y9609988D01*
X2295499Y9619792D01*
X2292959Y9629292D01*
X2288794Y9638182D01*
X2284272Y9644888D01*
X2279040Y9654946D01*
X2277922Y9659518D01*
X2277922Y9661245D01*
X2278684Y9665157D01*
X2280869Y9668510D01*
X2284171Y9670745D01*
X2288082Y9671507D01*
X2795524Y9671507D01*
X2799435Y9670745D01*
X2802737Y9668510D01*
X2804922Y9665208D01*
X2805684Y9661347D01*
X2804922Y9657435D01*
X2802737Y9654184D01*
X2799689Y9651136D01*
X2796590Y9646259D01*
X2794711Y9640773D01*
X2792730Y9637369D01*
X2789631Y9635032D01*
X2778607Y9629495D01*
X2774086Y9628428D01*
X2720594Y9628428D01*
X2712618Y9627666D01*
X2705404Y9625482D01*
X2698750Y9621926D01*
X2692552Y9616846D01*
X2673197Y9597491D01*
X2668117Y9591294D01*
X2664561Y9584639D01*
X2662377Y9577425D01*
X2661615Y9569450D01*
X2661615Y9539884D01*
X2660599Y9535414D01*
X2654858Y9523628D01*
X2651201Y9518142D01*
X2647035Y9509252D01*
X2644495Y9499752D01*
X2643632Y9489948D01*
X2644495Y9480194D01*
X2647035Y9470694D01*
X2651201Y9461804D01*
X2656789Y9453727D01*
X2663748Y9446768D01*
X2671826Y9441180D01*
X2680716Y9437014D01*
X2690215Y9434474D01*
X2700020Y9433610D01*
X2709773Y9434474D01*
X2719273Y9437014D01*
X2728163Y9441180D01*
X2736240Y9446768D01*
X2743200Y9453727D01*
X2748788Y9461804D01*
X2752953Y9470694D01*
X2755493Y9480194D01*
X2756357Y9489948D01*
X2755493Y9499752D01*
X2752953Y9509252D01*
X2748788Y9518142D01*
X2745079Y9523679D01*
X2739440Y9535312D01*
X2738424Y9539732D01*
X2738424Y9541459D01*
X2739186Y9545320D01*
X2741422Y9548622D01*
X2744724Y9550857D01*
X2748584Y9551619D01*
X2773883Y9551619D01*
X2778404Y9550552D01*
X2789682Y9544913D01*
X2792780Y9542526D01*
X2794762Y9539173D01*
X2796590Y9533788D01*
X2799689Y9528911D01*
X2806852Y9522206D01*
X2808528Y9519208D01*
X2809087Y9515856D01*
X2809087Y9464040D01*
X2808528Y9460687D01*
X2806852Y9457740D01*
X2803906Y9455200D01*
X2799791Y9451086D01*
X2796743Y9446209D01*
X2794812Y9440722D01*
X2794101Y9434423D01*
X2794101Y9345574D01*
X2794812Y9339224D01*
X2796743Y9333788D01*
X2799791Y9328861D01*
X2803906Y9324797D01*
X2808782Y9321698D01*
X2814269Y9319768D01*
X2820568Y9319056D01*
X2899410Y9319056D01*
X2905760Y9319768D01*
X2911195Y9321698D01*
X2916123Y9324797D01*
X2920187Y9328861D01*
X2921406Y9330740D01*
X2924200Y9333687D01*
X2927959Y9335312D01*
X2932023Y9335312D01*
X2935782Y9333687D01*
X2938576Y9330740D01*
X2939796Y9328861D01*
X2943860Y9324797D01*
X2948787Y9321698D01*
X2954223Y9319768D01*
X2960573Y9319056D01*
X2973628Y9319056D01*
X2973628Y9361119D01*
X2936087Y9361119D01*
X2932176Y9361881D01*
X2928874Y9364116D01*
X2926689Y9367418D01*
X2925927Y9371279D01*
X2925927Y9408668D01*
X2926689Y9412579D01*
X2928874Y9415830D01*
X2932176Y9418066D01*
X2936087Y9418828D01*
X2973628Y9418828D01*
X2973628Y9460890D01*
X2960573Y9460890D01*
X2954223Y9460179D01*
X2948787Y9458248D01*
X2943860Y9455200D01*
X2939796Y9451086D01*
X2938576Y9449206D01*
X2935782Y9446260D01*
X2932023Y9444685D01*
X2927959Y9444685D01*
X2924200Y9446260D01*
X2921406Y9449206D01*
X2920187Y9451086D01*
X2913126Y9457740D01*
X2911449Y9460738D01*
X2910890Y9464090D01*
X2910890Y9516008D01*
X2911449Y9519361D01*
X2913126Y9522307D01*
X2916021Y9524796D01*
X2920085Y9528911D01*
X2921304Y9530791D01*
X2924098Y9533737D01*
X2927858Y9535363D01*
X2931922Y9535363D01*
X2935681Y9533737D01*
X2938475Y9530791D01*
X2939694Y9528911D01*
X2943758Y9524796D01*
X2948686Y9521748D01*
X2954121Y9519818D01*
X2960471Y9519107D01*
X3039313Y9519107D01*
X3045612Y9519818D01*
X3051098Y9521748D01*
X3055975Y9524796D01*
X3060090Y9528911D01*
X3063189Y9533788D01*
X3065068Y9539274D01*
X3065780Y9545574D01*
X3065780Y9630156D01*
X3066186Y9633000D01*
X3067405Y9635642D01*
X3074619Y9647021D01*
X3076905Y9649510D01*
X3079851Y9651136D01*
X3083204Y9651695D01*
X3120491Y9651644D01*
X3148888Y9649764D01*
X3152749Y9648698D01*
X3155950Y9646208D01*
X3157880Y9642754D01*
X3158337Y9638741D01*
X3157220Y9634880D01*
X3154680Y9631781D01*
X3151174Y9629902D01*
X3141370Y9626549D01*
X3138881Y9626244D01*
X3121812Y9626244D01*
X3122320Y9624466D01*
X3124758Y9619894D01*
X3125825Y9616744D01*
X3125825Y9613442D01*
X3124758Y9610293D01*
X3122320Y9605721D01*
X3119983Y9598050D01*
X3119221Y9590125D01*
X3119983Y9582150D01*
X3122320Y9574479D01*
X3124758Y9569907D01*
X3125825Y9566757D01*
X3125825Y9563455D01*
X3124758Y9560306D01*
X3122320Y9555734D01*
X3119983Y9548063D01*
X3119221Y9540087D01*
X3119983Y9532112D01*
X3122320Y9524441D01*
X3124758Y9519869D01*
X3125825Y9516770D01*
X3125825Y9513417D01*
X3124758Y9510318D01*
X3122320Y9505746D01*
X3119983Y9498076D01*
X3119221Y9490100D01*
X3119983Y9482124D01*
X3122320Y9474454D01*
X3124758Y9469882D01*
X3125825Y9466732D01*
X3125825Y9463430D01*
X3124758Y9460331D01*
X3122320Y9455708D01*
X3119983Y9448038D01*
X3119221Y9440113D01*
X3119983Y9432137D01*
X3122320Y9424466D01*
X3126130Y9417405D01*
X3131210Y9411208D01*
X3137357Y9406128D01*
X3144469Y9402318D01*
X3152089Y9400032D01*
X3160572Y9399168D01*
X3259023Y9399168D01*
X3262884Y9398406D01*
X3266186Y9396222D01*
X3268421Y9392920D01*
X3269183Y9389008D01*
X3269183Y9290608D01*
X3268827Y9285376D01*
X3266694Y9281769D01*
X3263290Y9279280D01*
X3259175Y9278416D01*
X3200400Y9278416D01*
X3192424Y9277654D01*
X3185210Y9275470D01*
X3178556Y9271914D01*
X3172409Y9266834D01*
X3153105Y9247276D01*
X3148177Y9241282D01*
X3144621Y9234627D01*
X3142437Y9227413D01*
X3141878Y9221317D01*
X3140811Y9217761D01*
X3134512Y9205061D01*
X3132124Y9202013D01*
X3128772Y9200032D01*
X3125571Y9198914D01*
X3120694Y9195816D01*
X3116580Y9191752D01*
X3113532Y9186824D01*
X3111601Y9181388D01*
X3110890Y9175038D01*
X3110890Y9095536D01*
X3111601Y9089237D01*
X3113532Y9083751D01*
X3116580Y9078874D01*
X3120694Y9074759D01*
X3125571Y9071711D01*
X3131667Y9069578D01*
X3135223Y9067444D01*
X3137611Y9064040D01*
X3138474Y9059976D01*
X3137611Y9055912D01*
X3135223Y9052509D01*
X3131667Y9050375D01*
X3125571Y9048242D01*
X3120694Y9045194D01*
X3116580Y9041079D01*
X3113532Y9036202D01*
X3111601Y9030716D01*
X3110890Y9024416D01*
X3110890Y9011158D01*
X3152038Y9011158D01*
X3152038Y9058910D01*
X3152800Y9062821D01*
X3155035Y9066072D01*
X3158337Y9068308D01*
X3162198Y9069070D01*
X3197809Y9069070D01*
X3201670Y9068308D01*
X3204972Y9066072D01*
X3207156Y9062821D01*
X3207918Y9058910D01*
X3207918Y9011158D01*
X3249117Y9011158D01*
X3249117Y9024416D01*
X3248406Y9030716D01*
X3246475Y9036202D01*
X3243376Y9041079D01*
X3239312Y9045194D01*
X3234385Y9048242D01*
X3228340Y9050375D01*
X3224784Y9052509D01*
X3222396Y9055912D01*
X3221532Y9059976D01*
X3222396Y9064040D01*
X3224784Y9067444D01*
X3228340Y9069578D01*
X3234385Y9071711D01*
X3239312Y9074759D01*
X3243376Y9078874D01*
X3246475Y9083751D01*
X3248406Y9089237D01*
X3249117Y9095536D01*
X3249117Y9175038D01*
X3248406Y9181338D01*
X3246018Y9188043D01*
X3245459Y9191853D01*
X3246323Y9195612D01*
X3248558Y9198762D01*
X3251809Y9200845D01*
X3255568Y9201607D01*
X3276142Y9201607D01*
X3280359Y9200692D01*
X3283813Y9198152D01*
X3285896Y9194342D01*
X3286201Y9190075D01*
X3284778Y9186062D01*
X3281730Y9181185D01*
X3279800Y9175699D01*
X3279089Y9169400D01*
X3279089Y9156344D01*
X3321151Y9156344D01*
X3321151Y9191447D01*
X3321913Y9195308D01*
X3324098Y9198610D01*
X3327400Y9200845D01*
X3331311Y9201607D01*
X3339592Y9201607D01*
X3347567Y9202369D01*
X3354781Y9204553D01*
X3365906Y9210649D01*
X3367582Y9213189D01*
X3386886Y9232747D01*
X3391814Y9238742D01*
X3396234Y9246768D01*
X3396691Y9249714D01*
X3397605Y9252813D01*
X3398316Y9258096D01*
X3399739Y9275216D01*
X3401009Y9279331D01*
X3403854Y9282531D01*
X3407816Y9284309D01*
X3412134Y9284258D01*
X3416046Y9282430D01*
X3418840Y9279178D01*
X3420008Y9275013D01*
X3421583Y9251340D01*
X3421583Y9201962D01*
X3420668Y9197797D01*
X3418179Y9194393D01*
X3414471Y9192310D01*
X3410254Y9191904D01*
X3400755Y9195155D01*
X3394405Y9195866D01*
X3378860Y9195866D01*
X3378860Y9156344D01*
X3411423Y9156344D01*
X3415284Y9155531D01*
X3418586Y9153347D01*
X3420821Y9150045D01*
X3421583Y9146184D01*
X3421583Y9113774D01*
X3420821Y9109913D01*
X3418586Y9106611D01*
X3415284Y9104376D01*
X3411423Y9103614D01*
X3378860Y9103614D01*
X3378860Y9066072D01*
X3378047Y9062161D01*
X3375863Y9058859D01*
X3372561Y9056674D01*
X3368700Y9055912D01*
X3331311Y9055912D01*
X3327400Y9056674D01*
X3324098Y9058859D01*
X3321913Y9062161D01*
X3321151Y9066072D01*
X3321151Y9103614D01*
X3279089Y9103614D01*
X3279089Y9090558D01*
X3279800Y9084208D01*
X3281730Y9078772D01*
X3284778Y9073845D01*
X3288893Y9069781D01*
X3290773Y9068562D01*
X3293719Y9065768D01*
X3295294Y9062008D01*
X3295294Y9057944D01*
X3293719Y9054185D01*
X3290773Y9051391D01*
X3288893Y9050172D01*
X3284778Y9046108D01*
X3281730Y9041180D01*
X3279800Y9035745D01*
X3279089Y9029446D01*
X3279089Y8950147D01*
X3278327Y8946235D01*
X3276092Y8942933D01*
X3272790Y8940749D01*
X3268929Y8939987D01*
X3259277Y8939987D01*
X3255365Y8940749D01*
X3252063Y8942933D01*
X3249879Y8946235D01*
X3249117Y8950147D01*
X3249117Y8958122D01*
X3207918Y8958122D01*
X3207918Y8950147D01*
X3207156Y8946235D01*
X3204972Y8942933D01*
X3201670Y8940749D01*
X3197809Y8939987D01*
X3162198Y8939987D01*
X3158337Y8940749D01*
X3155035Y8942933D01*
X3152800Y8946235D01*
X3152038Y8950147D01*
X3152038Y8958122D01*
X3110890Y8958122D01*
X3110890Y8950147D01*
X3110128Y8946235D01*
X3107893Y8942933D01*
X3104591Y8940749D01*
X3100730Y8939987D01*
X1844192Y8939987D01*
X1840331Y8940749D01*
X1837029Y8942933D01*
X1712975Y9066987D01*
X1710791Y9070289D01*
X1709978Y9074200D01*
X1709978Y9513976D01*
X1710791Y9517888D01*
X1712975Y9521190D01*
X1716836Y9525000D01*
X1719884Y9529927D01*
X1721815Y9535363D01*
X1722526Y9541713D01*
X1722526Y9678263D01*
X1721815Y9684562D01*
X1719884Y9690049D01*
X1716836Y9694926D01*
X1712975Y9698786D01*
X1710791Y9702088D01*
X1709978Y9706000D01*
X1709978Y9733991D01*
X1710791Y9737852D01*
X1712975Y9741154D01*
X1716836Y9745014D01*
X1719884Y9749891D01*
X1721815Y9755378D01*
X1722526Y9761677D01*
X1722526Y9898278D01*
X1721815Y9904577D01*
X1719884Y9910064D01*
X1716836Y9914940D01*
X1712975Y9918801D01*
X1710791Y9922103D01*
X1709978Y9925964D01*
X1709978Y10138867D01*
X1710791Y10142778D01*
X1712975Y10146080D01*
X1716278Y10148265D01*
X1720138Y10149027D01*
X1724050Y10148265D01*
X1727352Y10146080D01*
X1731162Y10142270D01*
X1736039Y10139172D01*
X1741474Y10137292D01*
X1747824Y10136581D01*
X1765909Y10136581D01*
X1765909Y10174884D01*
X1720138Y10174884D01*
X1716278Y10175646D01*
X1712975Y10177830D01*
X1710791Y10181132D01*
X1709978Y10185044D01*
X1709978Y10214914D01*
X1710791Y10218826D01*
X1712975Y10222128D01*
X1716278Y10224312D01*
X1720138Y10225074D01*
X1765909Y10225074D01*
X1765909Y10263378D01*
X1747824Y10263378D01*
X1741474Y10262666D01*
X1736039Y10260787D01*
X1731162Y10257688D01*
X1727352Y10253878D01*
X1724050Y10251694D01*
X1720138Y10250932D01*
X1716278Y10251694D01*
X1712975Y10253878D01*
X1710791Y10257180D01*
X1709978Y10261092D01*
X1709978Y10575747D01*
X1710791Y10579658D01*
X1712975Y10582960D01*
X1777034Y10647019D01*
X1780336Y10649204D01*
X1784197Y10649966D01*
X5855766Y10649966D01*
X5859678Y10649204D01*
X5862980Y10647019D01*
X6126988Y10382961D01*
X6129223Y10379659D01*
X6129985Y10375747D01*
X6129985Y9079992D01*
X6241389Y9079992D01*
X6245301Y9079230D01*
X6248603Y9076994D01*
X6253276Y9072321D01*
X6258204Y9069222D01*
X6263640Y9067292D01*
X6269990Y9066580D01*
X6409842Y9066580D01*
X6416141Y9067292D01*
X6421628Y9069222D01*
X6426504Y9072321D01*
X6430670Y9076436D01*
X6434124Y9080449D01*
X6437884Y9082024D01*
X6441948Y9082024D01*
X6445707Y9080449D01*
X6449212Y9076385D01*
X6453327Y9072321D01*
X6458204Y9069222D01*
X6463690Y9067292D01*
X6469989Y9066580D01*
X6498336Y9066580D01*
X6498336Y9079839D01*
X6499098Y9083700D01*
X6501282Y9087002D01*
X6504584Y9089186D01*
X6508496Y9089999D01*
X6529984Y9089999D01*
X6529984Y9245752D01*
X6530746Y9249664D01*
X6532981Y9252966D01*
X6567017Y9287002D01*
X6570319Y9289186D01*
X6574180Y9289999D01*
X6695795Y9289999D01*
X6699910Y9289084D01*
X6703364Y9286595D01*
X6705447Y9282887D01*
X6705904Y9278670D01*
X6705600Y9276029D01*
X6705600Y9269628D01*
X6751929Y9269628D01*
X6751929Y9279839D01*
X6752691Y9283700D01*
X6754926Y9287002D01*
X6758228Y9289186D01*
X6762089Y9289999D01*
X6808063Y9289999D01*
X6811975Y9289186D01*
X6815277Y9287002D01*
X6817461Y9283700D01*
X6818223Y9279839D01*
X6818223Y9269628D01*
X6838950Y9269628D01*
X6842759Y9268917D01*
X6846011Y9266783D01*
X6848246Y9263634D01*
X6849109Y9259874D01*
X6849313Y9255556D01*
X6849973Y9249664D01*
X6849973Y9240469D01*
X6849211Y9236608D01*
X6847027Y9233306D01*
X6843725Y9231122D01*
X6839813Y9230309D01*
X6818223Y9230309D01*
X6818223Y9217660D01*
X6817461Y9213748D01*
X6815277Y9210446D01*
X6811975Y9208262D01*
X6808063Y9207500D01*
X6762089Y9207500D01*
X6758228Y9208262D01*
X6754926Y9210446D01*
X6752691Y9213748D01*
X6751929Y9217660D01*
X6751929Y9230309D01*
X6705600Y9230309D01*
X6705600Y9223959D01*
X6706311Y9217609D01*
X6708190Y9212173D01*
X6710883Y9207906D01*
X6712254Y9204350D01*
X6712254Y9200591D01*
X6710883Y9197086D01*
X6708190Y9192818D01*
X6706311Y9187332D01*
X6705600Y9181033D01*
X6705600Y9128963D01*
X6706311Y9122613D01*
X6708190Y9117177D01*
X6711289Y9112250D01*
X6715353Y9108186D01*
X6720281Y9105087D01*
X6725716Y9103207D01*
X6732066Y9102496D01*
X6807962Y9102496D01*
X6811822Y9101683D01*
X6815124Y9099499D01*
X6817359Y9096197D01*
X6818122Y9092336D01*
X6817359Y9088424D01*
X6815124Y9085122D01*
X6732981Y9002979D01*
X6729679Y9000744D01*
X6725767Y8999982D01*
X6630009Y8999982D01*
X6630009Y8204200D01*
X6629196Y8200288D01*
X6627012Y8196986D01*
X6602984Y8172958D01*
X6599681Y8170773D01*
X6595770Y8169960D01*
G37*

%LPC*%
G36*
X6501231Y8194040D02*
G01*
X6534353Y8194040D01*
X6540652Y8194802D01*
X6546138Y8196681D01*
X6551015Y8199780D01*
X6555130Y8203844D01*
X6558178Y8208772D01*
X6560108Y8214207D01*
X6560820Y8220557D01*
X6560820Y8293608D01*
X6501231Y8293608D01*
G37*
G36*
X6349034Y8466328D02*
G01*
X6408572Y8466328D01*
X6408572Y8565845D01*
X6375501Y8565845D01*
X6369151Y8565134D01*
X6363614Y8563203D01*
X6358788Y8560155D01*
X6354724Y8556091D01*
X6351625Y8551164D01*
X6349746Y8545728D01*
X6349034Y8539378D01*
G37*
G36*
X6501231Y8466328D02*
G01*
X6560820Y8466328D01*
X6560820Y8539378D01*
X6560108Y8545728D01*
X6558178Y8551164D01*
X6555130Y8556091D01*
X6551015Y8560155D01*
X6546138Y8563254D01*
X6540652Y8565134D01*
X6534353Y8565845D01*
X6501231Y8565845D01*
G37*
G36*
X5906719Y8467445D02*
G01*
X5908903Y8468410D01*
X5921908Y8476284D01*
X5933846Y8485632D01*
X5944616Y8496401D01*
X5953963Y8508339D01*
X5961837Y8521344D01*
X5962802Y8523528D01*
X5906719Y8523528D01*
G37*
G36*
X5794044Y8467445D02*
G01*
X5794044Y8523528D01*
X5737961Y8523528D01*
X5738926Y8521344D01*
X5746800Y8508339D01*
X5756148Y8496401D01*
X5766917Y8485632D01*
X5778855Y8476284D01*
X5791860Y8468410D01*
G37*
G36*
X5906719Y8636203D02*
G01*
X5962802Y8636203D01*
X5961837Y8638387D01*
X5953963Y8651392D01*
X5944616Y8663330D01*
X5933846Y8674100D01*
X5921908Y8683447D01*
X5908903Y8691321D01*
X5906719Y8692286D01*
G37*
G36*
X5737961Y8636203D02*
G01*
X5794044Y8636203D01*
X5794044Y8692286D01*
X5791860Y8691321D01*
X5778855Y8683447D01*
X5766917Y8674100D01*
X5756148Y8663330D01*
X5746800Y8651392D01*
X5738926Y8638387D01*
G37*
G36*
X6581495Y9066580D02*
G01*
X6609842Y9066580D01*
X6616750Y9067495D01*
X6621627Y9069222D01*
X6626555Y9072321D01*
X6630619Y9076385D01*
X6633718Y9081312D01*
X6635597Y9086748D01*
X6636308Y9093047D01*
X6636308Y9119920D01*
X6581495Y9119920D01*
G37*
G36*
X6581495Y9200083D02*
G01*
X6636308Y9200083D01*
X6636308Y9226956D01*
X6635597Y9233255D01*
X6633718Y9238691D01*
X6630619Y9243618D01*
X6626555Y9247682D01*
X6621627Y9250781D01*
X6616192Y9252712D01*
X6609842Y9253423D01*
X6581495Y9253423D01*
G37*
G36*
X3026359Y9319056D02*
G01*
X3039414Y9319056D01*
X3045714Y9319768D01*
X3051200Y9321698D01*
X3056077Y9324797D01*
X3060192Y9328861D01*
X3063290Y9333788D01*
X3065170Y9339224D01*
X3065881Y9345574D01*
X3065881Y9361119D01*
X3026359Y9361119D01*
G37*
G36*
X3026359Y9418828D02*
G01*
X3065881Y9418828D01*
X3065881Y9434423D01*
X3065170Y9440722D01*
X3063290Y9446209D01*
X3060192Y9451086D01*
X3056077Y9455200D01*
X3051200Y9458248D01*
X3045714Y9460179D01*
X3039414Y9460890D01*
X3026359Y9460890D01*
G37*
G36*
X4069079Y9566300D02*
G01*
X4111142Y9566300D01*
X4111142Y9605873D01*
X4095546Y9605873D01*
X4089247Y9605162D01*
X4083761Y9603232D01*
X4078884Y9600184D01*
X4074769Y9596069D01*
X4071721Y9591192D01*
X4069791Y9585706D01*
X4069079Y9579406D01*
G37*
G36*
X2820568Y9889083D02*
G01*
X2899410Y9889083D01*
X2905760Y9889794D01*
X2911195Y9891674D01*
X2916123Y9894773D01*
X2920187Y9898888D01*
X2921406Y9900767D01*
X2924200Y9903714D01*
X2927959Y9905288D01*
X2932023Y9905288D01*
X2935782Y9903714D01*
X2938576Y9900767D01*
X2939796Y9898888D01*
X2943860Y9894773D01*
X2948787Y9891674D01*
X2954223Y9889794D01*
X2960573Y9889083D01*
X2973628Y9889083D01*
X2973628Y9931146D01*
X2936087Y9931146D01*
X2932176Y9931908D01*
X2928874Y9934092D01*
X2926689Y9937394D01*
X2925927Y9941306D01*
X2925927Y9978694D01*
X2926689Y9982555D01*
X2928874Y9985857D01*
X2932176Y9988042D01*
X2936087Y9988854D01*
X2973628Y9988854D01*
X2973628Y10030866D01*
X2960573Y10030866D01*
X2954223Y10030155D01*
X2948787Y10028275D01*
X2943860Y10025176D01*
X2939796Y10021112D01*
X2938576Y10019233D01*
X2935782Y10016286D01*
X2932023Y10014661D01*
X2927959Y10014661D01*
X2924200Y10016286D01*
X2921406Y10019233D01*
X2920187Y10021112D01*
X2916123Y10025176D01*
X2911195Y10028275D01*
X2905760Y10030155D01*
X2899410Y10030866D01*
X2820568Y10030866D01*
X2814269Y10030155D01*
X2808782Y10028275D01*
X2803906Y10025176D01*
X2799791Y10021112D01*
X2796743Y10016185D01*
X2794863Y10010800D01*
X2792882Y10007447D01*
X2789783Y10005110D01*
X2778506Y9999472D01*
X2773984Y9998405D01*
X2740101Y9998405D01*
X2736240Y9999167D01*
X2732938Y10001351D01*
X2731363Y10002926D01*
X2729179Y10006228D01*
X2728417Y10010089D01*
X2728417Y10020147D01*
X2729433Y10024618D01*
X2735122Y10036302D01*
X2738780Y10041788D01*
X2742946Y10050678D01*
X2745486Y10060178D01*
X2746349Y10069982D01*
X2745486Y10079786D01*
X2742946Y10089286D01*
X2738780Y10098176D01*
X2733192Y10106202D01*
X2726232Y10113162D01*
X2718155Y10118801D01*
X2709265Y10122966D01*
X2699766Y10125506D01*
X2689961Y10126370D01*
X2680208Y10125506D01*
X2670708Y10122966D01*
X2661818Y10118801D01*
X2653741Y10113162D01*
X2646781Y10106202D01*
X2641193Y10098176D01*
X2637028Y10089286D01*
X2634488Y10079786D01*
X2633624Y10069982D01*
X2634488Y10060178D01*
X2637028Y10050678D01*
X2641193Y10041788D01*
X2644902Y10036251D01*
X2650540Y10024567D01*
X2651556Y10020147D01*
X2651556Y9990480D01*
X2652369Y9982504D01*
X2654554Y9975291D01*
X2658110Y9968687D01*
X2663190Y9962489D01*
X2692501Y9933178D01*
X2698699Y9928098D01*
X2705303Y9924542D01*
X2712516Y9922357D01*
X2720492Y9921544D01*
X2773984Y9921544D01*
X2778506Y9920478D01*
X2789783Y9914839D01*
X2792882Y9912502D01*
X2794863Y9909098D01*
X2796743Y9903764D01*
X2799791Y9898888D01*
X2803906Y9894773D01*
X2808782Y9891674D01*
X2814269Y9889794D01*
G37*
G36*
X3026359Y9988854D02*
G01*
X3065881Y9988854D01*
X3065881Y10004399D01*
X3065170Y10010749D01*
X3063290Y10016185D01*
X3060192Y10021112D01*
X3056077Y10025176D01*
X3051200Y10028275D01*
X3045714Y10030155D01*
X3039414Y10030866D01*
X3026359Y10030866D01*
G37*
G36*
X1950567Y10069068D02*
G01*
X1958644Y10069068D01*
X1958644Y10103612D01*
X1924100Y10103612D01*
X1924100Y10095534D01*
X1924812Y10089235D01*
X1926691Y10083749D01*
X1929790Y10078872D01*
X1933905Y10074757D01*
X1938782Y10071709D01*
X1944268Y10069779D01*
G37*
G36*
X3269183Y10078923D02*
G01*
X3296208Y10078923D01*
X3296208Y10128402D01*
X3294430Y10127843D01*
X3287369Y10124084D01*
X3281172Y10119004D01*
X3276092Y10112806D01*
X3272332Y10105745D01*
X3269996Y10098074D01*
X3269183Y10089591D01*
G37*
G36*
X3823919Y10078923D02*
G01*
X3850995Y10078923D01*
X3850995Y10089591D01*
X3850132Y10098074D01*
X3847846Y10105745D01*
X3844036Y10112806D01*
X3838956Y10119004D01*
X3832758Y10124084D01*
X3825697Y10127843D01*
X3823919Y10128402D01*
G37*
G36*
X1828596Y10136581D02*
G01*
X1846681Y10136581D01*
X1852980Y10137292D01*
X1858467Y10139172D01*
X1863343Y10142270D01*
X1867458Y10146385D01*
X1870557Y10151262D01*
X1872437Y10156748D01*
X1873148Y10163048D01*
X1873148Y10174884D01*
X1828596Y10174884D01*
G37*
G36*
X1924100Y10146334D02*
G01*
X1958644Y10146334D01*
X1958644Y10180878D01*
X1950567Y10180878D01*
X1944268Y10180167D01*
X1938782Y10178237D01*
X1933905Y10175189D01*
X1929790Y10171074D01*
X1926742Y10166248D01*
X1924812Y10160711D01*
X1924100Y10154412D01*
G37*
G36*
X3886352Y10199065D02*
G01*
X3899408Y10199065D01*
X3905758Y10199776D01*
X3911193Y10201706D01*
X3916070Y10204754D01*
X3920185Y10208869D01*
X3923284Y10213746D01*
X3925163Y10219232D01*
X3925874Y10225532D01*
X3925874Y10241127D01*
X3886352Y10241127D01*
G37*
G36*
X1950567Y10219080D02*
G01*
X2009444Y10219080D01*
X2015743Y10219791D01*
X2021230Y10221722D01*
X2026107Y10224770D01*
X2030222Y10228884D01*
X2033270Y10233761D01*
X2035403Y10239857D01*
X2037537Y10243413D01*
X2040940Y10245801D01*
X2045004Y10246664D01*
X2049068Y10245801D01*
X2052421Y10243413D01*
X2054606Y10239857D01*
X2056688Y10233761D01*
X2059787Y10228884D01*
X2063902Y10224770D01*
X2068779Y10221722D01*
X2074265Y10219791D01*
X2080564Y10219080D01*
X2139442Y10219080D01*
X2145741Y10219791D01*
X2151227Y10221722D01*
X2156104Y10224770D01*
X2160219Y10228884D01*
X2163267Y10233761D01*
X2165400Y10239857D01*
X2167534Y10243413D01*
X2170938Y10245801D01*
X2175002Y10246664D01*
X2179066Y10245801D01*
X2182418Y10243413D01*
X2184603Y10239857D01*
X2186686Y10233761D01*
X2189784Y10228884D01*
X2193899Y10224770D01*
X2198776Y10221722D01*
X2204262Y10219791D01*
X2210562Y10219080D01*
X2269439Y10219080D01*
X2275738Y10219791D01*
X2281224Y10221722D01*
X2286101Y10224770D01*
X2290216Y10228884D01*
X2293264Y10233761D01*
X2295194Y10239248D01*
X2295906Y10245547D01*
X2295906Y10304424D01*
X2295194Y10310774D01*
X2293264Y10316413D01*
X2284069Y10336123D01*
X2283155Y10339527D01*
X2283460Y10343083D01*
X2284933Y10346283D01*
X2288794Y10351820D01*
X2292959Y10360710D01*
X2295499Y10370210D01*
X2296363Y10379964D01*
X2295499Y10389768D01*
X2292959Y10399268D01*
X2288794Y10408158D01*
X2283206Y10416235D01*
X2276246Y10423194D01*
X2268169Y10428782D01*
X2259279Y10432948D01*
X2249779Y10435488D01*
X2240026Y10436352D01*
X2230221Y10435488D01*
X2220722Y10432948D01*
X2211832Y10428782D01*
X2203754Y10423194D01*
X2196795Y10416235D01*
X2191207Y10408158D01*
X2187041Y10399268D01*
X2184806Y10390987D01*
X2182774Y10387126D01*
X2179320Y10384434D01*
X2175002Y10383469D01*
X2170684Y10384434D01*
X2167229Y10387126D01*
X2165197Y10390987D01*
X2162962Y10399268D01*
X2158796Y10408158D01*
X2153208Y10416235D01*
X2146249Y10423194D01*
X2138172Y10428782D01*
X2129282Y10432948D01*
X2119782Y10435488D01*
X2110028Y10436352D01*
X2100224Y10435488D01*
X2090724Y10432948D01*
X2081834Y10428782D01*
X2073757Y10423194D01*
X2066798Y10416235D01*
X2061210Y10408158D01*
X2057044Y10399268D01*
X2054809Y10390987D01*
X2052777Y10387126D01*
X2049322Y10384434D01*
X2045004Y10383469D01*
X2040686Y10384434D01*
X2037232Y10387126D01*
X2035200Y10390987D01*
X2032965Y10399268D01*
X2028799Y10408158D01*
X2023211Y10416235D01*
X2016252Y10423194D01*
X2008174Y10428782D01*
X1999284Y10432948D01*
X1989785Y10435488D01*
X1980031Y10436352D01*
X1970227Y10435488D01*
X1960727Y10432948D01*
X1951837Y10428782D01*
X1943760Y10423194D01*
X1936800Y10416235D01*
X1931212Y10408158D01*
X1927047Y10399268D01*
X1924507Y10389768D01*
X1923643Y10379964D01*
X1924507Y10370210D01*
X1927047Y10360710D01*
X1931212Y10351820D01*
X1935073Y10346283D01*
X1936546Y10343083D01*
X1936851Y10339578D01*
X1935937Y10336123D01*
X1926742Y10316413D01*
X1924812Y10310774D01*
X1924100Y10304424D01*
X1924100Y10245547D01*
X1924812Y10239248D01*
X1926691Y10233761D01*
X1929790Y10228884D01*
X1933905Y10224770D01*
X1938782Y10221722D01*
X1944268Y10219791D01*
G37*
G36*
X1828596Y10225074D02*
G01*
X1873148Y10225074D01*
X1873148Y10236911D01*
X1872437Y10243210D01*
X1870557Y10248696D01*
X1867458Y10253573D01*
X1863343Y10257688D01*
X1858467Y10260787D01*
X1852980Y10262666D01*
X1846681Y10263378D01*
X1828596Y10263378D01*
G37*
G36*
X3886352Y10298836D02*
G01*
X3925874Y10298836D01*
X3925874Y10314432D01*
X3925163Y10320731D01*
X3923284Y10326217D01*
X3920185Y10331094D01*
X3916070Y10335209D01*
X3911193Y10338257D01*
X3905758Y10340187D01*
X3899408Y10340898D01*
X3886352Y10340898D01*
G37*
G36*
X3681831Y10370870D02*
G01*
X3695090Y10370870D01*
X3701389Y10371582D01*
X3706876Y10373512D01*
X3711752Y10376560D01*
X3715867Y10380675D01*
X3718915Y10385552D01*
X3720846Y10391038D01*
X3721557Y10397337D01*
X3721557Y10412018D01*
X3681831Y10412018D01*
G37*
G36*
X3681831Y10467949D02*
G01*
X3721557Y10467949D01*
X3721557Y10482630D01*
X3720846Y10488930D01*
X3718915Y10494416D01*
X3715867Y10499293D01*
X3711752Y10503408D01*
X3706876Y10506456D01*
X3701389Y10508386D01*
X3695090Y10509097D01*
X3681831Y10509097D01*
G37*

%LPD*%
G36*
X6984187Y8169960D02*
G01*
X6980326Y8170773D01*
X6977024Y8172958D01*
X6952945Y8196986D01*
X6950760Y8200288D01*
X6949998Y8204200D01*
X6949998Y9092438D01*
X6950862Y9096603D01*
X6953351Y9100007D01*
X6957059Y9102140D01*
X6961835Y9102496D01*
X6981748Y9102496D01*
X6981748Y9135313D01*
X6960158Y9135313D01*
X6956247Y9136126D01*
X6952945Y9138310D01*
X6950760Y9141612D01*
X6949998Y9145473D01*
X6949998Y9164472D01*
X6950760Y9168333D01*
X6952945Y9171635D01*
X6956247Y9173870D01*
X6960158Y9174632D01*
X6981748Y9174632D01*
X6981748Y9187332D01*
X6982510Y9191193D01*
X6984695Y9194495D01*
X6987997Y9196679D01*
X6991908Y9197492D01*
X7037882Y9197492D01*
X7041743Y9196679D01*
X7045045Y9194495D01*
X7047280Y9191193D01*
X7048042Y9187332D01*
X7048042Y9174632D01*
X7104532Y9174632D01*
X7108444Y9173870D01*
X7111746Y9171635D01*
X7113930Y9168333D01*
X7114692Y9164472D01*
X7114692Y9146336D01*
X7152640Y9146336D01*
X7152640Y9199829D01*
X7153402Y9203690D01*
X7155637Y9206992D01*
X7158888Y9209227D01*
X7162800Y9209989D01*
X7245197Y9209989D01*
X7249058Y9209227D01*
X7252360Y9206992D01*
X7254544Y9203690D01*
X7255357Y9199829D01*
X7255357Y9146336D01*
X7309815Y9146336D01*
X7313726Y9145574D01*
X7317028Y9143339D01*
X7319213Y9140037D01*
X7319975Y9136176D01*
X7319975Y9043771D01*
X7319213Y9039910D01*
X7317028Y9036608D01*
X7313726Y9034424D01*
X7309815Y9033611D01*
X7255357Y9033611D01*
X7255357Y8964066D01*
X7293406Y8964066D01*
X7299756Y8964777D01*
X7305192Y8966708D01*
X7310120Y8969756D01*
X7314184Y8973870D01*
X7317282Y8978747D01*
X7319162Y8984234D01*
X7319518Y8987129D01*
X7320635Y8990736D01*
X7322972Y8993682D01*
X7326274Y8995562D01*
X7329982Y8996172D01*
X7333691Y8995308D01*
X7336790Y8993174D01*
X7389266Y8940698D01*
X7390993Y8939987D01*
X7415784Y8939987D01*
X7419644Y8939225D01*
X7422946Y8936990D01*
X7427010Y8932976D01*
X7429195Y8929674D01*
X7430008Y8925763D01*
X7430008Y8576005D01*
X7429195Y8572144D01*
X7427010Y8568842D01*
X7423708Y8566658D01*
X7419848Y8565845D01*
X7391247Y8565845D01*
X7391247Y8466328D01*
X7419848Y8466328D01*
X7423708Y8465566D01*
X7427010Y8463330D01*
X7429195Y8460028D01*
X7430008Y8456168D01*
X7430008Y8303768D01*
X7429195Y8299907D01*
X7427010Y8296605D01*
X7423708Y8294370D01*
X7419848Y8293608D01*
X7391247Y8293608D01*
X7391247Y8194040D01*
X7419848Y8194040D01*
X7423708Y8193278D01*
X7427010Y8191093D01*
X7429195Y8187791D01*
X7430008Y8183880D01*
X7430008Y8180120D01*
X7429195Y8176259D01*
X7427010Y8172958D01*
X7423708Y8170773D01*
X7419848Y8169960D01*
G37*

%LPC*%
G36*
X7265466Y8194040D02*
G01*
X7298588Y8194040D01*
X7298588Y8293608D01*
X7239000Y8293608D01*
X7239000Y8220557D01*
X7239711Y8214207D01*
X7241641Y8208772D01*
X7244689Y8203844D01*
X7248804Y8199780D01*
X7253681Y8196681D01*
X7259167Y8194802D01*
G37*
G36*
X7239000Y8466328D02*
G01*
X7298588Y8466328D01*
X7298588Y8565845D01*
X7265466Y8565845D01*
X7259167Y8565134D01*
X7253681Y8563254D01*
X7248804Y8560155D01*
X7244689Y8556091D01*
X7241641Y8551164D01*
X7239711Y8545728D01*
X7239000Y8539378D01*
G37*
G36*
X7114540Y8964066D02*
G01*
X7152640Y8964066D01*
X7152640Y9033611D01*
X7088073Y9033611D01*
X7088073Y8990533D01*
X7088784Y8984234D01*
X7090714Y8978747D01*
X7093762Y8973870D01*
X7097877Y8969756D01*
X7102754Y8966708D01*
X7108240Y8964777D01*
G37*
G36*
X7048042Y9102496D02*
G01*
X7067753Y9102496D01*
X7067753Y9135313D01*
X7048042Y9135313D01*
G37*

%LPD*%
G36*
X3224225Y8030006D02*
G01*
X3220313Y8030768D01*
X3217011Y8032953D01*
X3202990Y8047024D01*
X3200755Y8050326D01*
X3199993Y8054187D01*
X3199993Y8175752D01*
X3200755Y8179663D01*
X3202990Y8182965D01*
X3217011Y8196986D01*
X3220313Y8199221D01*
X3224225Y8199983D01*
X3235096Y8199983D01*
X3239312Y8199069D01*
X3242818Y8196427D01*
X3244850Y8192617D01*
X3245154Y8188299D01*
X3243580Y8184235D01*
X3240481Y8181238D01*
X3238855Y8180222D01*
X3234791Y8176107D01*
X3231692Y8171230D01*
X3229813Y8165744D01*
X3229102Y8159445D01*
X3229102Y8146338D01*
X3271164Y8146338D01*
X3271164Y8183880D01*
X3271926Y8187791D01*
X3274110Y8191093D01*
X3277412Y8193278D01*
X3281324Y8194040D01*
X3318662Y8194040D01*
X3322574Y8193278D01*
X3325876Y8191093D01*
X3328060Y8187791D01*
X3328822Y8183880D01*
X3328822Y8146338D01*
X3370884Y8146338D01*
X3370884Y8159445D01*
X3370173Y8165744D01*
X3368294Y8171230D01*
X3365195Y8176107D01*
X3361131Y8180222D01*
X3359505Y8181238D01*
X3356406Y8184235D01*
X3354832Y8188299D01*
X3355136Y8192617D01*
X3357168Y8196427D01*
X3360674Y8199069D01*
X3364890Y8199983D01*
X3725113Y8199983D01*
X3729329Y8199069D01*
X3732784Y8196427D01*
X3734866Y8192617D01*
X3735171Y8188299D01*
X3733596Y8184235D01*
X3730498Y8181238D01*
X3728872Y8180222D01*
X3724808Y8176107D01*
X3721709Y8171230D01*
X3719779Y8165744D01*
X3719068Y8159445D01*
X3719068Y8146338D01*
X3761130Y8146338D01*
X3761130Y8183880D01*
X3761892Y8187791D01*
X3764127Y8191093D01*
X3767429Y8193278D01*
X3771290Y8194040D01*
X3808679Y8194040D01*
X3812590Y8193278D01*
X3815842Y8191093D01*
X3818077Y8187791D01*
X3818839Y8183880D01*
X3818839Y8146338D01*
X3860901Y8146338D01*
X3860901Y8159445D01*
X3860190Y8165744D01*
X3858260Y8171230D01*
X3855212Y8176107D01*
X3851097Y8180222D01*
X3849471Y8181238D01*
X3846372Y8184235D01*
X3844848Y8188299D01*
X3845102Y8192617D01*
X3847185Y8196427D01*
X3850640Y8199069D01*
X3854907Y8199983D01*
X3865778Y8199983D01*
X3869690Y8199221D01*
X3872992Y8196986D01*
X3887012Y8182965D01*
X3889197Y8179663D01*
X3890010Y8175752D01*
X3890010Y8044180D01*
X3889197Y8040319D01*
X3887012Y8037017D01*
X3882948Y8032953D01*
X3879646Y8030768D01*
X3875786Y8030006D01*
G37*

%LPC*%
G36*
X3745585Y8054086D02*
G01*
X3761130Y8054086D01*
X3761130Y8093659D01*
X3719068Y8093659D01*
X3719068Y8080552D01*
X3719779Y8074253D01*
X3721709Y8068767D01*
X3724808Y8063890D01*
X3728872Y8059775D01*
X3733800Y8056727D01*
X3739235Y8054797D01*
G37*
G36*
X3818839Y8054086D02*
G01*
X3834434Y8054086D01*
X3840734Y8054797D01*
X3846220Y8056727D01*
X3851097Y8059775D01*
X3855212Y8063890D01*
X3858260Y8068767D01*
X3860190Y8074253D01*
X3860901Y8080552D01*
X3860901Y8093659D01*
X3818839Y8093659D01*
G37*
G36*
X3328822Y8054086D02*
G01*
X3344418Y8054086D01*
X3350768Y8054797D01*
X3356203Y8056727D01*
X3361131Y8059775D01*
X3365195Y8063890D01*
X3368294Y8068767D01*
X3370173Y8074253D01*
X3370884Y8080552D01*
X3370884Y8093659D01*
X3328822Y8093659D01*
G37*
G36*
X3255568Y8054086D02*
G01*
X3271164Y8054086D01*
X3271164Y8093659D01*
X3229102Y8093659D01*
X3229102Y8080552D01*
X3229813Y8074253D01*
X3231692Y8068767D01*
X3234791Y8063890D01*
X3238855Y8059775D01*
X3243783Y8056727D01*
X3249218Y8054797D01*
G37*

%LPD*%
G36*
X15953892Y9905034D02*
G01*
X15883890Y9862566D01*
X15883890Y9797542D01*
X15953892Y9755073D01*
G37*
G36*
X15081148Y10083342D02*
G01*
X15117470Y9985857D01*
X15182494Y9985857D01*
X15218816Y10083342D01*
G37*
G36*
X13866876Y10652404D02*
G01*
X13847622Y10647375D01*
X13847622Y10582402D01*
X13866926Y10577372D01*
G37*
G36*
X13648944Y10462158D02*
G01*
X13535761Y10403027D01*
X13585799Y10403027D01*
X13719911Y10441228D01*
G37*
G36*
X13866876Y8922461D02*
G01*
X13831925Y8917432D01*
X13831925Y8852458D01*
X13866926Y8847429D01*
G37*
G36*
X13535863Y8983065D02*
G01*
X13649045Y8923934D01*
X13720013Y8944864D01*
X13585901Y8983065D01*
G37*
G36*
X14356892Y9512503D02*
G01*
X14321891Y9507524D01*
X14321891Y9442500D01*
X14356892Y9437522D01*
G37*
G36*
X13968831Y9536633D02*
G01*
X13968831Y9423349D01*
X14066316Y9442500D01*
X14066316Y9507524D01*
G37*
G36*
X13669822Y9502952D02*
G01*
X13585799Y9491065D01*
X13535761Y9491065D01*
X13611351Y9469526D01*
G37*
G36*
X13831112Y9536633D02*
G01*
X13733627Y9512503D01*
X13733627Y9447479D01*
X13831112Y9423349D01*
G37*
G36*
X14425726Y9509963D02*
G01*
X14420189Y9435185D01*
X14455444Y9437471D01*
X14460270Y9502495D01*
G37*
G36*
X14633346Y9538817D02*
G01*
X14535861Y9502495D01*
X14535861Y9437471D01*
X14633346Y9401149D01*
G37*
G36*
X14420240Y10374833D02*
G01*
X14425676Y10300055D01*
X14460219Y10307472D01*
X14455495Y10372496D01*
G37*
G36*
X14633346Y10408818D02*
G01*
X14535861Y10372496D01*
X14535861Y10307472D01*
X14633346Y10271150D01*
G37*
G36*
X14356892Y10372547D02*
G01*
X14321891Y10367518D01*
X14321891Y10302544D01*
X14356892Y10297515D01*
G37*
G36*
X13958824Y10396626D02*
G01*
X13958824Y10283342D01*
X14056309Y10302544D01*
X14056309Y10367518D01*
G37*
G36*
X13648944Y10208158D02*
G01*
X13535761Y10149027D01*
X13585799Y10149027D01*
X13719911Y10187178D01*
G37*
G36*
X13821105Y10396626D02*
G01*
X13723619Y10282834D01*
X13723619Y10190886D01*
X13821105Y10283342D01*
G37*
G36*
X13866876Y10802518D02*
G01*
X13831925Y10797489D01*
X13831925Y10732516D01*
X13866926Y10727486D01*
G37*
G36*
X13648944Y10716158D02*
G01*
X13535761Y10657027D01*
X13585799Y10657027D01*
X13719911Y10695228D01*
G37*
G36*
X15137485Y9754108D02*
G01*
X15118740Y9716617D01*
X15181224Y9716617D01*
X15162479Y9754108D01*
G37*
G36*
X15118740Y10083342D02*
G01*
X15137485Y10045852D01*
X15162479Y10045852D01*
X15181224Y10083342D01*
G37*
G36*
X15218816Y10369296D02*
G01*
X15218816Y10306812D01*
X15256306Y10325557D01*
X15256306Y10350550D01*
G37*
G36*
X15953892Y10413034D02*
G01*
X15883890Y10350550D01*
X15883890Y10325557D01*
X15953892Y10263073D01*
G37*
G36*
X14946579Y10371226D02*
G01*
X14946579Y10308742D01*
X14984120Y10327487D01*
X14984120Y10352481D01*
G37*
G36*
X15081148Y10371226D02*
G01*
X15043607Y10352481D01*
X15043607Y10327487D01*
X15081148Y10308742D01*
G37*
G36*
X14946579Y9501225D02*
G01*
X14946579Y9438741D01*
X14984120Y9457486D01*
X14984120Y9482480D01*
G37*
G36*
X15081148Y9501225D02*
G01*
X15043607Y9482480D01*
X15043607Y9457486D01*
X15081148Y9438741D01*
G37*
G36*
X1007110Y9389821D02*
G01*
X1017473Y9368434D01*
X1042517Y9368434D01*
X1052880Y9389821D01*
G37*
G36*
X12185192Y9373514D02*
G01*
X12197435Y9331706D01*
X12262459Y9331706D01*
X12274702Y9373514D01*
G37*
G36*
X12197435Y10332466D02*
G01*
X12185192Y10290657D01*
X12274702Y10290657D01*
X12262459Y10332466D01*
G37*
G36*
X1469237Y9866934D02*
G01*
X1431747Y9829952D01*
X1431747Y9789972D01*
X1469237Y9831578D01*
G37*
G36*
X1528724Y10162489D02*
G01*
X1547520Y10124998D01*
X1572514Y10124998D01*
X1591259Y10162489D01*
G37*
G36*
X10307269Y9411462D02*
G01*
X10209733Y9408972D01*
X10209733Y9343948D01*
X10307269Y9341459D01*
G37*
G36*
X10317988Y8699500D02*
G01*
X10275468Y8656066D01*
X10425480Y8656066D01*
X10383012Y8699500D01*
G37*
G36*
X10374985Y9879990D02*
G01*
X10359999Y9844989D01*
X10439958Y9844989D01*
X10424972Y9879990D01*
G37*
G36*
X10374985Y9740442D02*
G01*
X10337495Y9665462D01*
X10462463Y9665055D01*
X10424972Y9740442D01*
G37*
G36*
X10359999Y9754971D02*
G01*
X10374985Y9679990D01*
X10424972Y9679990D01*
X10439958Y9754971D01*
G37*
G36*
X10150144Y9822840D02*
G01*
X10150144Y9777120D01*
X10171480Y9787483D01*
X10171480Y9812477D01*
G37*
G36*
X10219994Y9831222D02*
G01*
X10182453Y9812477D01*
X10182453Y9787483D01*
X10219994Y9768738D01*
G37*
G36*
X9580168Y9332874D02*
G01*
X9580168Y9287103D01*
X9599980Y9297466D01*
X9599980Y9322511D01*
G37*
G36*
X9687001Y9407702D02*
G01*
X9666478Y9388957D01*
X9666478Y9363964D01*
X9686950Y9345218D01*
G37*
G36*
X9550146Y9442856D02*
G01*
X9550146Y9397136D01*
X9569958Y9407448D01*
X9569958Y9432493D01*
G37*
G36*
X9686950Y9534702D02*
G01*
X9653473Y9515957D01*
X9653473Y9490964D01*
X9686950Y9472218D01*
G37*
G36*
X9410141Y9592868D02*
G01*
X9410141Y9547098D01*
X9431477Y9557461D01*
X9431477Y9582505D01*
G37*
G36*
X9686950Y9661702D02*
G01*
X9650425Y9642957D01*
X9650476Y9617964D01*
X9686950Y9599218D01*
G37*
G36*
X9746488Y9341459D02*
G01*
X9765233Y9303969D01*
X9790226Y9303969D01*
X9808972Y9341459D01*
G37*
G36*
X9765233Y9321952D02*
G01*
X9746488Y9284462D01*
X9808972Y9284462D01*
X9790226Y9321952D01*
G37*
G36*
X1583385Y9641230D02*
G01*
X1570024Y9622485D01*
X1570024Y9597491D01*
X1583385Y9578746D01*
G37*
G36*
X1583385Y9861245D02*
G01*
X1570024Y9842500D01*
X1570024Y9817455D01*
X1583385Y9798710D01*
G37*
G36*
X3159963Y9804958D02*
G01*
X3122472Y9802418D01*
X3122523Y9777425D01*
X3160014Y9774986D01*
G37*
G36*
X1896618Y9641230D02*
G01*
X1896618Y9578746D01*
X1900021Y9597491D01*
X1900021Y9622485D01*
G37*
G36*
X1896618Y9861245D02*
G01*
X1896618Y9798710D01*
X1934108Y9817455D01*
X1934108Y9842500D01*
G37*
G36*
X7706004Y9061246D02*
G01*
X7706004Y8998712D01*
X7743494Y9017457D01*
X7743494Y9042501D01*
G37*
G36*
X7772501Y9061246D02*
G01*
X7734960Y9042501D01*
X7734960Y9017457D01*
X7772501Y8998712D01*
G37*
G36*
X7808722Y8759494D02*
G01*
X7827467Y8721953D01*
X7852460Y8721953D01*
X7871256Y8759494D01*
G37*
G36*
X7827467Y8681516D02*
G01*
X7817103Y8660130D01*
X7862874Y8660130D01*
X7852460Y8681516D01*
G37*
G36*
X7807502Y9198000D02*
G01*
X7772501Y9100464D01*
X7907477Y9100464D01*
X7872475Y9198000D01*
G37*
G36*
X1371752Y9699955D02*
G01*
X1371752Y9659924D01*
X1409242Y9667443D01*
X1409242Y9692436D01*
G37*
G36*
X1371752Y9764979D02*
G01*
X1371752Y9724948D01*
X1409242Y9732467D01*
X1409242Y9757460D01*
G37*
G36*
X6478727Y9114993D02*
G01*
X6497472Y9077452D01*
X6522466Y9077452D01*
X6541262Y9114993D01*
G37*
G36*
X6497472Y8577478D02*
G01*
X6478727Y8539937D01*
X6534912Y8539937D01*
X6522466Y8577478D01*
G37*
G36*
X7080148Y10342829D02*
G01*
X7080148Y10297109D01*
X7101484Y10307472D01*
X7101484Y10332466D01*
G37*
G36*
X7159193Y9981539D02*
G01*
X7148830Y9960203D01*
X7194550Y9960203D01*
X7184186Y9981539D01*
G37*
G36*
X10281462Y10324693D02*
G01*
X10243972Y10305948D01*
X10243972Y10280954D01*
X10281462Y10262209D01*
G37*
G36*
X10194594Y10302290D02*
G01*
X10178084Y10300411D01*
X10210444Y10268051D01*
X10212273Y10284612D01*
G37*
G36*
X4179824Y9962845D02*
G01*
X4158487Y9952482D01*
X4158487Y9927488D01*
X4179824Y9917125D01*
G37*
G36*
X3960012Y9854946D02*
G01*
X3960012Y9824974D01*
X3997502Y9827463D01*
X3997502Y9852456D01*
G37*
G36*
X3959961Y9904984D02*
G01*
X3960012Y9874961D01*
X3997502Y9877501D01*
X3997502Y9902494D01*
G37*
G36*
X4149801Y9882835D02*
G01*
X4128465Y9872472D01*
X4128465Y9847478D01*
X4149801Y9837115D01*
G37*
G36*
X3960012Y9804958D02*
G01*
X3960012Y9774986D01*
X3997502Y9777476D01*
X3997502Y9802469D01*
G37*
G36*
X3960012Y9704984D02*
G01*
X3960012Y9674961D01*
X3997502Y9677450D01*
X3997502Y9702495D01*
G37*
G36*
X4130446Y9702495D02*
G01*
X4116730Y9677450D01*
X4131310Y9659670D01*
X4153306Y9699752D01*
G37*
G36*
X4149801Y9782860D02*
G01*
X4128465Y9772497D01*
X4128465Y9747453D01*
X4149801Y9737090D01*
G37*
G36*
X3960012Y9754971D02*
G01*
X3959961Y9724948D01*
X3997451Y9727387D01*
X3997502Y9752380D01*
G37*
G36*
X4185005Y9579965D02*
G01*
X4185005Y9499955D01*
X4230116Y9505086D01*
X4230116Y9555073D01*
G37*
G36*
X3630320Y10558170D02*
G01*
X3614978Y10483189D01*
X3695649Y10483189D01*
X3680307Y10558170D01*
G37*
G36*
X10227106Y10699800D02*
G01*
X10237470Y10678464D01*
X10262514Y10678464D01*
X10272877Y10699800D01*
G37*
G36*
X10237470Y10682478D02*
G01*
X10218724Y10644987D01*
X10281259Y10644987D01*
X10262514Y10682478D01*
G37*
G36*
X9620148Y10062870D02*
G01*
X9620148Y10017099D01*
X9641484Y10027462D01*
X9641484Y10052507D01*
G37*
G36*
X9677247Y10070846D02*
G01*
X9639554Y10052507D01*
X9639300Y10027462D01*
X9676638Y10008362D01*
G37*
G36*
X10460888Y10198658D02*
G01*
X10465003Y10136327D01*
X10501223Y10157460D01*
X10499547Y10182453D01*
G37*
G36*
X10462971Y10070693D02*
G01*
X10462971Y10008209D01*
X10500461Y10026954D01*
X10500461Y10051948D01*
G37*
G36*
X11735003Y10143134D02*
G01*
X11727942Y10100665D01*
X11745620Y10082987D01*
X11788038Y10090099D01*
G37*
G36*
X3845001Y10389971D02*
G01*
X3820007Y10314990D01*
X3899966Y10314990D01*
X3894988Y10389971D01*
G37*
G36*
X3160014Y9704984D02*
G01*
X3122523Y9702495D01*
X3122523Y9677450D01*
X3160014Y9674961D01*
G37*
G36*
X3024784Y9672472D02*
G01*
X2973730Y9634982D01*
X3036214Y9634982D01*
X3060192Y9672472D01*
G37*
G36*
X3680002Y10301224D02*
G01*
X3642512Y10282478D01*
X3642512Y10257485D01*
X3680002Y10238740D01*
G37*
G36*
X3327501Y10352481D02*
G01*
X3308756Y10314990D01*
X3371240Y10314990D01*
X3352495Y10352481D01*
G37*
G36*
X4108754Y9360001D02*
G01*
X4127500Y9322460D01*
X4152493Y9322460D01*
X4171238Y9360001D01*
G37*
G36*
X3492195Y10352481D02*
G01*
X3473450Y10314990D01*
X3519982Y10314990D01*
X3517188Y10352481D01*
G37*
G36*
X3473450Y10396778D02*
G01*
X3492195Y10359288D01*
X3517188Y10359288D01*
X3535934Y10396778D01*
G37*
G36*
X3859987Y9954971D02*
G01*
X3822496Y9952482D01*
X3822496Y9927437D01*
X3859987Y9924948D01*
G37*
G36*
X3729583Y9874402D02*
G01*
X3707180Y9866630D01*
X3739489Y9834270D01*
X3747262Y9856724D01*
G37*
G36*
X3259988Y9754971D02*
G01*
X3259988Y9724948D01*
X3297529Y9727438D01*
X3297529Y9752482D01*
G37*
G36*
X3299968Y9771227D02*
G01*
X3262477Y9752482D01*
X3262477Y9727438D01*
X3299968Y9708692D01*
G37*
G36*
X3744976Y9989972D02*
G01*
X3747465Y9952431D01*
X3772458Y9952431D01*
X3774998Y9989972D01*
G37*
G36*
X3859987Y9454946D02*
G01*
X3822496Y9452457D01*
X3822496Y9427464D01*
X3859987Y9424974D01*
G37*
G36*
X3740759Y9539681D02*
G01*
X3708450Y9507321D01*
X3730853Y9499549D01*
X3748532Y9517227D01*
G37*
G36*
X3308756Y10224973D02*
G01*
X3327501Y10187482D01*
X3352495Y10187482D01*
X3371240Y10224973D01*
G37*
G36*
X3448761Y10224973D02*
G01*
X3467506Y10209987D01*
X3492500Y10209987D01*
X3511245Y10224973D01*
G37*
G36*
X3397504Y10127437D02*
G01*
X3395014Y10089946D01*
X3424986Y10089946D01*
X3422497Y10127437D01*
G37*
G36*
X2251557Y9651796D02*
G01*
X2226564Y9651238D01*
X2216658Y9629648D01*
X2262428Y9630664D01*
G37*
G36*
X2210003Y10094976D02*
G01*
X2227478Y10057485D01*
X2252522Y10057485D01*
X2269998Y10094976D01*
G37*
G36*
X2080006Y10094976D02*
G01*
X2095754Y10057485D01*
X2120747Y10057485D01*
X2139492Y10094976D01*
G37*
G36*
X3160014Y9854946D02*
G01*
X3122523Y9852456D01*
X3122523Y9827463D01*
X3160014Y9824974D01*
G37*
G36*
X12865252Y10136530D02*
G01*
X12865252Y10011562D01*
X12940233Y10049052D01*
X12940233Y10099040D01*
G37*
G36*
X12898780Y10644530D02*
G01*
X12898780Y10519562D01*
X12957911Y10557052D01*
X12957911Y10607040D01*
G37*
G36*
X1967484Y10342473D02*
G01*
X1950008Y10304983D01*
X2010003Y10304983D01*
X1992477Y10342473D01*
G37*
G36*
X2097481Y10342473D02*
G01*
X2080006Y10304983D01*
X2140000Y10304983D01*
X2122474Y10342473D01*
G37*
G36*
X2227478Y10342473D02*
G01*
X2210003Y10304983D01*
X2269998Y10304983D01*
X2252522Y10342473D01*
G37*
G36*
X3960012Y9504984D02*
G01*
X3960012Y9474962D01*
X3997502Y9477451D01*
X3997502Y9502495D01*
G37*
G36*
X4094987Y9571228D02*
G01*
X4059986Y9552482D01*
X4059986Y9527489D01*
X4094987Y9508744D01*
G37*
G36*
X3294989Y10071100D02*
G01*
X3257499Y10052354D01*
X3257499Y10027361D01*
X3294989Y10008616D01*
G37*
G36*
X2987497Y10019995D02*
G01*
X2968752Y10004958D01*
X3031236Y10004958D01*
X3012490Y10019995D01*
G37*
G36*
X3960012Y9454946D02*
G01*
X3960012Y9424974D01*
X3997502Y9427464D01*
X3997502Y9452457D01*
G37*
G36*
X4094987Y9431223D02*
G01*
X4057497Y9412478D01*
X4057497Y9387484D01*
X4094987Y9368739D01*
G37*
G36*
X2847492Y9472472D02*
G01*
X2828747Y9434982D01*
X2891231Y9434982D01*
X2872486Y9472472D01*
G37*
G36*
X2828747Y9544964D02*
G01*
X2847492Y9507474D01*
X2872486Y9507474D01*
X2891231Y9544964D01*
G37*
G36*
X3747465Y10127437D02*
G01*
X3744976Y10089946D01*
X3774998Y10089946D01*
X3772458Y10127437D01*
G37*
G36*
X4185005Y9579965D02*
G01*
X4185005Y9499955D01*
X4259986Y9514992D01*
X4259986Y9564979D01*
G37*
G36*
X5825490Y8676132D02*
G01*
X5775502Y8606129D01*
X5925515Y8606129D01*
X5875528Y8676132D01*
G37*
G36*
X12865201Y9628581D02*
G01*
X12865303Y9503562D01*
X12940284Y9541154D01*
X12940233Y9591141D01*
G37*
G36*
X12865201Y9120581D02*
G01*
X12865303Y8995562D01*
X12940284Y9033154D01*
X12940233Y9083141D01*
G37*
G36*
X9676688Y10451541D02*
G01*
X9639350Y10432491D01*
X9639554Y10407497D01*
X9677247Y10389057D01*
G37*
G36*
X9674961Y10323626D02*
G01*
X9638741Y10302494D01*
X9640366Y10277500D01*
X9679025Y10261244D01*
G37*
G36*
X3160014Y9654946D02*
G01*
X3129991Y9652457D01*
X3129991Y9627463D01*
X3160014Y9624974D01*
G37*
G36*
X3039973Y9421215D02*
G01*
X3039973Y9358731D01*
X3069996Y9377476D01*
X3069996Y9402470D01*
G37*
G36*
X3160014Y9904984D02*
G01*
X3122523Y9902494D01*
X3122472Y9877501D01*
X3160014Y9874961D01*
G37*
G36*
X2968752Y9914991D02*
G01*
X2987497Y9900005D01*
X3012490Y9900005D01*
X3031236Y9914991D01*
G37*
G36*
X3445001Y9289948D02*
G01*
X3447491Y9252458D01*
X3472484Y9252458D01*
X3474974Y9289948D01*
G37*
G36*
X3395014Y9021267D02*
G01*
X3395014Y8958732D01*
X3420008Y8977477D01*
X3420008Y9002471D01*
G37*
G36*
X3167481Y9213138D02*
G01*
X3148736Y9175648D01*
X3211220Y9175648D01*
X3192475Y9213138D01*
G37*
G36*
X3344976Y9289948D02*
G01*
X3347516Y9259976D01*
X3372510Y9259976D01*
X3374999Y9289948D01*
G37*
G36*
X2820009Y9621215D02*
G01*
X2782468Y9602470D01*
X2782468Y9577476D01*
X2820009Y9558731D01*
G37*
G36*
X2687472Y9531502D02*
G01*
X2677109Y9510166D01*
X2722880Y9510166D01*
X2712466Y9531502D01*
G37*
G36*
X9497110Y10269778D02*
G01*
X9507474Y10248442D01*
X9532467Y10248442D01*
X9542830Y10269778D01*
G37*
G36*
X9507474Y9701530D02*
G01*
X9497110Y9680143D01*
X9542830Y9680143D01*
X9532467Y9701530D01*
G37*
G36*
X10096804Y10826242D02*
G01*
X10079990Y10824972D01*
X10079990Y10774984D01*
X10096804Y10773714D01*
G37*
G36*
X4185005Y9579965D02*
G01*
X4185005Y9499955D01*
X4259986Y9514992D01*
X4259986Y9564979D01*
G37*
G36*
X5835446Y8676132D02*
G01*
X5785459Y8606129D01*
X5935421Y8606129D01*
X5885434Y8676132D01*
G37*
G36*
X3369818Y9207500D02*
G01*
X3318764Y9169958D01*
X3381248Y9169958D01*
X3405174Y9207500D01*
G37*
G36*
X3395014Y9289948D02*
G01*
X3397504Y9252458D01*
X3422497Y9252458D01*
X3424986Y9289948D01*
G37*
G36*
X3318764Y8949994D02*
G01*
X3337509Y8912504D01*
X3362502Y8912504D01*
X3381248Y8949994D01*
G37*
G36*
X3337509Y8901480D02*
G01*
X3327146Y8880144D01*
X3372865Y8880144D01*
X3362502Y8901480D01*
G37*
G36*
X10143134Y10826242D02*
G01*
X10143134Y10773714D01*
X10167620Y10774984D01*
X10167620Y10824972D01*
G37*
G36*
X10364876Y10719968D02*
G01*
X10349992Y10644987D01*
X10429951Y10644987D01*
X10414863Y10719968D01*
G37*
G36*
X3899966Y10314990D02*
G01*
X3899966Y10224973D01*
X3974998Y10244988D01*
X3974998Y10294975D01*
G37*
G36*
X2820009Y9991242D02*
G01*
X2782468Y9972497D01*
X2782468Y9947452D01*
X2820009Y9928707D01*
G37*
G36*
X2667101Y10049814D02*
G01*
X2677464Y10028478D01*
X2702458Y10028428D01*
X2712872Y10049814D01*
G37*
G36*
X2960014Y9914991D02*
G01*
X2964992Y9909962D01*
X3014980Y9909962D01*
X3039973Y9914991D01*
G37*
G36*
X2673146Y9876231D02*
G01*
X2673146Y9823704D01*
X2697632Y9824974D01*
X2697632Y9874961D01*
G37*
G36*
X11757456Y10756341D02*
G01*
X11738711Y10718850D01*
X11801246Y10718850D01*
X11782450Y10756341D01*
G37*
G36*
X12705232Y9850475D02*
G01*
X12667945Y9831222D01*
X12668250Y9806228D01*
X12705994Y9787940D01*
G37*
G36*
X12471146Y9423349D02*
G01*
X12507468Y9329978D01*
X12572492Y9329978D01*
X12608814Y9423349D01*
G37*
G36*
X12773761Y9387027D02*
G01*
X12676276Y9344558D01*
X12676276Y9279534D01*
X12773761Y9237065D01*
G37*
G36*
X11653316Y8861145D02*
G01*
X11677497Y8763609D01*
X11742470Y8763609D01*
X11766600Y8861145D01*
G37*
G36*
X13105536Y8712454D02*
G01*
X13105536Y8647430D01*
X13133527Y8649919D01*
X13133527Y8709964D01*
G37*
G36*
X12823799Y9895027D02*
G01*
X12823799Y9745065D01*
X12921284Y9787534D01*
X12921284Y9852558D01*
G37*
G36*
X13535761Y9387027D02*
G01*
X13438276Y9344558D01*
X13438276Y9279534D01*
X13535761Y9237065D01*
G37*
G36*
X12471146Y9883343D02*
G01*
X12507468Y9785858D01*
X12572492Y9785858D01*
X12608814Y9883343D01*
G37*
G36*
X12507468Y9834118D02*
G01*
X12471146Y9736632D01*
X12608814Y9736632D01*
X12572492Y9834118D01*
G37*
G36*
X12507468Y10294112D02*
G01*
X12471146Y10196626D01*
X12608814Y10196626D01*
X12572492Y10294112D01*
G37*
G36*
X12773761Y10403027D02*
G01*
X12676276Y10360558D01*
X12676276Y10295534D01*
X12773761Y10253065D01*
G37*
G36*
X11761825Y9567468D02*
G01*
X11726824Y9562490D01*
X11726824Y9497466D01*
X11761825Y9492488D01*
G37*
G36*
X11919966Y9181236D02*
G01*
X11919966Y9118752D01*
X11957456Y9137497D01*
X11957456Y9162491D01*
G37*
G36*
X11969953Y10461244D02*
G01*
X11969953Y10398709D01*
X12007494Y10417505D01*
X12007494Y10442498D01*
G37*
G36*
X13948714Y9774986D02*
G01*
X13967460Y9737496D01*
X13992504Y9737496D01*
X14009979Y9774986D01*
G37*
G36*
X13967460Y9721494D02*
G01*
X13957096Y9700158D01*
X14002867Y9700158D01*
X13992504Y9721494D01*
G37*
G36*
X9817100Y8686038D02*
G01*
X9774631Y8616035D01*
X9924592Y8616035D01*
X9882124Y8686038D01*
G37*
G36*
X9842754Y10201452D02*
G01*
X9842652Y10131450D01*
X9903409Y10133838D01*
X9903510Y10198862D01*
G37*
G36*
X7174331Y9393174D02*
G01*
X7084314Y9374987D01*
X7084314Y9314992D01*
X7174331Y9306763D01*
G37*
G36*
X7377480Y9706356D02*
G01*
X7358735Y9668814D01*
X7421219Y9668814D01*
X7402474Y9706356D01*
G37*
G36*
X7330186Y9752838D02*
G01*
X7330186Y9707118D01*
X7351522Y9717481D01*
X7351522Y9742474D01*
G37*
G36*
X1950008Y10154970D02*
G01*
X1874977Y10149941D01*
X1874977Y10099954D01*
X1950008Y10094976D01*
G37*
G36*
X2975000Y10079990D02*
G01*
X2960014Y10004958D01*
X3039973Y10004958D01*
X3024987Y10079990D01*
G37*
G36*
X3544976Y9289948D02*
G01*
X3547516Y9252458D01*
X3572510Y9252458D01*
X3574999Y9289948D01*
G37*
G36*
X3671315Y8686342D02*
G01*
X3671315Y8650986D01*
X3708857Y8599881D01*
X3708857Y8654999D01*
G37*
G36*
X3494989Y9289948D02*
G01*
X3497478Y9252458D01*
X3522522Y9252458D01*
X3525012Y9289948D01*
G37*
G36*
X3309112Y8653881D02*
G01*
X3367786Y8557869D01*
X3389985Y8622284D01*
X3376574Y8644229D01*
G37*
G36*
X3354222Y8532571D02*
G01*
X3241802Y8528304D01*
X3287522Y8477504D01*
X3312515Y8478418D01*
G37*
G36*
X3287522Y8337499D02*
G01*
X3268776Y8300008D01*
X3331260Y8300008D01*
X3312515Y8337499D01*
G37*
G36*
X3752596Y8504986D02*
G01*
X3771341Y8467496D01*
X3796334Y8467496D01*
X3815079Y8504986D01*
G37*
G36*
X3771341Y8337499D02*
G01*
X3752596Y8300008D01*
X3815079Y8300008D01*
X3796334Y8337499D01*
G37*
G36*
X12190476Y9457740D02*
G01*
X12156998Y9445498D01*
X12156998Y9380474D01*
X12190476Y9368231D01*
G37*
G36*
X11978030Y9567519D02*
G01*
X11978132Y9492538D01*
X12013133Y9497568D01*
X12013031Y9562592D01*
G37*
G36*
X12190476Y10295940D02*
G01*
X12148667Y10283698D01*
X12148667Y10218674D01*
X12190476Y10206431D01*
G37*
G36*
X11968124Y10177475D02*
G01*
X11968073Y10102443D01*
X12003074Y10107422D01*
X12003125Y10172446D01*
G37*
G36*
X15953892Y9397034D02*
G01*
X15883890Y9354566D01*
X15883890Y9289542D01*
X15953892Y9247073D01*
G37*
G36*
X15218816Y9516618D02*
G01*
X15218816Y9403334D01*
X15316301Y9427464D01*
X15316301Y9492488D01*
G37*
G36*
X6327495Y9265005D02*
G01*
X6308750Y9227515D01*
X6371234Y9227515D01*
X6352489Y9265005D01*
G37*
G36*
X6317132Y9309811D02*
G01*
X6327495Y9288475D01*
X6352489Y9288475D01*
X6362852Y9309811D01*
G37*
G36*
X12026595Y10718850D02*
G01*
X12026595Y10581132D01*
X12124080Y10617454D01*
X12124080Y10682478D01*
G37*
G36*
X12471146Y9423349D02*
G01*
X12507468Y9325864D01*
X12572492Y9325864D01*
X12608814Y9423349D01*
G37*
G36*
X11966600Y8998813D02*
G01*
X11966600Y8861145D01*
X12064136Y8897467D01*
X12064136Y8962491D01*
G37*
G36*
X1310538Y9248190D02*
G01*
X1288084Y9240418D01*
X1320444Y9208058D01*
X1328216Y9230512D01*
G37*
G36*
X1320495Y9529978D02*
G01*
X1339240Y9492437D01*
X1364284Y9492437D01*
X1383030Y9529978D01*
G37*
D10*
X1351762Y9549942D02*
G01*
X1351762Y9271736D01*
X1290015Y9209989D01*
D11*
X12539979Y9480042D02*
G01*
X12539979Y8979915D01*
X12489941Y8929878D01*
X11910059Y8929878D01*
X12539979Y10429976D02*
G01*
X12539979Y10549973D01*
X12439987Y10649965D01*
X11969978Y10649965D01*
D12*
X6789981Y9249981D02*
G01*
X6789981Y9344977D01*
D10*
X6339916Y9159999D02*
G01*
X6339992Y9160075D01*
X6339992Y9329978D01*
D11*
X16020034Y9322054D02*
G01*
X15748000Y9322054D01*
X15610077Y9459976D01*
X15150084Y9459976D01*
X12229845Y10251186D02*
G01*
X12131293Y10251186D01*
X12019788Y10139934D01*
X11934952Y10139934D01*
X12229845Y9412986D02*
G01*
X12156947Y9412986D01*
X12039854Y9530079D01*
X11945111Y9530079D01*
D10*
X3789997Y8259973D02*
G01*
X3783827Y8266142D01*
X3783827Y8579995D01*
X3299998Y8259973D02*
G01*
X3299998Y8576144D01*
X3296147Y8579995D01*
X3783838Y8579993D02*
G01*
X3759984Y8579993D01*
X3559992Y8779984D01*
X3559992Y9339963D01*
X3296158Y8579993D02*
G01*
X3330000Y8579993D01*
X3510000Y8759992D01*
X3510000Y9339963D01*
X6454899Y8379965D02*
G01*
X6509994Y8435060D01*
X6509994Y9159976D01*
D12*
X1979929Y10124947D02*
G01*
X1854962Y10124947D01*
X1787144Y10192765D01*
X1787144Y10507218D01*
X1839976Y10560050D01*
X2979927Y10560050D01*
X2999993Y10539984D01*
X2999993Y9960102D01*
D10*
X7389875Y9599929D02*
G01*
X7389875Y9709912D01*
X7370063Y9729978D01*
X7309865Y9729978D01*
D13*
X7190059Y9349996D02*
G01*
X7189977Y9350077D01*
X7189977Y9599980D01*
D10*
X13969974Y9819977D02*
G01*
X13979982Y9809970D01*
X13979982Y9679990D01*
X11929978Y10429979D02*
G01*
X12059975Y10429979D01*
X11879978Y9149981D02*
G01*
X12019975Y9149981D01*
D11*
X12798806Y9820147D02*
G01*
X13009879Y9820147D01*
X13199872Y9629902D01*
X13199872Y9349994D01*
X13237972Y9312147D01*
X13560806Y9312147D01*
X11709908Y8929878D02*
G01*
X11709908Y8729979D01*
X11759945Y8679942D01*
X13159993Y8679942D01*
X12539979Y9480042D02*
G01*
X12539979Y9329928D01*
X12558013Y9312147D01*
X12798806Y9312147D01*
D10*
X12798806Y9820147D02*
G01*
X12539979Y9818624D01*
D11*
X12539979Y9939985D02*
G01*
X12539979Y9679988D01*
X12539972Y9679980D01*
X12539979Y10429976D02*
G01*
X12539985Y10429971D01*
X12539985Y10139982D01*
X12539979Y10429976D02*
G01*
X12539979Y10339969D01*
X12551902Y10328046D01*
X12798785Y10328046D01*
D10*
X11769976Y10649978D02*
G01*
X11769976Y10849978D01*
X3180079Y9135363D02*
G01*
X3180079Y9219945D01*
X3199891Y9240012D01*
X3340100Y9240012D01*
X3359911Y9260078D01*
X3359911Y9340087D01*
D12*
X2999991Y9959975D02*
G01*
X2989994Y9949972D01*
X2989994Y9909975D01*
X2929986Y9849967D01*
X2650007Y9849967D01*
D11*
X12990068Y10739881D02*
G01*
X12409931Y10739881D01*
X12119863Y11029950D01*
X11780011Y11029950D01*
D12*
X4139945Y10269981D02*
G01*
X3859987Y10269981D01*
X10119868Y10800079D02*
G01*
X10370058Y10800079D01*
X10389870Y10780013D01*
X10389870Y10599928D01*
D11*
X13560806Y9820147D02*
G01*
X13359891Y9820147D01*
X13249909Y9929876D01*
X13249909Y10500105D01*
X12989974Y10739978D01*
D10*
X3350006Y9130029D02*
G01*
X3350006Y9169908D01*
X3409950Y9230105D01*
X3409950Y9340087D01*
X3210052Y9889997D02*
G01*
X3009900Y9889997D01*
X2999993Y9899904D01*
X2999993Y9960102D01*
X3759961Y10039858D02*
G01*
X3759961Y10249915D01*
X3739895Y10269981D01*
X3720084Y10269981D01*
X2859991Y9959975D02*
G01*
X2719994Y9959975D01*
X2689986Y9989982D01*
X2689986Y10069982D01*
X9519970Y9659975D02*
G01*
X9519975Y9659980D01*
X9519975Y10289976D01*
X2860040Y9590024D02*
G01*
X2720086Y9590024D01*
X2700020Y9569958D01*
X2700020Y9489947D01*
X3459988Y9340087D02*
G01*
X3459988Y9029954D01*
X3420109Y8990076D01*
X3350006Y8990076D01*
X2110003Y10274985D02*
G01*
X2109995Y10274993D01*
X2109995Y10379979D01*
X2109995Y9769980D02*
G01*
X2959994Y9769980D01*
X3029973Y9839960D01*
X3210001Y9839960D01*
X3210052Y9640062D02*
G01*
X3130041Y9640062D01*
X3100070Y9610089D01*
X3100070Y9420097D01*
X3070097Y9389871D01*
X2999993Y9389871D01*
X9767697Y10293451D02*
G01*
X9764224Y10289979D01*
X9519980Y10289979D01*
X9767824Y10420350D02*
G01*
X9519920Y10420095D01*
D11*
X12798806Y9566147D02*
G01*
X12973811Y9566147D01*
X12999974Y9539986D01*
X12999974Y9079992D01*
X12978129Y9058147D01*
X12798806Y9058147D01*
D12*
X4139945Y9539986D02*
G01*
X5689854Y9539986D01*
X5850381Y9379458D01*
X5850381Y8539987D01*
X2859989Y9589973D02*
G01*
X2859991Y9389981D01*
X7014900Y9249971D02*
G01*
X6910001Y9249971D01*
X6899991Y9259981D01*
X6899991Y9439981D01*
X6919983Y9459981D01*
X7039990Y9459981D01*
D14*
X7014900Y9344967D02*
G01*
X7214666Y9344967D01*
X7214666Y9349968D01*
D10*
X3910075Y9439910D02*
G01*
X4009897Y9439910D01*
X4050029Y9400031D01*
X4139945Y9400031D01*
X3349995Y8989994D02*
G01*
X3349995Y8859987D01*
X3350006Y8859977D01*
X3309874Y10039858D02*
G01*
X3019806Y10039858D01*
X2999993Y10020045D01*
X2999993Y9960102D01*
X3910075Y9489947D02*
G01*
X4009897Y9489947D01*
X4059936Y9539986D01*
X4139945Y9539986D01*
X2240000Y10274985D02*
G01*
X2239995Y10274990D01*
X2239995Y10379979D01*
X1980006Y10274985D02*
G01*
X1979996Y10274995D01*
X1979996Y10359979D01*
X1979996Y10379979D01*
D11*
X12798806Y10582147D02*
G01*
X12957809Y10582147D01*
X12999974Y10539984D01*
X12999974Y10130028D01*
X12944093Y10074147D01*
X12798806Y10074147D01*
D10*
X2109977Y10124947D02*
G01*
X2108200Y9770110D01*
X2240000Y10124973D02*
G01*
X2239995Y10124968D01*
X2239995Y9839980D01*
X2240025Y9610089D02*
G01*
X2239009Y9709912D01*
X3410000Y10039959D02*
G01*
X3410000Y10139987D01*
X3479998Y10209984D01*
X3479998Y10269971D01*
X3359988Y10039959D02*
G01*
X3359993Y10159979D01*
X3339993Y10179979D01*
X3339993Y10269971D01*
X3459988Y9339961D02*
G01*
X3459988Y9589973D01*
X3559987Y9689972D01*
X3909999Y9439960D02*
G01*
X3808145Y9439960D01*
X3710355Y9537750D01*
X3759987Y10039959D02*
G01*
X3759987Y9889972D01*
X3559987Y9689972D01*
X3359988Y10039959D02*
G01*
X3359988Y9889972D01*
X3559987Y9689972D01*
X3210001Y9739960D02*
G01*
X3510000Y9739960D01*
X3559987Y9689972D01*
X3909999Y9939959D02*
G01*
X3812844Y9939959D01*
X3709085Y9836200D01*
X4139999Y9399973D02*
G01*
X4139991Y9399965D01*
X4139991Y9259981D01*
X3339993Y10269971D02*
G01*
X3339993Y10399979D01*
X3720084Y10269981D02*
G01*
X3599941Y10269981D01*
X2999993Y9590024D02*
G01*
X2999993Y9629902D01*
X3059938Y9690100D01*
X3210052Y9690100D01*
X3909999Y9689975D02*
G01*
X4139994Y9689975D01*
X4159986Y9669983D01*
D12*
X3860038Y10269981D02*
G01*
X3869943Y10279887D01*
X3869943Y10519918D01*
X3829811Y10560050D01*
X3829811Y10560050D02*
G01*
X3829811Y10560050D01*
X2929890Y10560050D01*
X10372224Y10420454D02*
G01*
X10389974Y10438201D01*
X10389974Y10599983D01*
D11*
X10372224Y10039454D02*
G01*
X11684383Y10039454D01*
X11784914Y10139984D01*
D10*
X10372224Y10166454D02*
G01*
X10375750Y10169979D01*
X10589978Y10169979D01*
X9767702Y10039456D02*
G01*
X9767171Y10039985D01*
X9599980Y10039985D01*
X10259969Y9799977D02*
G01*
X10259966Y9799980D01*
X10149979Y9799980D01*
X10129979Y9799980D01*
X10249992Y10599986D02*
G01*
X10249992Y10599986D01*
X10249992Y10719968D01*
D12*
X10399979Y9799980D02*
G01*
X10389864Y9789866D01*
X10389864Y9780015D01*
X3655313Y10439908D02*
G01*
X3655313Y10560050D01*
X3704590Y10560050D01*
D10*
X3479998Y10269971D02*
G01*
X3504679Y10294653D01*
X3504679Y10439976D01*
D12*
X4139945Y9530079D02*
G01*
X4230115Y9530079D01*
X4299965Y9599929D01*
X4299965Y10210037D01*
X4240022Y10269981D01*
X4139945Y10269981D01*
D10*
X3910075Y9789921D02*
G01*
X4050029Y9789921D01*
X4119879Y9860026D01*
X4169918Y9860026D01*
X10382250Y9503450D02*
G01*
X10378780Y9499980D01*
X10119979Y9499980D01*
X3910075Y9889997D02*
G01*
X3999991Y9889997D01*
X4119991Y10029979D01*
X4199991Y10029979D01*
X3909999Y9839957D02*
G01*
X4019971Y9839957D01*
X4119999Y9939985D01*
X4199991Y9939985D01*
X10372216Y10293451D02*
G01*
X10203451Y10293451D01*
X10179979Y10269979D01*
X7171690Y9940036D02*
G01*
X7171690Y10288270D01*
X7139940Y10320020D01*
X7059929Y10320020D01*
D11*
X11780011Y11031220D02*
G01*
X11599925Y11209020D01*
X7839963Y11209020D01*
X7839963Y9029954D01*
D10*
X7839984Y8829982D02*
G01*
X7839984Y8639982D01*
D12*
X7014890Y9154160D02*
G01*
X7138977Y9154995D01*
X7203998Y9089974D01*
X7152741Y9141231D01*
X7203991Y9089981D01*
D10*
X7615979Y9089981D02*
G01*
X7675979Y9029981D01*
X7839984Y9029981D01*
D12*
X10079992Y10059926D02*
G01*
X10079992Y10799978D01*
X10119969Y10799978D01*
D10*
X1839976Y9830054D02*
G01*
X1940052Y9830054D01*
X1999741Y9770110D01*
X2109977Y9770110D01*
X1839976Y9610089D02*
G01*
X1899920Y9610089D01*
X1999995Y9709912D01*
X2979927Y9709912D01*
X3059938Y9789921D01*
X3210052Y9789921D01*
X1291765Y9744956D02*
G01*
X1484977Y9744956D01*
X1569999Y9829977D01*
X1639999Y9829977D01*
X1291765Y9679932D02*
G01*
X1500055Y9679932D01*
X1569999Y9609988D01*
X1639999Y9609988D01*
X9777729Y9376450D02*
G01*
X9777729Y9249450D01*
X9389872Y9579863D02*
G01*
X9389872Y10370058D01*
X9440163Y10420095D01*
X9519920Y10420095D01*
X9777729Y9630410D02*
G01*
X9650475Y9630410D01*
X9590024Y9569958D01*
X9389872Y9569958D01*
X9777729Y9376410D02*
G01*
X9666477Y9376410D01*
X9599929Y9309862D01*
X9560052Y9309862D01*
X9777729Y9503410D02*
G01*
X9653524Y9503410D01*
X9569958Y9419844D01*
X9530079Y9419844D01*
D11*
X9849611Y8549894D02*
G01*
X9849611Y8769604D01*
X9970008Y8890254D01*
X9970008Y10100055D01*
X9903459Y10166350D01*
X9767824Y10166350D01*
X10382250Y9249450D02*
G01*
X10869978Y9249981D01*
X11240008Y9530079D01*
X11794997Y9530079D01*
D12*
X10382250Y9630450D02*
G01*
X10399979Y9648179D01*
X10399979Y9799977D01*
X10400029Y9800081D02*
G01*
X10400029Y9880092D01*
X10369804Y9910063D01*
X10109961Y9910063D01*
X10079990Y9940036D01*
X10079990Y10059924D01*
D11*
X10350500Y8590026D02*
G01*
X10350500Y8699500D01*
X10150093Y8899905D01*
X10150093Y9329928D01*
X10196575Y9376410D01*
X10382250Y9376410D01*
D10*
X1562607Y10199878D02*
G01*
X1560068Y10197337D01*
X1560068Y9940036D01*
X1430020Y9809987D01*
X1351787Y9809987D01*
D11*
X12229084Y10629900D02*
G01*
X12229845Y10251186D01*
X12229591Y8940037D02*
G01*
X12229845Y9412986D01*
D10*
X15149984Y9659975D02*
G01*
X15149984Y10139956D01*
X15149982Y10139959D01*
D11*
X14889993Y9469983D02*
G01*
X15139974Y9469983D01*
X15149982Y9459976D01*
X13899972Y9479991D02*
G01*
X13904950Y9475012D01*
X14389968Y9475012D01*
X14389963Y9475012D02*
G01*
X14394992Y9469983D01*
X14689968Y9469983D01*
X13889992Y10339981D02*
G01*
X13894943Y10335031D01*
X14389963Y10335031D01*
X14389963Y10335031D02*
G01*
X14394908Y10339976D01*
X14689968Y10339976D01*
X14889993Y10339981D02*
G01*
X14889995Y10339984D01*
X15149982Y10339984D01*
X15149982Y10339984D02*
G01*
X15151912Y10338054D01*
X16020034Y10338054D01*
X13560785Y10074046D02*
G01*
X13714808Y10228056D01*
X13826736Y10339984D01*
X13889990Y10339984D01*
X13560785Y10582046D02*
G01*
X13743741Y10765002D01*
X13899972Y10765002D01*
X13560785Y9566046D02*
G01*
X13646838Y9479991D01*
X13899972Y9479991D01*
X13560884Y9058046D02*
G01*
X13733983Y8884945D01*
X13899972Y8884945D01*
X13560806Y10328147D02*
G01*
X13847572Y10614913D01*
X13899895Y10614913D01*
X15150084Y10139934D02*
G01*
X15150084Y9849865D01*
X15169895Y9830054D01*
X16020034Y9830054D01*
D10*
X3910075Y9739884D02*
G01*
X4099813Y9739884D01*
X4119879Y9759950D01*
X4169918Y9759950D01*
D15*
G01*
X3210077Y9940086D03*
G01*
X3210077Y9890099D03*
G01*
X3210077Y9840087D03*
G01*
X3210077Y9790099D03*
G01*
X3210077Y9740087D03*
G01*
X3210077Y9690100D03*
G01*
X3210077Y9640087D03*
G01*
X3210077Y9590100D03*
G01*
X3210077Y9540087D03*
G01*
X3210077Y9490100D03*
G01*
X3210077Y9440087D03*
D16*
G01*
X3310077Y9340087D03*
G01*
X3360064Y9340087D03*
G01*
X3410077Y9340087D03*
G01*
X3460064Y9340087D03*
G01*
X3510076Y9340087D03*
G01*
X3560063Y9340087D03*
G01*
X3610076Y9340087D03*
G01*
X3660063Y9340087D03*
G01*
X3710076Y9340087D03*
G01*
X3760063Y9340087D03*
G01*
X3810076Y9340087D03*
D15*
G01*
X3910075Y9440087D03*
G01*
X3910075Y9490100D03*
G01*
X3910075Y9540087D03*
G01*
X3910075Y9590100D03*
G01*
X3910075Y9640087D03*
G01*
X3910075Y9690100D03*
G01*
X3910075Y9740087D03*
G01*
X3910075Y9790099D03*
G01*
X3910075Y9840087D03*
G01*
X3910075Y9890099D03*
G01*
X3910075Y9940086D03*
D16*
G01*
X3810076Y10040086D03*
G01*
X3760063Y10040086D03*
G01*
X3710076Y10040086D03*
G01*
X3660063Y10040086D03*
G01*
X3610076Y10040086D03*
G01*
X3560063Y10040086D03*
G01*
X3510076Y10040086D03*
G01*
X3460064Y10040086D03*
G01*
X3410077Y10040086D03*
G01*
X3360064Y10040086D03*
G01*
X3310077Y10040086D03*
D17*
G01*
X3560063Y9690100D03*
G01*
X3560063Y9690100D03*
D18*
G01*
X2859887Y9590024D03*
G01*
X2999892Y9590024D03*
D19*
G01*
X7839984Y9029984D03*
D20*
G01*
X7839989Y8829979D03*
D21*
G01*
X6339913Y9160001D03*
G01*
X6539918Y9160001D03*
D22*
G01*
X7615986Y9089974D03*
G01*
X7203973Y9089974D03*
D23*
G01*
X12539974Y10139984D03*
D24*
G01*
X12539979Y9939985D03*
D23*
G01*
X12539974Y9679985D03*
D24*
G01*
X12539979Y9479965D03*
D25*
G01*
X11969981Y10649978D03*
G01*
X11769971Y10649978D03*
G01*
X11909981Y8929982D03*
G01*
X11709971Y8929982D03*
D23*
G01*
X13889972Y10339984D03*
D24*
G01*
X13889964Y10139984D03*
D23*
G01*
X13899972Y9279976D03*
D24*
G01*
X13899972Y9479991D03*
D23*
G01*
X15149969Y10339984D03*
D24*
G01*
X15149982Y10139984D03*
D25*
G01*
X14889975Y10339979D03*
G01*
X14689965Y10339979D03*
G01*
X14889975Y9469981D03*
G01*
X14689965Y9469981D03*
D23*
G01*
X15149969Y9659985D03*
D24*
G01*
X15149982Y9459976D03*
D18*
G01*
X13829969Y9819970D03*
G01*
X13969974Y9819970D03*
G01*
X11739981Y9149969D03*
G01*
X11879986Y9149969D03*
G01*
X11789968Y10429976D03*
G01*
X11929973Y10429976D03*
D25*
G01*
X7390058Y9349993D03*
G01*
X7190049Y9349993D03*
D26*
G01*
X7189980Y9599980D03*
G01*
X7389990Y9599980D03*
D25*
G01*
X1840001Y9609980D03*
G01*
X1639991Y9609980D03*
G01*
X1840001Y9829980D03*
G01*
X1639991Y9829980D03*
D27*
G01*
X7344905Y8379968D03*
G01*
X6454914Y8379968D03*
D18*
G01*
X2999993Y9389973D03*
G01*
X2859989Y9389973D03*
G01*
X2999993Y9959975D03*
G01*
X2859989Y9959975D03*
G01*
X3339998Y10269981D03*
G01*
X3480003Y10269981D03*
D28*
G01*
X3504667Y10439979D03*
G01*
X3655317Y10439979D03*
D29*
G01*
X3179993Y9135306D03*
D30*
G01*
X3180003Y8984665D03*
D31*
G01*
X1351762Y9809962D03*
G01*
X1351762Y9744963D03*
G01*
X1351762Y9679939D03*
G01*
X1351762Y9614941D03*
G01*
X1351762Y9549942D03*
D32*
G01*
X1284452Y9354946D03*
G01*
X1284452Y10004933D03*
D33*
G01*
X1028471Y10085044D03*
G01*
X1028471Y9274835D03*
D34*
G01*
X9767697Y10420451D03*
G01*
X9767697Y10293451D03*
G01*
X9767697Y10166451D03*
G01*
X9767697Y10039451D03*
G01*
X10372216Y10420451D03*
G01*
X10372216Y10293451D03*
G01*
X10372216Y10166451D03*
G01*
X10372216Y10039451D03*
G01*
X9777729Y9630460D03*
G01*
X9777729Y9503460D03*
G01*
X9777729Y9376460D03*
G01*
X9777729Y9249460D03*
G01*
X10382250Y9630460D03*
G01*
X10382250Y9503460D03*
G01*
X10382250Y9376460D03*
G01*
X10382250Y9249460D03*
D35*
G01*
X3349980Y9129979D03*
G01*
X3349980Y8989974D03*
D18*
G01*
X3859987Y10269981D03*
G01*
X3719982Y10269981D03*
G01*
X10249992Y10599978D03*
G01*
X10389971Y10599978D03*
G01*
X10259974Y9799980D03*
G01*
X10399979Y9799980D03*
D36*
G01*
X1980006Y10124973D03*
G01*
X1980006Y10274985D03*
G01*
X2110003Y10124973D03*
G01*
X2110003Y10274985D03*
G01*
X2240000Y10124973D03*
G01*
X2240000Y10274985D03*
D37*
G01*
X1562735Y10199979D03*
G01*
X1797253Y10199979D03*
D38*
G01*
X7014895Y9154972D03*
G01*
X7014895Y9249968D03*
G01*
X7014895Y9344964D03*
G01*
X6785076Y9344964D03*
G01*
X6785076Y9249968D03*
G01*
X6785076Y9154972D03*
D35*
G01*
X3299993Y8259978D03*
G01*
X3299993Y8119973D03*
G01*
X3789984Y8259978D03*
G01*
X3789984Y8119973D03*
G01*
X4139996Y9539986D03*
G01*
X4139996Y9399981D03*
D39*
G01*
X4269993Y9056878D03*
D40*
G01*
X4269993Y8802878D03*
D41*
G01*
X5349493Y8579865D03*
G01*
X5850381Y8579865D03*
G01*
X9849611Y8590026D03*
G01*
X10350500Y8590026D03*
G01*
X16020034Y9322054D03*
G01*
X16020034Y9830054D03*
G01*
X16020034Y10338054D03*
D42*
G01*
X12229947Y9997186D03*
G01*
X12229947Y10251186D03*
G01*
X12229947Y9412986D03*
G01*
X12229947Y9666986D03*
D43*
G01*
X13560882Y9058046D03*
G01*
X13560780Y9312046D03*
G01*
X13560780Y9566046D03*
G01*
X13560780Y9820046D03*
G01*
X13560780Y10074046D03*
G01*
X13560780Y10328046D03*
G01*
X13560780Y10582046D03*
G01*
X12798780Y9058046D03*
G01*
X12798780Y9312046D03*
G01*
X12798780Y9566046D03*
G01*
X12798780Y9820046D03*
G01*
X12798780Y10074046D03*
G01*
X12798780Y10328046D03*
D44*
G01*
X12798806Y10582046D03*
D45*
G01*
X3783838Y8579993D03*
D46*
G01*
X3296158Y8579993D03*
D47*
G01*
X11784914Y10139984D03*
G01*
X11935028Y10139984D03*
G01*
X11794896Y9529978D03*
G01*
X11945010Y9529978D03*
G01*
X13899972Y10614888D03*
G01*
X13899972Y10765002D03*
G01*
X13899972Y9035059D03*
G01*
X13899972Y8884945D03*
G01*
X14389963Y10184917D03*
G01*
X14389963Y10335031D03*
G01*
X14389963Y9324898D03*
G01*
X14389963Y9475012D03*
D48*
G01*
X3709085Y9836200D03*
G01*
X3409365Y9837470D03*
G01*
X3410635Y9537750D03*
G01*
X3710355Y9537750D03*
D49*
G01*
X1980006Y10379989D03*
G01*
X2110003Y10379989D03*
G01*
X2240000Y10379989D03*
G01*
X2240000Y9839985D03*
G01*
X2240000Y9609988D03*
G01*
X2699994Y9489973D03*
G01*
X2689986Y10069982D03*
G01*
X4139996Y9259976D03*
G01*
X3339998Y10399979D03*
G01*
X3599941Y10269981D03*
G01*
X1270000Y10159974D03*
G01*
X1290015Y9209989D03*
G01*
X4159986Y9669983D03*
G01*
X10589971Y10169982D03*
G01*
X9559975Y9309988D03*
G01*
X9599980Y10039985D03*
G01*
X10129977Y9799980D03*
G01*
X10249992Y10719968D03*
G01*
X7309993Y9729978D03*
G01*
X7039990Y9459976D03*
G01*
X1159992Y10159974D03*
G01*
X1159992Y9209989D03*
G01*
X1029995Y9949967D03*
G01*
X1029995Y9409988D03*
G01*
X3350006Y8859977D03*
G01*
X4169994Y9859975D03*
G01*
X4169994Y9759975D03*
D50*
G01*
X2650007Y9849967D03*
D49*
G01*
X10119969Y9499980D03*
G01*
X9529978Y9419970D03*
G01*
X9389973Y9569983D03*
G01*
X9519970Y10289971D03*
G01*
X9519920Y10420095D03*
D50*
G01*
X2610002Y9239986D03*
D49*
G01*
X9519970Y9659975D03*
D50*
G01*
X10119969Y10799978D03*
D51*
G01*
X13159993Y8679942D03*
D50*
G01*
X5789980Y10519968D03*
D49*
G01*
X12019965Y9149969D03*
G01*
X12059970Y10429976D03*
G01*
X13979982Y9679990D03*
G01*
X7839989Y8639987D03*
G01*
X4199991Y10029977D03*
G01*
X4199991Y9939985D03*
G01*
X10179989Y10269981D03*
G01*
X7171690Y9940036D03*
G01*
X7059980Y10319969D03*
G01*
X14009979Y9139986D03*
G01*
X13869974Y9139986D03*
G01*
X13729970Y9229979D03*
G01*
X13729970Y9349968D03*
G01*
X13879982Y9989972D03*
G01*
X13989964Y9989972D03*
G01*
X15089962Y9959975D03*
G01*
X15199969Y9959975D03*
G01*
X15089962Y9839985D03*
G01*
X15199969Y9839985D03*
D48*
G01*
X3459988Y8159978D03*
G01*
X3459988Y8069986D03*
G01*
X3610000Y8159978D03*
G01*
X3610000Y8069986D03*
D49*
G01*
X6339987Y9329981D03*
M02*
