G04 Layer: BottomSolderMaskLayer*
G04 EasyEDA v6.5.23, 2023-06-02 21:13:54*
G04 33ff916c08f040c1a4a9353f5c15a4ee,b642c611f69d48ac97ba22acea37c14c,10*
G04 Gerber Generator version 0.2*
G04 Scale: 100 percent, Rotated: No, Reflected: No *
G04 Dimensions in millimeters *
G04 leading zeros omitted , absolute positions ,4 integer and 5 decimal *
%FSLAX45Y45*%
%MOMM*%

%AMMACRO1*1,1,$1,$2,$3*1,1,$1,$4,$5*1,1,$1,0-$2,0-$3*1,1,$1,0-$4,0-$5*20,1,$1,$2,$3,$4,$5,0*20,1,$1,$4,$5,0-$2,0-$3,0*20,1,$1,0-$2,0-$3,0-$4,0-$5,0*20,1,$1,0-$4,0-$5,$2,$3,0*4,1,4,$2,$3,$4,$5,0-$2,0-$3,0-$4,0-$5,$2,$3,0*%
%ADD10MACRO1,0.1016X0.7874X-0.7874X-0.7874X-0.7874*%
%ADD11C,1.6764*%
%ADD12C,2.1016*%
%ADD13MACRO1,0.1016X-0.4032X0.432X-0.4032X-0.432*%
%ADD14MACRO1,0.1016X0.4032X0.432X0.4032X-0.432*%
%ADD15C,1.2954*%
%ADD16O,2.1015960000000002X1.6015970000000002*%
%ADD17MACRO1,0.1016X-1X0.75X1X0.75*%
%ADD18MACRO1,0.2032X0.75X-0.75X-0.75X-0.75*%
%ADD19C,1.7032*%
%ADD20C,1.2032*%

%LPD*%
D10*
G01*
X4269994Y9056877D03*
D11*
G01*
X4269993Y8802878D03*
D12*
G01*
X5349493Y8579865D03*
G01*
X5850381Y8579865D03*
G01*
X9849611Y8590026D03*
G01*
X10350500Y8590026D03*
G01*
X16020034Y9322054D03*
G01*
X16020034Y9830054D03*
G01*
X16020034Y10338054D03*
D13*
G01*
X7015311Y10189979D03*
D14*
G01*
X6864661Y10189979D03*
D15*
G01*
X12229947Y9997186D03*
G01*
X12229947Y10251186D03*
G01*
X12229947Y9412986D03*
G01*
X12229947Y9666986D03*
D16*
G01*
X13560882Y9058046D03*
G01*
X13560780Y9312046D03*
G01*
X13560780Y9566046D03*
G01*
X13560780Y9820046D03*
G01*
X13560780Y10074046D03*
G01*
X13560780Y10328046D03*
G01*
X13560780Y10582046D03*
G01*
X12798780Y9058046D03*
G01*
X12798780Y9312046D03*
G01*
X12798780Y9566046D03*
G01*
X12798780Y9820046D03*
G01*
X12798780Y10074046D03*
G01*
X12798780Y10328046D03*
D17*
G01*
X12798798Y10582041D03*
D18*
G01*
X3783831Y8579984D03*
D19*
G01*
X3296158Y8579993D03*
D20*
G01*
X11784914Y10139984D03*
G01*
X11935028Y10139984D03*
G01*
X11794896Y9529978D03*
G01*
X11945010Y9529978D03*
G01*
X13899972Y10614888D03*
G01*
X13899972Y10765002D03*
G01*
X13899972Y9035059D03*
G01*
X13899972Y8884945D03*
G01*
X14389963Y10184917D03*
G01*
X14389963Y10335031D03*
G01*
X14389963Y9324898D03*
G01*
X14389963Y9475012D03*
M02*
