G04 Layer: BottomLayer*
G04 EasyEDA v6.5.23, 2023-06-02 21:13:54*
G04 33ff916c08f040c1a4a9353f5c15a4ee,b642c611f69d48ac97ba22acea37c14c,10*
G04 Gerber Generator version 0.2*
G04 Scale: 100 percent, Rotated: No, Reflected: No *
G04 Dimensions in millimeters *
G04 leading zeros omitted , absolute positions ,4 integer and 5 decimal *
%FSLAX45Y45*%
%MOMM*%

%AMMACRO1*21,1,$1,$2,0,0,$3*%
%ADD10C,0.5000*%
%ADD11C,0.6500*%
%ADD12C,0.2500*%
%ADD13MACRO1,0.864X0.8065X-90.0000*%
%ADD14R,1.5748X1.5748*%
%ADD15C,1.5748*%
%ADD16C,2.0000*%
%ADD17C,1.1938*%
%ADD18O,1.9999959999999999X1.499997*%
%ADD19R,2.0000X1.5000*%
%ADD20R,1.5000X1.5000*%
%ADD21C,1.5000*%
%ADD22C,1.0000*%
%ADD23C,0.6350*%
%ADD24C,0.6100*%
%ADD25C,0.7000*%
%ADD26C,0.8000*%
%ADD27C,0.0116*%

%LPD*%
G36*
X736092Y7825892D02*
G01*
X732180Y7826654D01*
X728929Y7828889D01*
X726694Y7832140D01*
X725932Y7836052D01*
X725932Y8953906D01*
X726694Y8957818D01*
X728878Y8961120D01*
X732180Y8963304D01*
X736092Y8964066D01*
X829360Y8964066D01*
X835863Y8964879D01*
X841400Y8966962D01*
X846531Y8970518D01*
X849579Y8973566D01*
X852220Y8977122D01*
X854710Y8982659D01*
X855929Y8990126D01*
X855929Y10389362D01*
X855116Y10395864D01*
X853033Y10401401D01*
X849477Y10406532D01*
X846429Y10409580D01*
X842822Y10412222D01*
X837285Y10414711D01*
X829868Y10415879D01*
X736092Y10415879D01*
X732180Y10416641D01*
X728878Y10418876D01*
X726694Y10422178D01*
X725932Y10426039D01*
X725932Y11770360D01*
X726694Y11774271D01*
X728878Y11777573D01*
X732180Y11779758D01*
X736041Y11780520D01*
X3714445Y11785854D01*
X3718306Y11785092D01*
X3721557Y11782958D01*
X3723792Y11779758D01*
X3724656Y11775948D01*
X3725113Y11754612D01*
X3728110Y11709298D01*
X3733139Y11664188D01*
X3740150Y11619331D01*
X3749090Y11574830D01*
X3760063Y11530787D01*
X3772915Y11487251D01*
X3787698Y11444376D01*
X3804361Y11402161D01*
X3822903Y11360708D01*
X3843223Y11320119D01*
X3865372Y11280495D01*
X3889197Y11241887D01*
X3914749Y11204346D01*
X3941876Y11167973D01*
X3970629Y11132820D01*
X4000906Y11099038D01*
X4032656Y11066576D01*
X4065778Y11035538D01*
X4100271Y11006023D01*
X4136034Y10978083D01*
X4172965Y10951718D01*
X4211066Y10927029D01*
X4250232Y10904067D01*
X4290314Y10882833D01*
X4331360Y10863376D01*
X4373168Y10845800D01*
X4415739Y10830052D01*
X4458970Y10816234D01*
X4502810Y10804296D01*
X4547057Y10794339D01*
X4591761Y10786364D01*
X4636770Y10780318D01*
X4681982Y10776356D01*
X4727295Y10774324D01*
X4772710Y10774324D01*
X4818024Y10776356D01*
X4863236Y10780318D01*
X4908245Y10786364D01*
X4952949Y10794339D01*
X4997196Y10804296D01*
X5041036Y10816234D01*
X5084267Y10830052D01*
X5126837Y10845800D01*
X5168646Y10863376D01*
X5209692Y10882833D01*
X5249773Y10904067D01*
X5288940Y10927029D01*
X5327040Y10951718D01*
X5363972Y10978083D01*
X5399735Y11006023D01*
X5434228Y11035538D01*
X5467350Y11066576D01*
X5499100Y11099038D01*
X5529376Y11132820D01*
X5558129Y11167973D01*
X5585256Y11204346D01*
X5610809Y11241887D01*
X5634634Y11280495D01*
X5656783Y11320119D01*
X5677103Y11360708D01*
X5695645Y11402161D01*
X5712307Y11444376D01*
X5727090Y11487251D01*
X5739942Y11530787D01*
X5750915Y11574830D01*
X5759856Y11619331D01*
X5766866Y11664188D01*
X5771896Y11709298D01*
X5774893Y11754612D01*
X5775452Y11779605D01*
X5776315Y11783466D01*
X5778500Y11786666D01*
X5781751Y11788800D01*
X5785612Y11789562D01*
X12214098Y11801043D01*
X12217958Y11800281D01*
X12221210Y11798147D01*
X12223445Y11794947D01*
X12224258Y11791137D01*
X12225070Y11754612D01*
X12228118Y11709298D01*
X12233097Y11664188D01*
X12240107Y11619331D01*
X12249099Y11574830D01*
X12260021Y11530787D01*
X12272924Y11487251D01*
X12287707Y11444376D01*
X12304369Y11402161D01*
X12322860Y11360708D01*
X12343231Y11320119D01*
X12365329Y11280495D01*
X12389154Y11241887D01*
X12414707Y11204346D01*
X12441885Y11167973D01*
X12470638Y11132820D01*
X12500914Y11099038D01*
X12532614Y11066576D01*
X12565786Y11035538D01*
X12600279Y11006023D01*
X12635992Y10978083D01*
X12672974Y10951718D01*
X12711074Y10927029D01*
X12750190Y10904067D01*
X12790322Y10882833D01*
X12831318Y10863376D01*
X12873177Y10845800D01*
X12915747Y10830052D01*
X12958978Y10816234D01*
X13002768Y10804296D01*
X13047065Y10794339D01*
X13091718Y10786364D01*
X13136727Y10780318D01*
X13181939Y10776356D01*
X13227304Y10774324D01*
X13272668Y10774324D01*
X13318032Y10776356D01*
X13363244Y10780318D01*
X13408253Y10786364D01*
X13452906Y10794339D01*
X13497204Y10804296D01*
X13540994Y10816234D01*
X13584224Y10830052D01*
X13626795Y10845800D01*
X13668654Y10863376D01*
X13709650Y10882833D01*
X13749782Y10904067D01*
X13788898Y10927029D01*
X13826998Y10951718D01*
X13863980Y10978083D01*
X13899692Y11006023D01*
X13934186Y11035538D01*
X13967358Y11066576D01*
X13999057Y11099038D01*
X14029334Y11132820D01*
X14058087Y11167973D01*
X14085265Y11204346D01*
X14110817Y11241887D01*
X14134642Y11280495D01*
X14156740Y11320119D01*
X14177111Y11360708D01*
X14195602Y11402161D01*
X14212265Y11444376D01*
X14227048Y11487251D01*
X14239951Y11530787D01*
X14250873Y11574830D01*
X14259864Y11619331D01*
X14266875Y11664188D01*
X14271853Y11709298D01*
X14274901Y11754612D01*
X14275765Y11794794D01*
X14276628Y11798655D01*
X14278813Y11801856D01*
X14282064Y11803989D01*
X14285925Y11804751D01*
X16229888Y11808206D01*
X16233800Y11807444D01*
X16237102Y11805259D01*
X16239286Y11801957D01*
X16240099Y11798096D01*
X16248837Y7836052D01*
X16248075Y7832191D01*
X16245840Y7828889D01*
X16242538Y7826654D01*
X16238677Y7825892D01*
G37*

%LPC*%
G36*
X5850382Y8453983D02*
G01*
X5865571Y8454898D01*
X5880506Y8457641D01*
X5895035Y8462162D01*
X5908903Y8468410D01*
X5921908Y8476284D01*
X5933846Y8485632D01*
X5944616Y8496401D01*
X5953963Y8508339D01*
X5961837Y8521344D01*
X5968085Y8535212D01*
X5972606Y8549741D01*
X5975350Y8564676D01*
X5976264Y8579866D01*
X5975350Y8595055D01*
X5972606Y8609990D01*
X5968085Y8624519D01*
X5961837Y8638387D01*
X5953963Y8651392D01*
X5944616Y8663330D01*
X5933846Y8674100D01*
X5921908Y8683447D01*
X5908903Y8691321D01*
X5895035Y8697569D01*
X5880506Y8702090D01*
X5865571Y8704834D01*
X5850382Y8705748D01*
X5835192Y8704834D01*
X5820257Y8702090D01*
X5805728Y8697569D01*
X5791860Y8691321D01*
X5778855Y8683447D01*
X5766917Y8674100D01*
X5756148Y8663330D01*
X5746800Y8651392D01*
X5738926Y8638387D01*
X5732678Y8624519D01*
X5728157Y8609990D01*
X5725414Y8595055D01*
X5724499Y8579866D01*
X5725414Y8564676D01*
X5728157Y8549741D01*
X5732678Y8535212D01*
X5738926Y8521344D01*
X5746800Y8508339D01*
X5756148Y8496401D01*
X5766917Y8485632D01*
X5778855Y8476284D01*
X5791860Y8468410D01*
X5805728Y8462162D01*
X5820257Y8457641D01*
X5835192Y8454898D01*
G37*
G36*
X9849612Y8464143D02*
G01*
X9864801Y8465058D01*
X9879736Y8467801D01*
X9894265Y8472322D01*
X9908133Y8478570D01*
X9921138Y8486444D01*
X9933076Y8495792D01*
X9943846Y8506561D01*
X9953193Y8518499D01*
X9961067Y8531504D01*
X9967315Y8545372D01*
X9971836Y8559901D01*
X9974580Y8574836D01*
X9975494Y8590026D01*
X9974580Y8605215D01*
X9971836Y8620150D01*
X9967315Y8634679D01*
X9961067Y8648547D01*
X9953193Y8661552D01*
X9943846Y8673490D01*
X9933076Y8684260D01*
X9921138Y8693607D01*
X9908133Y8701481D01*
X9894265Y8707729D01*
X9879736Y8712250D01*
X9864801Y8714994D01*
X9849612Y8715908D01*
X9834422Y8714994D01*
X9819487Y8712250D01*
X9804958Y8707729D01*
X9791090Y8701481D01*
X9778085Y8693607D01*
X9766147Y8684260D01*
X9755378Y8673490D01*
X9746030Y8661552D01*
X9738156Y8648547D01*
X9731908Y8634679D01*
X9727387Y8620150D01*
X9724644Y8605215D01*
X9723729Y8590026D01*
X9724644Y8574836D01*
X9727387Y8559901D01*
X9731908Y8545372D01*
X9738156Y8531504D01*
X9746030Y8518499D01*
X9755378Y8506561D01*
X9766147Y8495792D01*
X9778085Y8486444D01*
X9791090Y8478570D01*
X9804958Y8472322D01*
X9819487Y8467801D01*
X9834422Y8465058D01*
G37*
G36*
X10350500Y8464143D02*
G01*
X10365689Y8465058D01*
X10380624Y8467801D01*
X10395153Y8472322D01*
X10409021Y8478570D01*
X10422026Y8486444D01*
X10433964Y8495792D01*
X10444734Y8506561D01*
X10454081Y8518499D01*
X10461955Y8531504D01*
X10468203Y8545372D01*
X10472724Y8559901D01*
X10475468Y8574836D01*
X10476382Y8590026D01*
X10475468Y8605215D01*
X10472724Y8620150D01*
X10468203Y8634679D01*
X10461955Y8648547D01*
X10454081Y8661552D01*
X10444734Y8673490D01*
X10433964Y8684260D01*
X10422026Y8693607D01*
X10409021Y8701481D01*
X10395153Y8707729D01*
X10380624Y8712250D01*
X10365689Y8714994D01*
X10350500Y8715908D01*
X10335310Y8714994D01*
X10320375Y8712250D01*
X10305846Y8707729D01*
X10291978Y8701481D01*
X10278973Y8693607D01*
X10267035Y8684260D01*
X10256266Y8673490D01*
X10246918Y8661552D01*
X10239044Y8648547D01*
X10232796Y8634679D01*
X10228275Y8620150D01*
X10225532Y8605215D01*
X10224617Y8590026D01*
X10225532Y8574836D01*
X10228275Y8559901D01*
X10232796Y8545372D01*
X10239044Y8531504D01*
X10246918Y8518499D01*
X10256266Y8506561D01*
X10267035Y8495792D01*
X10278973Y8486444D01*
X10291978Y8478570D01*
X10305846Y8472322D01*
X10320375Y8467801D01*
X10335310Y8465058D01*
G37*
G36*
X5405831Y8467445D02*
G01*
X5408015Y8468410D01*
X5421020Y8476284D01*
X5432958Y8485632D01*
X5443728Y8496401D01*
X5453075Y8508339D01*
X5460949Y8521344D01*
X5461914Y8523528D01*
X5405831Y8523528D01*
G37*
G36*
X5293156Y8467445D02*
G01*
X5293156Y8523528D01*
X5237073Y8523528D01*
X5238038Y8521344D01*
X5245912Y8508339D01*
X5255260Y8496401D01*
X5266029Y8485632D01*
X5277967Y8476284D01*
X5290972Y8468410D01*
G37*
G36*
X3709415Y8479078D02*
G01*
X3858260Y8479078D01*
X3864559Y8479790D01*
X3870045Y8481720D01*
X3874922Y8484768D01*
X3879037Y8488883D01*
X3882136Y8493760D01*
X3884015Y8499246D01*
X3884726Y8505545D01*
X3884726Y8654389D01*
X3884015Y8660739D01*
X3882136Y8666175D01*
X3879037Y8671102D01*
X3874922Y8675166D01*
X3870045Y8678265D01*
X3864559Y8680196D01*
X3858260Y8680907D01*
X3709415Y8680907D01*
X3703065Y8680196D01*
X3697630Y8678265D01*
X3692702Y8675166D01*
X3688638Y8671102D01*
X3685540Y8666175D01*
X3683660Y8660739D01*
X3682949Y8654389D01*
X3682949Y8505545D01*
X3683660Y8499246D01*
X3685540Y8493760D01*
X3688638Y8488883D01*
X3692702Y8484768D01*
X3697630Y8481720D01*
X3703065Y8479790D01*
G37*
G36*
X3299510Y8479129D02*
G01*
X3312922Y8480501D01*
X3326028Y8483650D01*
X3338626Y8488476D01*
X3350412Y8494928D01*
X3361283Y8502954D01*
X3370986Y8512302D01*
X3379317Y8522868D01*
X3386175Y8534501D01*
X3391458Y8546896D01*
X3395014Y8559901D01*
X3396792Y8573262D01*
X3396792Y8586724D01*
X3395014Y8600084D01*
X3391458Y8613089D01*
X3386175Y8625484D01*
X3379317Y8637066D01*
X3370986Y8647633D01*
X3361283Y8657031D01*
X3350412Y8665006D01*
X3338626Y8671509D01*
X3326028Y8676335D01*
X3312922Y8679484D01*
X3299510Y8680805D01*
X3286048Y8680348D01*
X3272790Y8678113D01*
X3259886Y8674150D01*
X3247694Y8668461D01*
X3236315Y8661196D01*
X3226003Y8652510D01*
X3216960Y8642502D01*
X3209340Y8631377D01*
X3203295Y8619388D01*
X3198876Y8606637D01*
X3196183Y8593429D01*
X3195269Y8579967D01*
X3196183Y8566556D01*
X3198876Y8553348D01*
X3203295Y8540597D01*
X3209340Y8528558D01*
X3216960Y8517483D01*
X3226003Y8507476D01*
X3236315Y8498738D01*
X3247694Y8491524D01*
X3259886Y8485835D01*
X3272790Y8481822D01*
X3286048Y8479586D01*
G37*
G36*
X13157352Y8614105D02*
G01*
X13167918Y8614562D01*
X13178282Y8616645D01*
X13189254Y8620861D01*
X13192861Y8621522D01*
X13319607Y8621522D01*
X13329615Y8622385D01*
X13338962Y8624722D01*
X13347801Y8628583D01*
X13355980Y8633917D01*
X13361517Y8638844D01*
X13420953Y8698280D01*
X13427456Y8705951D01*
X13432383Y8714232D01*
X13435888Y8723223D01*
X13437920Y8732774D01*
X13438378Y8740190D01*
X13438378Y8989568D01*
X13439190Y8993581D01*
X13441476Y8996934D01*
X13444931Y8999067D01*
X13448995Y8999728D01*
X13452906Y8998762D01*
X13456157Y8996273D01*
X13464540Y8986723D01*
X13474496Y8977985D01*
X13485469Y8970670D01*
X13497306Y8964828D01*
X13509802Y8960612D01*
X13522756Y8958021D01*
X13536218Y8957157D01*
X13585545Y8957157D01*
X13599058Y8958021D01*
X13612012Y8960612D01*
X13624509Y8964828D01*
X13636345Y8970670D01*
X13647318Y8977985D01*
X13657224Y8986723D01*
X13665962Y8996629D01*
X13673277Y9007602D01*
X13679119Y9019438D01*
X13683335Y9031935D01*
X13685926Y9044889D01*
X13686790Y9058046D01*
X13685926Y9071203D01*
X13683335Y9084157D01*
X13679119Y9096654D01*
X13673277Y9108490D01*
X13665962Y9119463D01*
X13657224Y9129369D01*
X13647318Y9138056D01*
X13636345Y9145422D01*
X13624509Y9151264D01*
X13612012Y9155480D01*
X13599058Y9158071D01*
X13585545Y9158935D01*
X13536218Y9158935D01*
X13522756Y9158071D01*
X13509802Y9155480D01*
X13497306Y9151264D01*
X13485469Y9145422D01*
X13474496Y9138056D01*
X13464540Y9129369D01*
X13456157Y9119819D01*
X13452906Y9117330D01*
X13448995Y9116364D01*
X13444931Y9116974D01*
X13441476Y9119158D01*
X13439190Y9122511D01*
X13438378Y9126524D01*
X13438378Y9243466D01*
X13439190Y9247479D01*
X13441476Y9250781D01*
X13444931Y9252966D01*
X13448995Y9253626D01*
X13452906Y9252610D01*
X13456157Y9250172D01*
X13464438Y9240723D01*
X13474395Y9231985D01*
X13485368Y9224670D01*
X13497204Y9218828D01*
X13504468Y9216390D01*
X13504468Y9268206D01*
X13448538Y9268206D01*
X13444626Y9268968D01*
X13441324Y9271152D01*
X13439140Y9274454D01*
X13438378Y9278366D01*
X13438378Y9345726D01*
X13439140Y9349638D01*
X13441324Y9352940D01*
X13444626Y9355124D01*
X13448538Y9355886D01*
X13504468Y9355886D01*
X13504468Y9407702D01*
X13497204Y9405264D01*
X13485368Y9399422D01*
X13474395Y9392056D01*
X13464438Y9383369D01*
X13456157Y9373920D01*
X13452906Y9371431D01*
X13448995Y9370466D01*
X13444931Y9371126D01*
X13441476Y9373260D01*
X13439190Y9376613D01*
X13438378Y9380626D01*
X13438378Y9497466D01*
X13439190Y9501479D01*
X13441476Y9504781D01*
X13444931Y9506966D01*
X13448995Y9507626D01*
X13452906Y9506610D01*
X13456157Y9504172D01*
X13464438Y9494723D01*
X13474395Y9485985D01*
X13485368Y9478670D01*
X13497204Y9472828D01*
X13509701Y9468612D01*
X13522655Y9466021D01*
X13536117Y9465157D01*
X13585444Y9465157D01*
X13598956Y9466021D01*
X13611910Y9468612D01*
X13624407Y9472828D01*
X13636244Y9478670D01*
X13647216Y9485985D01*
X13657122Y9494723D01*
X13665860Y9504629D01*
X13673175Y9515602D01*
X13679017Y9527438D01*
X13683234Y9539935D01*
X13685824Y9552889D01*
X13686688Y9566046D01*
X13685824Y9579203D01*
X13683234Y9592157D01*
X13679017Y9604654D01*
X13673175Y9616490D01*
X13665860Y9627463D01*
X13657122Y9637369D01*
X13647216Y9646056D01*
X13636244Y9653422D01*
X13624407Y9659264D01*
X13611910Y9663480D01*
X13598956Y9666071D01*
X13585444Y9666935D01*
X13536117Y9666935D01*
X13522655Y9666071D01*
X13509701Y9663480D01*
X13497204Y9659264D01*
X13485368Y9653422D01*
X13474395Y9646056D01*
X13464438Y9637369D01*
X13456157Y9627920D01*
X13452906Y9625431D01*
X13448995Y9624466D01*
X13444931Y9625126D01*
X13441476Y9627260D01*
X13439190Y9630613D01*
X13438378Y9634626D01*
X13438378Y9743744D01*
X13439140Y9747656D01*
X13441375Y9750958D01*
X13444728Y9753142D01*
X13448690Y9753904D01*
X13452601Y9753041D01*
X13464895Y9747656D01*
X13467537Y9746030D01*
X13474395Y9739985D01*
X13485368Y9732670D01*
X13497204Y9726828D01*
X13509701Y9722612D01*
X13522655Y9720021D01*
X13536117Y9719157D01*
X13585444Y9719157D01*
X13598956Y9720021D01*
X13611910Y9722612D01*
X13624407Y9726828D01*
X13636244Y9732670D01*
X13647216Y9739985D01*
X13657122Y9748723D01*
X13665860Y9758629D01*
X13673175Y9769602D01*
X13679017Y9781438D01*
X13683234Y9793935D01*
X13685824Y9806889D01*
X13686688Y9820046D01*
X13685824Y9833203D01*
X13683234Y9846157D01*
X13679017Y9858654D01*
X13673175Y9870490D01*
X13665860Y9881463D01*
X13657122Y9891369D01*
X13647216Y9900056D01*
X13636244Y9907422D01*
X13624407Y9913264D01*
X13611910Y9917480D01*
X13598956Y9920071D01*
X13585444Y9920935D01*
X13536117Y9920935D01*
X13522655Y9920071D01*
X13509701Y9917480D01*
X13497204Y9913264D01*
X13485368Y9907422D01*
X13474395Y9900056D01*
X13467537Y9894112D01*
X13464895Y9892436D01*
X13435076Y9879380D01*
X13431012Y9878568D01*
X13410336Y9878568D01*
X13400328Y9877704D01*
X13390981Y9875367D01*
X13382142Y9871506D01*
X13374014Y9866172D01*
X13368223Y9861042D01*
X13338708Y9831273D01*
X13333730Y9825634D01*
X13328497Y9817557D01*
X13324636Y9808718D01*
X13322300Y9799370D01*
X13321538Y9789617D01*
X13321538Y8768283D01*
X13320776Y8764422D01*
X13318591Y8761120D01*
X13298779Y8741308D01*
X13295477Y8739124D01*
X13291616Y8738362D01*
X13192861Y8738362D01*
X13189254Y8739022D01*
X13178282Y8743238D01*
X13167918Y8745321D01*
X13157352Y8745778D01*
X13146836Y8744508D01*
X13136626Y8741511D01*
X13127075Y8736990D01*
X13118338Y8730945D01*
X13110667Y8723630D01*
X13104317Y8715146D01*
X13099389Y8705748D01*
X13096036Y8695690D01*
X13094309Y8685225D01*
X13094309Y8674658D01*
X13096036Y8664194D01*
X13099389Y8654135D01*
X13104317Y8644737D01*
X13110667Y8636254D01*
X13118338Y8628938D01*
X13127075Y8622893D01*
X13136626Y8618372D01*
X13146836Y8615375D01*
G37*
G36*
X5405831Y8636203D02*
G01*
X5461914Y8636203D01*
X5460949Y8638387D01*
X5453075Y8651392D01*
X5443728Y8663330D01*
X5432958Y8674100D01*
X5421020Y8683447D01*
X5408015Y8691321D01*
X5405831Y8692286D01*
G37*
G36*
X5237073Y8636203D02*
G01*
X5293156Y8636203D01*
X5293156Y8692286D01*
X5290972Y8691321D01*
X5277967Y8683447D01*
X5266029Y8674100D01*
X5255260Y8663330D01*
X5245912Y8651392D01*
X5238038Y8638387D01*
G37*
G36*
X4224274Y8708999D02*
G01*
X4224274Y8757158D01*
X4176115Y8757158D01*
X4179366Y8750554D01*
X4186986Y8739174D01*
X4196029Y8728913D01*
X4206290Y8719870D01*
X4217670Y8712250D01*
G37*
G36*
X4315714Y8708999D02*
G01*
X4322318Y8712250D01*
X4333697Y8719870D01*
X4343958Y8728913D01*
X4353001Y8739174D01*
X4360621Y8750554D01*
X4363872Y8757158D01*
X4315714Y8757158D01*
G37*
G36*
X13897051Y8809126D02*
G01*
X13908684Y8809532D01*
X13920063Y8811768D01*
X13931036Y8815679D01*
X13941196Y8821216D01*
X13950442Y8828278D01*
X13958519Y8836660D01*
X13965174Y8846159D01*
X13970355Y8856573D01*
X13973860Y8867648D01*
X13975638Y8879128D01*
X13975638Y8890711D01*
X13973860Y8902192D01*
X13970355Y8913266D01*
X13965174Y8923680D01*
X13958519Y8933180D01*
X13950442Y8941562D01*
X13941196Y8948623D01*
X13936726Y8951061D01*
X13933474Y8953906D01*
X13931646Y8957818D01*
X13931646Y8962136D01*
X13933474Y8966098D01*
X13936726Y8968892D01*
X13941196Y8971330D01*
X13950442Y8978392D01*
X13958519Y8986774D01*
X13965174Y8996273D01*
X13968882Y9003690D01*
X13931341Y9003690D01*
X13931341Y8968232D01*
X13930376Y8963914D01*
X13927632Y8960408D01*
X13923670Y8958376D01*
X13919250Y8958275D01*
X13908684Y8960307D01*
X13897051Y8960764D01*
X13885519Y8959392D01*
X13881455Y8958326D01*
X13877747Y8957970D01*
X13874191Y8959037D01*
X13871244Y8961272D01*
X13869314Y8964422D01*
X13868603Y8968079D01*
X13868603Y9003690D01*
X13831062Y9003690D01*
X13831976Y9001353D01*
X13837919Y8991396D01*
X13845286Y8982405D01*
X13853972Y8974683D01*
X13863523Y8968486D01*
X13866418Y8965692D01*
X13867942Y8961983D01*
X13867942Y8957970D01*
X13866418Y8954262D01*
X13863523Y8951468D01*
X13853972Y8945270D01*
X13845286Y8937548D01*
X13837919Y8928557D01*
X13831976Y8918600D01*
X13827607Y8907830D01*
X13824966Y8896502D01*
X13824102Y8884920D01*
X13824966Y8873337D01*
X13827607Y8862009D01*
X13831976Y8851239D01*
X13837919Y8841282D01*
X13845286Y8832291D01*
X13853972Y8824569D01*
X13863726Y8818270D01*
X13874343Y8813495D01*
X13885519Y8810447D01*
G37*
G36*
X4315714Y8848598D02*
G01*
X4363872Y8848598D01*
X4360621Y8855202D01*
X4353001Y8866581D01*
X4343958Y8876842D01*
X4333697Y8885885D01*
X4322318Y8893505D01*
X4315714Y8896756D01*
G37*
G36*
X4176115Y8848598D02*
G01*
X4224274Y8848598D01*
X4224274Y8896756D01*
X4217670Y8893505D01*
X4206290Y8885885D01*
X4196029Y8876842D01*
X4186986Y8866581D01*
X4179366Y8855202D01*
G37*
G36*
X4191812Y8952230D02*
G01*
X4348175Y8952230D01*
X4354474Y8952941D01*
X4359960Y8954871D01*
X4364837Y8957919D01*
X4368952Y8962034D01*
X4372000Y8966911D01*
X4373930Y8972397D01*
X4374642Y8978696D01*
X4374642Y9085783D01*
X4375150Y9088983D01*
X4383887Y9114993D01*
X4385716Y9118346D01*
X4391914Y9125712D01*
X4395419Y9132265D01*
X4397603Y9139478D01*
X4398365Y9147454D01*
X4398365Y9639554D01*
X4397603Y9647529D01*
X4395419Y9654743D01*
X4391863Y9661347D01*
X4386783Y9667595D01*
X4357573Y9696805D01*
X4351375Y9701885D01*
X4344720Y9705441D01*
X4337558Y9707626D01*
X4329582Y9708388D01*
X4304944Y9708388D01*
X4300626Y9709353D01*
X4297121Y9712096D01*
X4295089Y9716058D01*
X4294987Y9720529D01*
X4296816Y9724593D01*
X4307433Y9733178D01*
X4322826Y9748520D01*
X4326128Y9750755D01*
X4329988Y9751517D01*
X8369757Y9751517D01*
X8373668Y9750755D01*
X8376920Y9748520D01*
X8582304Y9543186D01*
X8588502Y9538106D01*
X8595156Y9534550D01*
X8602319Y9532366D01*
X8610295Y9531553D01*
X9340138Y9531553D01*
X9344609Y9530537D01*
X9356242Y9524898D01*
X9361779Y9521190D01*
X9370669Y9517024D01*
X9380169Y9514484D01*
X9389973Y9513620D01*
X9399778Y9514484D01*
X9409277Y9517024D01*
X9418167Y9521190D01*
X9426194Y9526778D01*
X9433153Y9533737D01*
X9438792Y9541814D01*
X9442958Y9550704D01*
X9445498Y9560204D01*
X9446361Y9569958D01*
X9445498Y9579762D01*
X9442958Y9589262D01*
X9438792Y9598152D01*
X9433610Y9605568D01*
X9431934Y9609632D01*
X9432086Y9614052D01*
X9434118Y9617913D01*
X9437624Y9620605D01*
X9441942Y9621570D01*
X9470136Y9621570D01*
X9474555Y9620554D01*
X9486290Y9614865D01*
X9491776Y9611156D01*
X9500666Y9606991D01*
X9510166Y9604451D01*
X9519970Y9603587D01*
X9529775Y9604451D01*
X9538766Y9606889D01*
X9542475Y9607194D01*
X9546031Y9606127D01*
X9548977Y9603841D01*
X9550908Y9600692D01*
X9551568Y9597085D01*
X9551568Y9485528D01*
X9550704Y9481464D01*
X9548266Y9478060D01*
X9544659Y9475927D01*
X9540544Y9475419D01*
X9529978Y9476333D01*
X9520174Y9475470D01*
X9510674Y9472930D01*
X9501784Y9468764D01*
X9493758Y9463176D01*
X9486798Y9456216D01*
X9481159Y9448139D01*
X9476994Y9439249D01*
X9474454Y9429750D01*
X9473590Y9419945D01*
X9474454Y9410192D01*
X9476994Y9400692D01*
X9481159Y9391802D01*
X9486798Y9383725D01*
X9493758Y9376765D01*
X9501784Y9371177D01*
X9510674Y9367012D01*
X9520174Y9364472D01*
X9529978Y9363608D01*
X9539782Y9364472D01*
X9549282Y9367012D01*
X9558172Y9371177D01*
X9566198Y9376765D01*
X9572091Y9382658D01*
X9574479Y9384436D01*
X9581286Y9388094D01*
X9587484Y9393174D01*
X9616795Y9422485D01*
X9621875Y9428683D01*
X9625431Y9435287D01*
X9627616Y9442500D01*
X9628378Y9450476D01*
X9628378Y9629495D01*
X9627616Y9637471D01*
X9625431Y9644684D01*
X9621875Y9651288D01*
X9616795Y9657486D01*
X9600031Y9674250D01*
X9597847Y9677501D01*
X9597085Y9681413D01*
X9597847Y9685274D01*
X9600082Y9688576D01*
X9603333Y9690811D01*
X9607245Y9691573D01*
X10049916Y9691573D01*
X10053777Y9690811D01*
X10057079Y9688576D01*
X10078516Y9667036D01*
X10080701Y9663785D01*
X10081463Y9659874D01*
X10081463Y9549587D01*
X10080447Y9545167D01*
X10074859Y9533686D01*
X10071150Y9528149D01*
X10066985Y9519259D01*
X10064445Y9509760D01*
X10063581Y9499955D01*
X10064445Y9490202D01*
X10066985Y9480702D01*
X10071150Y9471812D01*
X10076789Y9463735D01*
X10083749Y9456775D01*
X10091775Y9451187D01*
X10100665Y9447022D01*
X10110165Y9444482D01*
X10119969Y9443618D01*
X10129774Y9444482D01*
X10139273Y9447022D01*
X10148163Y9451187D01*
X10156190Y9456775D01*
X10163149Y9463735D01*
X10168788Y9471812D01*
X10172954Y9480702D01*
X10175494Y9490202D01*
X10176357Y9499955D01*
X10175494Y9509760D01*
X10172954Y9519259D01*
X10168788Y9528149D01*
X10165029Y9533737D01*
X10159288Y9545574D01*
X10158272Y9549993D01*
X10158272Y9679432D01*
X10157510Y9687306D01*
X10155326Y9694519D01*
X10151821Y9701174D01*
X10146741Y9707372D01*
X10097668Y9756698D01*
X10091470Y9761829D01*
X10084866Y9765385D01*
X10077653Y9767570D01*
X10069576Y9768382D01*
X8660180Y9768382D01*
X8656269Y9769144D01*
X8653018Y9771380D01*
X8457539Y9966858D01*
X8446973Y9975342D01*
X8445144Y9979406D01*
X8445296Y9983876D01*
X8447278Y9987838D01*
X8450783Y9990582D01*
X8455152Y9991547D01*
X9059468Y9991547D01*
X9067444Y9992360D01*
X9074658Y9994544D01*
X9081312Y9998100D01*
X9087510Y10003180D01*
X9222892Y10138613D01*
X9226194Y10140797D01*
X9230106Y10141559D01*
X10089489Y10141559D01*
X10097465Y10142372D01*
X10104678Y10144556D01*
X10111282Y10148062D01*
X10117480Y10153192D01*
X10175138Y10210800D01*
X10178034Y10212832D01*
X10181437Y10213746D01*
X10189768Y10214457D01*
X10199268Y10216997D01*
X10208158Y10221163D01*
X10216235Y10226802D01*
X10223195Y10233761D01*
X10228783Y10241788D01*
X10232948Y10250678D01*
X10235488Y10260177D01*
X10236352Y10269982D01*
X10235488Y10279786D01*
X10232948Y10289286D01*
X10228783Y10298176D01*
X10223195Y10306202D01*
X10216235Y10313162D01*
X10208158Y10318800D01*
X10199268Y10322966D01*
X10189768Y10325506D01*
X10180015Y10326370D01*
X10170210Y10325506D01*
X10160711Y10322966D01*
X10151821Y10318800D01*
X10143744Y10313162D01*
X10136784Y10306202D01*
X10131196Y10298176D01*
X10127030Y10289286D01*
X10124490Y10279786D01*
X10123728Y10271404D01*
X10122814Y10268000D01*
X10120833Y10265105D01*
X10077043Y10221366D01*
X10073741Y10219182D01*
X10069880Y10218369D01*
X9545167Y10218369D01*
X9541357Y10219131D01*
X9538055Y10221264D01*
X9535871Y10224465D01*
X9535007Y10228275D01*
X9535668Y10232136D01*
X9537700Y10235438D01*
X9540849Y10237774D01*
X9548164Y10241178D01*
X9556191Y10246766D01*
X9563150Y10253726D01*
X9568789Y10261803D01*
X9572955Y10270693D01*
X9575495Y10280192D01*
X9576358Y10289946D01*
X9575495Y10299750D01*
X9572955Y10309250D01*
X9568789Y10318140D01*
X9563150Y10326217D01*
X9556191Y10333177D01*
X9548164Y10338765D01*
X9539274Y10342930D01*
X9530740Y10345216D01*
X9526828Y10347248D01*
X9524136Y10350754D01*
X9523171Y10355021D01*
X9524136Y10359339D01*
X9526828Y10362844D01*
X9530740Y10364876D01*
X9539224Y10367111D01*
X9548114Y10371277D01*
X9556140Y10376916D01*
X9563100Y10383875D01*
X9568738Y10391902D01*
X9572904Y10400792D01*
X9575444Y10410291D01*
X9576308Y10420096D01*
X9575444Y10429900D01*
X9572904Y10439400D01*
X9568738Y10448290D01*
X9563100Y10456316D01*
X9556140Y10463276D01*
X9548114Y10468914D01*
X9539224Y10473080D01*
X9529724Y10475620D01*
X9519920Y10476484D01*
X9510115Y10475620D01*
X9500616Y10473080D01*
X9491726Y10468914D01*
X9483699Y10463276D01*
X9476740Y10456316D01*
X9471101Y10448290D01*
X9466935Y10439400D01*
X9464395Y10429900D01*
X9463532Y10420096D01*
X9464395Y10410291D01*
X9466935Y10400792D01*
X9471101Y10391902D01*
X9476740Y10383875D01*
X9483699Y10376916D01*
X9491726Y10371277D01*
X9500616Y10367111D01*
X9509150Y10364825D01*
X9513062Y10362793D01*
X9515754Y10359339D01*
X9516719Y10355021D01*
X9515754Y10350754D01*
X9513062Y10347248D01*
X9509150Y10345216D01*
X9500666Y10342930D01*
X9491776Y10338765D01*
X9483750Y10333177D01*
X9476790Y10326217D01*
X9471152Y10318140D01*
X9466986Y10309250D01*
X9464446Y10299750D01*
X9463582Y10289946D01*
X9464446Y10280192D01*
X9466986Y10270693D01*
X9471152Y10261803D01*
X9476790Y10253726D01*
X9483750Y10246766D01*
X9491776Y10241178D01*
X9499092Y10237774D01*
X9502241Y10235438D01*
X9504273Y10232136D01*
X9504934Y10228275D01*
X9504070Y10224465D01*
X9501886Y10221264D01*
X9498584Y10219131D01*
X9494774Y10218369D01*
X9210497Y10218369D01*
X9202521Y10217607D01*
X9195308Y10215422D01*
X9188653Y10211866D01*
X9182455Y10206786D01*
X9047073Y10071354D01*
X9043771Y10069169D01*
X9039860Y10068407D01*
X6723176Y10068407D01*
X6719316Y10069169D01*
X6716014Y10071354D01*
X6713778Y10074656D01*
X6713016Y10078567D01*
X6713016Y10141407D01*
X6713778Y10145268D01*
X6716014Y10148570D01*
X6719316Y10150805D01*
X6723176Y10151567D01*
X6778345Y10151567D01*
X6782866Y10150500D01*
X6794906Y10144506D01*
X6797954Y10142118D01*
X6799935Y10138765D01*
X6801053Y10135565D01*
X6804152Y10130688D01*
X6808216Y10126573D01*
X6813143Y10123474D01*
X6818579Y10121595D01*
X6824929Y10120884D01*
X6904431Y10120884D01*
X6910730Y10121595D01*
X6916216Y10123474D01*
X6921093Y10126573D01*
X6925208Y10130688D01*
X6928256Y10135565D01*
X6930390Y10141661D01*
X6932523Y10145217D01*
X6935927Y10147604D01*
X6939991Y10148468D01*
X6944055Y10147604D01*
X6947458Y10145217D01*
X6949592Y10141661D01*
X6951725Y10135565D01*
X6954774Y10130688D01*
X6958888Y10126573D01*
X6963765Y10123474D01*
X6969252Y10121595D01*
X6975551Y10120884D01*
X7055053Y10120884D01*
X7061403Y10121595D01*
X7066838Y10123474D01*
X7071766Y10126573D01*
X7075830Y10130688D01*
X7078929Y10135565D01*
X7080808Y10141051D01*
X7081520Y10147350D01*
X7081520Y10232593D01*
X7080808Y10238943D01*
X7078929Y10244378D01*
X7075830Y10249306D01*
X7072884Y10253319D01*
X7072071Y10257129D01*
X7072782Y10260939D01*
X7074814Y10264241D01*
X7078014Y10266527D01*
X7088174Y10271150D01*
X7096201Y10276789D01*
X7103160Y10283748D01*
X7108799Y10291775D01*
X7112965Y10300665D01*
X7115505Y10310164D01*
X7116368Y10319969D01*
X7115505Y10329773D01*
X7112965Y10339273D01*
X7108799Y10348163D01*
X7103160Y10356189D01*
X7096201Y10363149D01*
X7088174Y10368788D01*
X7079284Y10372953D01*
X7069785Y10375493D01*
X7059980Y10376357D01*
X7050176Y10375493D01*
X7040676Y10372953D01*
X7031786Y10368788D01*
X7023760Y10363149D01*
X7018020Y10357408D01*
X7015632Y10355630D01*
X7008622Y10351922D01*
X7002424Y10346842D01*
X6988403Y10332821D01*
X6983323Y10326624D01*
X6979767Y10319969D01*
X6977583Y10312755D01*
X6976821Y10304780D01*
X6976821Y10279024D01*
X6975754Y10274452D01*
X6969201Y10261396D01*
X6966966Y10258450D01*
X6958888Y10253370D01*
X6954774Y10249306D01*
X6951725Y10244378D01*
X6949592Y10238333D01*
X6947458Y10234777D01*
X6944055Y10232339D01*
X6939991Y10231526D01*
X6935927Y10232339D01*
X6932523Y10234777D01*
X6930390Y10238333D01*
X6928256Y10244378D01*
X6925208Y10249306D01*
X6921093Y10253370D01*
X6916216Y10256469D01*
X6910730Y10258399D01*
X6904431Y10259110D01*
X6824929Y10259110D01*
X6818579Y10258399D01*
X6813143Y10256469D01*
X6808216Y10253370D01*
X6804152Y10249306D01*
X6801053Y10244378D01*
X6799935Y10241229D01*
X6797954Y10237825D01*
X6794906Y10235488D01*
X6782866Y10229443D01*
X6778294Y10228376D01*
X6700520Y10228376D01*
X6692544Y10227614D01*
X6685330Y10225430D01*
X6678675Y10221874D01*
X6672478Y10216794D01*
X6647789Y10192105D01*
X6642709Y10185908D01*
X6639153Y10179253D01*
X6636969Y10172039D01*
X6636207Y10164064D01*
X6636207Y10078567D01*
X6635445Y10074656D01*
X6633209Y10071354D01*
X6629908Y10069169D01*
X6626047Y10068407D01*
X4249826Y10068407D01*
X4245356Y10069423D01*
X4233672Y10075062D01*
X4228185Y10078770D01*
X4219295Y10082936D01*
X4209796Y10085476D01*
X4199991Y10086340D01*
X4190187Y10085476D01*
X4180687Y10082936D01*
X4171797Y10078770D01*
X4163771Y10073182D01*
X4156811Y10066223D01*
X4151172Y10058146D01*
X4147007Y10049256D01*
X4144467Y10039756D01*
X4143603Y10029952D01*
X4144467Y10020198D01*
X4147007Y10010698D01*
X4151172Y10001808D01*
X4156811Y9993731D01*
X4158386Y9992156D01*
X4160570Y9988854D01*
X4161383Y9984994D01*
X4160570Y9981082D01*
X4158386Y9977780D01*
X4156811Y9976205D01*
X4151172Y9968179D01*
X4147007Y9959289D01*
X4144467Y9949789D01*
X4143603Y9939985D01*
X4144467Y9930180D01*
X4147058Y9920528D01*
X4147312Y9916363D01*
X4145889Y9912502D01*
X4142994Y9909505D01*
X4133748Y9903104D01*
X4126788Y9896195D01*
X4121200Y9888169D01*
X4117035Y9879279D01*
X4114495Y9869779D01*
X4113631Y9859975D01*
X4114495Y9850170D01*
X4117035Y9840671D01*
X4121200Y9831781D01*
X4126788Y9823754D01*
X4133392Y9817150D01*
X4135577Y9813848D01*
X4136390Y9809988D01*
X4135577Y9806076D01*
X4133392Y9802774D01*
X4126788Y9796221D01*
X4121200Y9788144D01*
X4117035Y9779254D01*
X4114495Y9769754D01*
X4113631Y9759950D01*
X4114495Y9750196D01*
X4117035Y9740696D01*
X4121200Y9731806D01*
X4125010Y9726320D01*
X4126534Y9723120D01*
X4126839Y9719614D01*
X4125925Y9716160D01*
X4123893Y9713315D01*
X4116781Y9706203D01*
X4111193Y9698177D01*
X4107027Y9689287D01*
X4104487Y9679787D01*
X4103624Y9669983D01*
X4104487Y9660178D01*
X4107027Y9650679D01*
X4111193Y9641789D01*
X4116781Y9633762D01*
X4123740Y9626803D01*
X4131818Y9621164D01*
X4140708Y9616998D01*
X4150207Y9614458D01*
X4160012Y9613595D01*
X4169765Y9614458D01*
X4179265Y9616998D01*
X4188155Y9621164D01*
X4193692Y9624872D01*
X4205376Y9630562D01*
X4209796Y9631578D01*
X4309922Y9631578D01*
X4313834Y9630816D01*
X4317136Y9628581D01*
X4318609Y9627108D01*
X4320794Y9623856D01*
X4321556Y9619945D01*
X4321556Y9176004D01*
X4320692Y9171889D01*
X4318254Y9168485D01*
X4314596Y9166352D01*
X4301693Y9162034D01*
X4298492Y9161526D01*
X4191812Y9161526D01*
X4185513Y9160814D01*
X4180027Y9158884D01*
X4175150Y9155836D01*
X4171035Y9151721D01*
X4167987Y9146844D01*
X4166057Y9141358D01*
X4165346Y9135059D01*
X4165346Y8978696D01*
X4166057Y8972397D01*
X4167987Y8966911D01*
X4171035Y8962034D01*
X4175150Y8957919D01*
X4180027Y8954871D01*
X4185513Y8952941D01*
G37*
G36*
X12774117Y8957157D02*
G01*
X12823444Y8957157D01*
X12836956Y8958021D01*
X12849910Y8960612D01*
X12862407Y8964828D01*
X12874244Y8970670D01*
X12885216Y8977985D01*
X12895122Y8986723D01*
X12903860Y8996629D01*
X12911175Y9007602D01*
X12917017Y9019438D01*
X12921234Y9031935D01*
X12923824Y9044889D01*
X12924688Y9058046D01*
X12923824Y9071203D01*
X12921234Y9084157D01*
X12917017Y9096654D01*
X12911175Y9108490D01*
X12903860Y9119463D01*
X12895122Y9129369D01*
X12885216Y9138056D01*
X12874244Y9145422D01*
X12862407Y9151264D01*
X12849910Y9155480D01*
X12836956Y9158071D01*
X12823444Y9158935D01*
X12774117Y9158935D01*
X12760655Y9158071D01*
X12747701Y9155480D01*
X12735204Y9151264D01*
X12723368Y9145422D01*
X12712395Y9138056D01*
X12702438Y9129369D01*
X12693751Y9119463D01*
X12686436Y9108490D01*
X12680594Y9096654D01*
X12676327Y9084157D01*
X12673787Y9071203D01*
X12672923Y9058046D01*
X12673787Y9044889D01*
X12676327Y9031935D01*
X12680594Y9019438D01*
X12686436Y9007602D01*
X12693751Y8996629D01*
X12702438Y8986723D01*
X12712395Y8977985D01*
X12723368Y8970670D01*
X12735204Y8964828D01*
X12747701Y8960612D01*
X12760655Y8958021D01*
G37*
G36*
X13831062Y9066377D02*
G01*
X13868603Y9066377D01*
X13868603Y9103918D01*
X13863726Y9101683D01*
X13853972Y9095384D01*
X13845286Y9087662D01*
X13837919Y9078671D01*
X13831976Y9068714D01*
G37*
G36*
X13931341Y9066377D02*
G01*
X13968882Y9066377D01*
X13965174Y9073794D01*
X13958519Y9083294D01*
X13950442Y9091676D01*
X13941196Y9098737D01*
X13931341Y9104122D01*
G37*
G36*
X2604973Y9179306D02*
G01*
X2615031Y9179306D01*
X2624937Y9180982D01*
X2634437Y9184233D01*
X2643276Y9189008D01*
X2651252Y9195206D01*
X2658059Y9202572D01*
X2663545Y9211005D01*
X2667558Y9220200D01*
X2670048Y9229953D01*
X2670860Y9239961D01*
X2670048Y9250019D01*
X2667558Y9259773D01*
X2662123Y9271812D01*
X2661615Y9274454D01*
X2660904Y9288475D01*
X2660904Y9782302D01*
X2661767Y9786416D01*
X2664206Y9789769D01*
X2667762Y9791903D01*
X2674467Y9794240D01*
X2683306Y9799015D01*
X2691231Y9805162D01*
X2698038Y9812578D01*
X2703525Y9821011D01*
X2707589Y9830206D01*
X2710027Y9839960D01*
X2710891Y9849967D01*
X2710027Y9859975D01*
X2707589Y9869728D01*
X2703525Y9878923D01*
X2698038Y9887356D01*
X2691231Y9894773D01*
X2683306Y9900920D01*
X2674467Y9905695D01*
X2664968Y9908997D01*
X2655011Y9910622D01*
X2645003Y9910622D01*
X2635046Y9908997D01*
X2625547Y9905695D01*
X2616708Y9900920D01*
X2608783Y9894773D01*
X2601976Y9887356D01*
X2596489Y9878923D01*
X2592425Y9869728D01*
X2590749Y9864344D01*
X2589326Y9862362D01*
X2579624Y9851593D01*
X2570988Y9842703D01*
X2568295Y9839198D01*
X2565908Y9835438D01*
X2563876Y9831476D01*
X2562148Y9827412D01*
X2560828Y9823145D01*
X2559862Y9818827D01*
X2559304Y9814407D01*
X2559100Y9809784D01*
X2559100Y9288576D01*
X2558389Y9274505D01*
X2557932Y9271863D01*
X2556459Y9268968D01*
X2552446Y9259773D01*
X2549956Y9250019D01*
X2549144Y9239961D01*
X2549956Y9229953D01*
X2552446Y9220200D01*
X2556459Y9211005D01*
X2561945Y9202572D01*
X2568752Y9195206D01*
X2576728Y9189008D01*
X2585567Y9184233D01*
X2595067Y9180982D01*
G37*
G36*
X16020034Y9196171D02*
G01*
X16035223Y9197086D01*
X16050158Y9199829D01*
X16064687Y9204350D01*
X16078555Y9210598D01*
X16091560Y9218472D01*
X16103498Y9227820D01*
X16114268Y9238589D01*
X16123615Y9250527D01*
X16131489Y9263532D01*
X16137737Y9277400D01*
X16142258Y9291929D01*
X16145001Y9306864D01*
X16145916Y9322054D01*
X16145001Y9337243D01*
X16142258Y9352178D01*
X16137737Y9366707D01*
X16131489Y9380575D01*
X16123615Y9393580D01*
X16114268Y9405518D01*
X16103498Y9416288D01*
X16091560Y9425635D01*
X16078555Y9433509D01*
X16064687Y9439757D01*
X16050158Y9444278D01*
X16035223Y9447022D01*
X16020034Y9447936D01*
X16004844Y9447022D01*
X15989909Y9444278D01*
X15975380Y9439757D01*
X15961512Y9433509D01*
X15948507Y9425635D01*
X15936569Y9416288D01*
X15925800Y9405518D01*
X15916452Y9393580D01*
X15908578Y9380575D01*
X15902330Y9366707D01*
X15897809Y9352178D01*
X15895066Y9337243D01*
X15894151Y9322054D01*
X15895066Y9306864D01*
X15897809Y9291929D01*
X15902330Y9277400D01*
X15908578Y9263532D01*
X15916452Y9250527D01*
X15925800Y9238589D01*
X15936569Y9227820D01*
X15948507Y9218472D01*
X15961512Y9210598D01*
X15975380Y9204350D01*
X15989909Y9199829D01*
X16004844Y9197086D01*
G37*
G36*
X12774117Y9211157D02*
G01*
X12823444Y9211157D01*
X12836956Y9212021D01*
X12849910Y9214612D01*
X12862407Y9218828D01*
X12874244Y9224670D01*
X12885216Y9231985D01*
X12895122Y9240723D01*
X12903860Y9250629D01*
X12911175Y9261602D01*
X12917017Y9273438D01*
X12921234Y9285935D01*
X12923824Y9298889D01*
X12924688Y9312046D01*
X12923824Y9325203D01*
X12921234Y9338157D01*
X12917017Y9350654D01*
X12911175Y9362490D01*
X12903860Y9373463D01*
X12895122Y9383369D01*
X12885216Y9392056D01*
X12874244Y9399422D01*
X12862407Y9405264D01*
X12849910Y9409480D01*
X12836956Y9412071D01*
X12823444Y9412935D01*
X12774117Y9412935D01*
X12760655Y9412071D01*
X12747701Y9409480D01*
X12735204Y9405264D01*
X12723368Y9399422D01*
X12712395Y9392056D01*
X12702438Y9383369D01*
X12693751Y9373463D01*
X12686436Y9362490D01*
X12680594Y9350654D01*
X12676327Y9338157D01*
X12673787Y9325203D01*
X12672923Y9312046D01*
X12673787Y9298889D01*
X12676327Y9285935D01*
X12680594Y9273438D01*
X12686436Y9261602D01*
X12693751Y9250629D01*
X12702438Y9240723D01*
X12712395Y9231985D01*
X12723368Y9224670D01*
X12735204Y9218828D01*
X12747701Y9214612D01*
X12760655Y9212021D01*
G37*
G36*
X13617143Y9216390D02*
G01*
X13624407Y9218828D01*
X13636244Y9224670D01*
X13647216Y9231985D01*
X13657122Y9240723D01*
X13665860Y9250629D01*
X13673175Y9261602D01*
X13676426Y9268206D01*
X13617143Y9268206D01*
G37*
G36*
X14358619Y9255861D02*
G01*
X14358619Y9293555D01*
X14321078Y9293555D01*
X14324736Y9286138D01*
X14331442Y9276638D01*
X14339468Y9268256D01*
X14348713Y9261246D01*
G37*
G36*
X14421307Y9256064D02*
G01*
X14426234Y9258249D01*
X14435988Y9264599D01*
X14444624Y9272320D01*
X14452041Y9281261D01*
X14457984Y9291269D01*
X14458899Y9293555D01*
X14421307Y9293555D01*
G37*
G36*
X12229947Y9327438D02*
G01*
X12242139Y9328302D01*
X12254026Y9330893D01*
X12265507Y9335160D01*
X12276226Y9341002D01*
X12285980Y9348317D01*
X12294616Y9356953D01*
X12301931Y9366707D01*
X12307773Y9377426D01*
X12312040Y9388856D01*
X12314631Y9400794D01*
X12315494Y9412986D01*
X12314631Y9425178D01*
X12312040Y9437116D01*
X12307773Y9448546D01*
X12301931Y9459264D01*
X12294616Y9469018D01*
X12285980Y9477654D01*
X12276226Y9484969D01*
X12265507Y9490811D01*
X12254026Y9495078D01*
X12242139Y9497669D01*
X12229947Y9498533D01*
X12217755Y9497669D01*
X12205817Y9495078D01*
X12194387Y9490811D01*
X12183668Y9484969D01*
X12173915Y9477654D01*
X12165279Y9469018D01*
X12157964Y9459264D01*
X12152122Y9448546D01*
X12147854Y9437116D01*
X12145264Y9425178D01*
X12144349Y9412986D01*
X12145264Y9400794D01*
X12147854Y9388856D01*
X12152122Y9377426D01*
X12157964Y9366707D01*
X12165279Y9356953D01*
X12173915Y9348317D01*
X12183668Y9341002D01*
X12194387Y9335160D01*
X12205817Y9330893D01*
X12217755Y9328302D01*
G37*
G36*
X13617143Y9355886D02*
G01*
X13676426Y9355886D01*
X13673175Y9362490D01*
X13665860Y9373463D01*
X13657122Y9383369D01*
X13647216Y9392056D01*
X13636244Y9399422D01*
X13624407Y9405264D01*
X13617143Y9407702D01*
G37*
G36*
X14321078Y9356293D02*
G01*
X14358619Y9356293D01*
X14358619Y9391751D01*
X14359585Y9396069D01*
X14362328Y9399574D01*
X14366290Y9401556D01*
X14370710Y9401708D01*
X14381276Y9399676D01*
X14392859Y9399219D01*
X14404441Y9400540D01*
X14408454Y9401657D01*
X14412163Y9401962D01*
X14415719Y9400946D01*
X14418716Y9398660D01*
X14420646Y9395510D01*
X14421307Y9391853D01*
X14421307Y9356293D01*
X14458899Y9356293D01*
X14457984Y9358579D01*
X14452041Y9368586D01*
X14444624Y9377527D01*
X14435988Y9385249D01*
X14426438Y9391446D01*
X14423542Y9394240D01*
X14421967Y9397949D01*
X14421967Y9402013D01*
X14423542Y9405721D01*
X14426438Y9408515D01*
X14435988Y9414713D01*
X14444624Y9422434D01*
X14452041Y9431375D01*
X14457984Y9441383D01*
X14462302Y9452152D01*
X14464944Y9463430D01*
X14465858Y9475012D01*
X14464944Y9486646D01*
X14462302Y9497923D01*
X14457984Y9508693D01*
X14452041Y9518700D01*
X14444624Y9527641D01*
X14435988Y9535363D01*
X14426234Y9541713D01*
X14415617Y9546437D01*
X14404441Y9549536D01*
X14392859Y9550857D01*
X14381276Y9550400D01*
X14369846Y9548215D01*
X14358924Y9544253D01*
X14348713Y9538716D01*
X14339468Y9531705D01*
X14331442Y9523323D01*
X14324736Y9513824D01*
X14319605Y9503410D01*
X14316100Y9492335D01*
X14314322Y9480854D01*
X14314322Y9469221D01*
X14316100Y9457740D01*
X14319605Y9446666D01*
X14324736Y9436252D01*
X14331442Y9426752D01*
X14339468Y9418370D01*
X14348713Y9411360D01*
X14353235Y9408922D01*
X14356486Y9406077D01*
X14358315Y9402165D01*
X14358315Y9397796D01*
X14356486Y9393885D01*
X14353235Y9391040D01*
X14348713Y9388602D01*
X14339468Y9381591D01*
X14331442Y9373209D01*
X14324736Y9363710D01*
G37*
G36*
X1257249Y9429140D02*
G01*
X1266342Y9429546D01*
X1275232Y9431578D01*
X1283614Y9435134D01*
X1291234Y9440164D01*
X1297838Y9446463D01*
X1303172Y9453829D01*
X1307134Y9462058D01*
X1309573Y9470847D01*
X1310386Y9479940D01*
X1309573Y9489033D01*
X1307134Y9497822D01*
X1303172Y9506051D01*
X1297838Y9513417D01*
X1291234Y9519716D01*
X1283614Y9524746D01*
X1275232Y9528302D01*
X1266342Y9530334D01*
X1257249Y9530740D01*
X1248206Y9529521D01*
X1239520Y9526727D01*
X1231493Y9522409D01*
X1224381Y9516719D01*
X1218336Y9509861D01*
X1213662Y9501987D01*
X1210462Y9493453D01*
X1208836Y9484512D01*
X1208836Y9475368D01*
X1210462Y9466427D01*
X1213662Y9457893D01*
X1218336Y9450019D01*
X1224381Y9443161D01*
X1231493Y9437471D01*
X1239520Y9433153D01*
X1248206Y9430359D01*
G37*
G36*
X11794896Y9454083D02*
G01*
X11806478Y9454997D01*
X11817807Y9457639D01*
X11828576Y9461957D01*
X11838584Y9467900D01*
X11847525Y9475317D01*
X11855246Y9484004D01*
X11861444Y9493554D01*
X11864238Y9496399D01*
X11867946Y9497974D01*
X11872010Y9497974D01*
X11875668Y9496399D01*
X11878513Y9493554D01*
X11884710Y9484004D01*
X11892432Y9475317D01*
X11901373Y9467900D01*
X11911380Y9461957D01*
X11922150Y9457639D01*
X11933428Y9454997D01*
X11945010Y9454083D01*
X11956592Y9454997D01*
X11967921Y9457639D01*
X11978690Y9461957D01*
X11988698Y9467900D01*
X11997639Y9475317D01*
X12005360Y9484004D01*
X12011710Y9493707D01*
X12016435Y9504324D01*
X12019534Y9515551D01*
X12020854Y9527082D01*
X12020397Y9538665D01*
X12018213Y9550095D01*
X12014250Y9561017D01*
X12008713Y9571228D01*
X12001703Y9580473D01*
X11993321Y9588500D01*
X11983821Y9595205D01*
X11973407Y9600336D01*
X11962333Y9603841D01*
X11950852Y9605619D01*
X11939219Y9605619D01*
X11927738Y9603841D01*
X11916664Y9600336D01*
X11906250Y9595205D01*
X11896750Y9588500D01*
X11888368Y9580473D01*
X11881358Y9571228D01*
X11878919Y9566757D01*
X11876074Y9563455D01*
X11872163Y9561677D01*
X11867794Y9561677D01*
X11863882Y9563455D01*
X11861038Y9566757D01*
X11858599Y9571228D01*
X11851589Y9580473D01*
X11843207Y9588500D01*
X11833707Y9595205D01*
X11823293Y9600336D01*
X11812219Y9603841D01*
X11800738Y9605619D01*
X11789105Y9605619D01*
X11777624Y9603841D01*
X11766550Y9600336D01*
X11756136Y9595205D01*
X11746636Y9588500D01*
X11738254Y9580473D01*
X11731244Y9571228D01*
X11725656Y9561017D01*
X11721744Y9550095D01*
X11719560Y9538665D01*
X11719102Y9527082D01*
X11720423Y9515551D01*
X11723522Y9504324D01*
X11728246Y9493707D01*
X11734596Y9484004D01*
X11742318Y9475317D01*
X11751259Y9467900D01*
X11761266Y9461957D01*
X11772036Y9457639D01*
X11783314Y9454997D01*
G37*
G36*
X12774117Y9465157D02*
G01*
X12823444Y9465157D01*
X12836956Y9466021D01*
X12849910Y9468612D01*
X12862407Y9472828D01*
X12874244Y9478670D01*
X12885216Y9485985D01*
X12895122Y9494723D01*
X12903860Y9504629D01*
X12911175Y9515602D01*
X12917017Y9527438D01*
X12921234Y9539935D01*
X12923824Y9552889D01*
X12924688Y9566046D01*
X12923824Y9579203D01*
X12921234Y9592157D01*
X12917017Y9604654D01*
X12911175Y9616490D01*
X12903860Y9627463D01*
X12895122Y9637369D01*
X12885216Y9646056D01*
X12874244Y9653422D01*
X12862407Y9659264D01*
X12849910Y9663480D01*
X12836956Y9666071D01*
X12823444Y9666935D01*
X12774117Y9666935D01*
X12760655Y9666071D01*
X12747701Y9663480D01*
X12735204Y9659264D01*
X12723368Y9653422D01*
X12712395Y9646056D01*
X12702438Y9637369D01*
X12693751Y9627463D01*
X12686436Y9616490D01*
X12680594Y9604654D01*
X12676327Y9592157D01*
X12673787Y9579203D01*
X12672923Y9566046D01*
X12673787Y9552889D01*
X12676327Y9539935D01*
X12680594Y9527438D01*
X12686436Y9515602D01*
X12693751Y9504629D01*
X12702438Y9494723D01*
X12712395Y9485985D01*
X12723368Y9478670D01*
X12735204Y9472828D01*
X12747701Y9468612D01*
X12760655Y9466021D01*
G37*
G36*
X2240026Y9553600D02*
G01*
X2249779Y9554464D01*
X2259279Y9557004D01*
X2268169Y9561169D01*
X2276246Y9566808D01*
X2283206Y9573768D01*
X2288794Y9581794D01*
X2292959Y9590684D01*
X2295499Y9600184D01*
X2296363Y9609988D01*
X2295499Y9619792D01*
X2292959Y9629292D01*
X2288794Y9638182D01*
X2283206Y9646208D01*
X2281377Y9648037D01*
X2279192Y9651339D01*
X2278380Y9655200D01*
X2278380Y9790125D01*
X2279446Y9794595D01*
X2285085Y9806279D01*
X2288794Y9811816D01*
X2292959Y9820706D01*
X2295499Y9830206D01*
X2296363Y9839960D01*
X2295499Y9849764D01*
X2292959Y9859264D01*
X2288794Y9868154D01*
X2283206Y9876231D01*
X2276246Y9883190D01*
X2268169Y9888778D01*
X2259279Y9892944D01*
X2249779Y9895484D01*
X2240026Y9896348D01*
X2230221Y9895484D01*
X2220722Y9892944D01*
X2211832Y9888778D01*
X2203754Y9883190D01*
X2196795Y9876231D01*
X2191207Y9868154D01*
X2187041Y9859264D01*
X2184501Y9849764D01*
X2183638Y9839960D01*
X2184501Y9830206D01*
X2187041Y9820706D01*
X2191207Y9811816D01*
X2194915Y9806279D01*
X2200554Y9794595D01*
X2201570Y9790176D01*
X2201570Y9655200D01*
X2200808Y9651288D01*
X2198624Y9648037D01*
X2196795Y9646208D01*
X2191207Y9638182D01*
X2187041Y9629292D01*
X2184501Y9619792D01*
X2183638Y9609988D01*
X2184501Y9600184D01*
X2187041Y9590684D01*
X2191207Y9581794D01*
X2196795Y9573768D01*
X2203754Y9566808D01*
X2211832Y9561169D01*
X2220722Y9557004D01*
X2230221Y9554464D01*
G37*
G36*
X12266117Y9589516D02*
G01*
X12276226Y9595002D01*
X12285980Y9602317D01*
X12294616Y9610953D01*
X12301931Y9620707D01*
X12307417Y9630765D01*
X12266117Y9630765D01*
G37*
G36*
X12193727Y9589516D02*
G01*
X12193727Y9630765D01*
X12152477Y9630765D01*
X12157964Y9620707D01*
X12165279Y9610953D01*
X12173915Y9602317D01*
X12183668Y9595002D01*
G37*
G36*
X12152477Y9703155D02*
G01*
X12193727Y9703155D01*
X12193727Y9744456D01*
X12183668Y9738969D01*
X12173915Y9731654D01*
X12165279Y9723018D01*
X12157964Y9713264D01*
G37*
G36*
X12266117Y9703155D02*
G01*
X12307417Y9703155D01*
X12301931Y9713264D01*
X12294616Y9723018D01*
X12285980Y9731654D01*
X12276226Y9738969D01*
X12266117Y9744456D01*
G37*
G36*
X15963696Y9717633D02*
G01*
X15963696Y9773716D01*
X15907613Y9773716D01*
X15908578Y9771532D01*
X15916452Y9758527D01*
X15925800Y9746589D01*
X15936569Y9735820D01*
X15948507Y9726472D01*
X15961512Y9718598D01*
G37*
G36*
X16076371Y9717633D02*
G01*
X16078555Y9718598D01*
X16091560Y9726472D01*
X16103498Y9735820D01*
X16114268Y9746589D01*
X16123615Y9758527D01*
X16131489Y9771532D01*
X16132454Y9773716D01*
X16076371Y9773716D01*
G37*
G36*
X12742468Y9724390D02*
G01*
X12742468Y9776206D01*
X12683185Y9776206D01*
X12686436Y9769602D01*
X12693751Y9758629D01*
X12702438Y9748723D01*
X12712395Y9739985D01*
X12723368Y9732670D01*
X12735204Y9726828D01*
G37*
G36*
X12855143Y9724390D02*
G01*
X12862407Y9726828D01*
X12874244Y9732670D01*
X12885216Y9739985D01*
X12895122Y9748723D01*
X12903860Y9758629D01*
X12911175Y9769602D01*
X12914426Y9776206D01*
X12855143Y9776206D01*
G37*
G36*
X1257249Y9829139D02*
G01*
X1266342Y9829546D01*
X1275232Y9831578D01*
X1283614Y9835134D01*
X1291234Y9840163D01*
X1297838Y9846462D01*
X1303172Y9853828D01*
X1307134Y9862058D01*
X1309573Y9870846D01*
X1310386Y9879939D01*
X1309573Y9889032D01*
X1307134Y9897821D01*
X1303172Y9906050D01*
X1297838Y9913416D01*
X1291234Y9919716D01*
X1283614Y9924745D01*
X1275232Y9928301D01*
X1266342Y9930333D01*
X1257249Y9930739D01*
X1248206Y9929520D01*
X1239520Y9926726D01*
X1231493Y9922408D01*
X1224381Y9916718D01*
X1218336Y9909860D01*
X1213662Y9901986D01*
X1210462Y9893452D01*
X1208836Y9884511D01*
X1208836Y9875367D01*
X1210462Y9866426D01*
X1213662Y9857892D01*
X1218336Y9850018D01*
X1224381Y9843160D01*
X1231493Y9837470D01*
X1239520Y9833152D01*
X1248206Y9830358D01*
G37*
G36*
X12683185Y9863886D02*
G01*
X12742468Y9863886D01*
X12742468Y9915702D01*
X12735204Y9913264D01*
X12723368Y9907422D01*
X12712395Y9900056D01*
X12702438Y9891369D01*
X12693751Y9881463D01*
X12686436Y9870490D01*
G37*
G36*
X12855143Y9863886D02*
G01*
X12914426Y9863886D01*
X12911175Y9870490D01*
X12903860Y9881463D01*
X12895122Y9891369D01*
X12885216Y9900056D01*
X12874244Y9907422D01*
X12862407Y9913264D01*
X12855143Y9915702D01*
G37*
G36*
X16076371Y9886391D02*
G01*
X16132454Y9886391D01*
X16131489Y9888575D01*
X16123615Y9901580D01*
X16114268Y9913518D01*
X16103498Y9924288D01*
X16091560Y9933635D01*
X16078555Y9941509D01*
X16076371Y9942474D01*
G37*
G36*
X15907613Y9886391D02*
G01*
X15963696Y9886391D01*
X15963696Y9942474D01*
X15961512Y9941509D01*
X15948507Y9933635D01*
X15936569Y9924288D01*
X15925800Y9913518D01*
X15916452Y9901580D01*
X15908578Y9888575D01*
G37*
G36*
X12266117Y9919716D02*
G01*
X12276226Y9925202D01*
X12285980Y9932517D01*
X12294616Y9941153D01*
X12301931Y9950907D01*
X12307417Y9960965D01*
X12266117Y9960965D01*
G37*
G36*
X12193727Y9919716D02*
G01*
X12193727Y9960965D01*
X12152477Y9960965D01*
X12157964Y9950907D01*
X12165279Y9941153D01*
X12173915Y9932517D01*
X12183668Y9925202D01*
G37*
G36*
X12774117Y9973157D02*
G01*
X12823444Y9973157D01*
X12836956Y9974021D01*
X12849910Y9976612D01*
X12862407Y9980828D01*
X12874244Y9986670D01*
X12885216Y9993985D01*
X12895122Y10002723D01*
X12903860Y10012629D01*
X12911175Y10023602D01*
X12917017Y10035438D01*
X12921234Y10047935D01*
X12923824Y10060889D01*
X12924688Y10074046D01*
X12923824Y10087203D01*
X12921234Y10100157D01*
X12917017Y10112654D01*
X12911175Y10124490D01*
X12903860Y10135463D01*
X12895122Y10145369D01*
X12885216Y10154056D01*
X12874244Y10161422D01*
X12862407Y10167264D01*
X12849910Y10171480D01*
X12836956Y10174071D01*
X12823444Y10174935D01*
X12774117Y10174935D01*
X12760655Y10174071D01*
X12747701Y10171480D01*
X12735204Y10167264D01*
X12723368Y10161422D01*
X12712395Y10154056D01*
X12702438Y10145369D01*
X12693751Y10135463D01*
X12686436Y10124490D01*
X12680594Y10112654D01*
X12676327Y10100157D01*
X12673787Y10087203D01*
X12672923Y10074046D01*
X12673787Y10060889D01*
X12676327Y10047935D01*
X12680594Y10035438D01*
X12686436Y10023602D01*
X12693751Y10012629D01*
X12702438Y10002723D01*
X12712395Y9993985D01*
X12723368Y9986670D01*
X12735204Y9980828D01*
X12747701Y9976612D01*
X12760655Y9974021D01*
G37*
G36*
X13536117Y9973157D02*
G01*
X13585444Y9973157D01*
X13598956Y9974021D01*
X13611910Y9976612D01*
X13624407Y9980828D01*
X13636244Y9986670D01*
X13647216Y9993985D01*
X13657122Y10002723D01*
X13665860Y10012629D01*
X13673175Y10023602D01*
X13679017Y10035438D01*
X13683234Y10047935D01*
X13685824Y10060889D01*
X13686688Y10074046D01*
X13685824Y10087203D01*
X13683234Y10100157D01*
X13679017Y10112654D01*
X13673175Y10124490D01*
X13665860Y10135463D01*
X13657122Y10145369D01*
X13647216Y10154056D01*
X13636244Y10161422D01*
X13624407Y10167264D01*
X13611910Y10171480D01*
X13598956Y10174071D01*
X13585444Y10174935D01*
X13536117Y10174935D01*
X13522655Y10174071D01*
X13509701Y10171480D01*
X13497204Y10167264D01*
X13485368Y10161422D01*
X13474395Y10154056D01*
X13464438Y10145369D01*
X13455751Y10135463D01*
X13448436Y10124490D01*
X13442594Y10112654D01*
X13438327Y10100157D01*
X13435787Y10087203D01*
X13434923Y10074046D01*
X13435787Y10060889D01*
X13438327Y10047935D01*
X13442594Y10035438D01*
X13448436Y10023602D01*
X13455751Y10012629D01*
X13464438Y10002723D01*
X13474395Y9993985D01*
X13485368Y9986670D01*
X13497204Y9980828D01*
X13509701Y9976612D01*
X13522655Y9974021D01*
G37*
G36*
X12152477Y10033355D02*
G01*
X12193727Y10033355D01*
X12193727Y10074656D01*
X12183668Y10069169D01*
X12173915Y10061854D01*
X12165279Y10053218D01*
X12157964Y10043464D01*
G37*
G36*
X12266117Y10033355D02*
G01*
X12307417Y10033355D01*
X12301931Y10043464D01*
X12294616Y10053218D01*
X12285980Y10061854D01*
X12276226Y10069169D01*
X12266117Y10074656D01*
G37*
G36*
X11784939Y10064089D02*
G01*
X11796522Y10065004D01*
X11807799Y10067645D01*
X11818569Y10071963D01*
X11828576Y10077907D01*
X11837517Y10085324D01*
X11845290Y10093960D01*
X11851436Y10103510D01*
X11854281Y10106406D01*
X11857990Y10107980D01*
X11862003Y10107980D01*
X11865711Y10106406D01*
X11868505Y10103510D01*
X11874703Y10093960D01*
X11882424Y10085324D01*
X11891365Y10077907D01*
X11901373Y10071963D01*
X11912142Y10067645D01*
X11923471Y10065004D01*
X11935053Y10064089D01*
X11946636Y10065004D01*
X11957913Y10067645D01*
X11968683Y10071963D01*
X11978690Y10077907D01*
X11987631Y10085324D01*
X11995404Y10093960D01*
X12001703Y10103713D01*
X12006427Y10114330D01*
X12009526Y10125557D01*
X12010847Y10137089D01*
X12010390Y10148671D01*
X12008205Y10160101D01*
X12004294Y10171023D01*
X11998706Y10181234D01*
X11991695Y10190480D01*
X11983313Y10198506D01*
X11973814Y10205212D01*
X11963400Y10210342D01*
X11952325Y10213848D01*
X11940844Y10215626D01*
X11929211Y10215626D01*
X11917730Y10213848D01*
X11906656Y10210342D01*
X11896242Y10205212D01*
X11886742Y10198506D01*
X11878411Y10190480D01*
X11871350Y10181234D01*
X11868912Y10176713D01*
X11866067Y10173462D01*
X11862155Y10171684D01*
X11857837Y10171684D01*
X11853875Y10173462D01*
X11851030Y10176713D01*
X11848592Y10181234D01*
X11841581Y10190480D01*
X11833199Y10198506D01*
X11823700Y10205212D01*
X11813286Y10210342D01*
X11802211Y10213848D01*
X11790730Y10215626D01*
X11779097Y10215626D01*
X11767616Y10213848D01*
X11756542Y10210342D01*
X11746128Y10205212D01*
X11736628Y10198506D01*
X11728297Y10190480D01*
X11721236Y10181234D01*
X11715699Y10171023D01*
X11711736Y10160101D01*
X11709552Y10148671D01*
X11709095Y10137089D01*
X11710416Y10125557D01*
X11713514Y10114330D01*
X11718239Y10103713D01*
X11724589Y10093960D01*
X11732310Y10085324D01*
X11741251Y10077907D01*
X11751259Y10071963D01*
X11762028Y10067645D01*
X11773357Y10065004D01*
G37*
G36*
X14358619Y10115854D02*
G01*
X14358619Y10153548D01*
X14321078Y10153548D01*
X14324736Y10146131D01*
X14331442Y10136632D01*
X14339468Y10128250D01*
X14348713Y10121239D01*
G37*
G36*
X14421307Y10116058D02*
G01*
X14426234Y10118242D01*
X14435988Y10124592D01*
X14444624Y10132314D01*
X14452041Y10141254D01*
X14457984Y10151262D01*
X14458899Y10153548D01*
X14421307Y10153548D01*
G37*
G36*
X12229947Y10165638D02*
G01*
X12242139Y10166502D01*
X12254026Y10169093D01*
X12265507Y10173360D01*
X12276226Y10179202D01*
X12285980Y10186517D01*
X12294616Y10195153D01*
X12301931Y10204907D01*
X12307773Y10215626D01*
X12312040Y10227056D01*
X12314631Y10238994D01*
X12315494Y10251186D01*
X12314631Y10263378D01*
X12312040Y10275316D01*
X12307773Y10286746D01*
X12301931Y10297464D01*
X12294616Y10307218D01*
X12285980Y10315854D01*
X12276226Y10323169D01*
X12265507Y10329011D01*
X12254026Y10333278D01*
X12242139Y10335869D01*
X12229947Y10336733D01*
X12217755Y10335869D01*
X12205817Y10333278D01*
X12194387Y10329011D01*
X12183668Y10323169D01*
X12173915Y10315854D01*
X12165279Y10307218D01*
X12157964Y10297464D01*
X12152122Y10286746D01*
X12147854Y10275316D01*
X12145264Y10263378D01*
X12144349Y10251186D01*
X12145264Y10238994D01*
X12147854Y10227056D01*
X12152122Y10215626D01*
X12157964Y10204907D01*
X12165279Y10195153D01*
X12173915Y10186517D01*
X12183668Y10179202D01*
X12194387Y10173360D01*
X12205817Y10169093D01*
X12217755Y10166502D01*
G37*
G36*
X16020034Y10212171D02*
G01*
X16035223Y10213086D01*
X16050158Y10215829D01*
X16064687Y10220350D01*
X16078555Y10226598D01*
X16091560Y10234472D01*
X16103498Y10243820D01*
X16114268Y10254589D01*
X16123615Y10266527D01*
X16131489Y10279532D01*
X16137737Y10293400D01*
X16142258Y10307929D01*
X16145001Y10322864D01*
X16145916Y10338054D01*
X16145001Y10353243D01*
X16142258Y10368178D01*
X16137737Y10382707D01*
X16131489Y10396575D01*
X16123615Y10409580D01*
X16114268Y10421518D01*
X16103498Y10432288D01*
X16091560Y10441635D01*
X16078555Y10449509D01*
X16064687Y10455757D01*
X16050158Y10460278D01*
X16035223Y10463022D01*
X16020034Y10463936D01*
X16004844Y10463022D01*
X15989909Y10460278D01*
X15975380Y10455757D01*
X15961512Y10449509D01*
X15948507Y10441635D01*
X15936569Y10432288D01*
X15925800Y10421518D01*
X15916452Y10409580D01*
X15908578Y10396575D01*
X15902330Y10382707D01*
X15897809Y10368178D01*
X15895066Y10353243D01*
X15894151Y10338054D01*
X15895066Y10322864D01*
X15897809Y10307929D01*
X15902330Y10293400D01*
X15908578Y10279532D01*
X15916452Y10266527D01*
X15925800Y10254589D01*
X15936569Y10243820D01*
X15948507Y10234472D01*
X15961512Y10226598D01*
X15975380Y10220350D01*
X15989909Y10215829D01*
X16004844Y10213086D01*
G37*
G36*
X14321078Y10216286D02*
G01*
X14358619Y10216286D01*
X14358619Y10251744D01*
X14359585Y10256062D01*
X14362328Y10259568D01*
X14366290Y10261600D01*
X14370710Y10261701D01*
X14381276Y10259669D01*
X14392859Y10259212D01*
X14404441Y10260533D01*
X14408454Y10261650D01*
X14412163Y10261955D01*
X14415719Y10260939D01*
X14418716Y10258704D01*
X14420646Y10255504D01*
X14421307Y10251846D01*
X14421307Y10216286D01*
X14458899Y10216286D01*
X14457984Y10218572D01*
X14452041Y10228580D01*
X14444624Y10237520D01*
X14435988Y10245242D01*
X14426438Y10251440D01*
X14423542Y10254284D01*
X14421967Y10257993D01*
X14421967Y10262006D01*
X14423542Y10265714D01*
X14426438Y10268508D01*
X14435988Y10274706D01*
X14444624Y10282428D01*
X14452041Y10291368D01*
X14457984Y10301376D01*
X14462302Y10312146D01*
X14464944Y10323474D01*
X14465858Y10335056D01*
X14464944Y10346639D01*
X14462302Y10357916D01*
X14457984Y10368686D01*
X14452041Y10378694D01*
X14444624Y10387634D01*
X14435988Y10395356D01*
X14426234Y10401706D01*
X14415617Y10406430D01*
X14404441Y10409529D01*
X14392859Y10410850D01*
X14381276Y10410393D01*
X14369846Y10408208D01*
X14358924Y10404297D01*
X14348713Y10398709D01*
X14339468Y10391698D01*
X14331442Y10383316D01*
X14324736Y10373817D01*
X14319605Y10363403D01*
X14316100Y10352328D01*
X14314322Y10340848D01*
X14314322Y10329214D01*
X14316100Y10317734D01*
X14319605Y10306659D01*
X14324736Y10296245D01*
X14331442Y10286746D01*
X14339468Y10278364D01*
X14348713Y10271353D01*
X14353235Y10268915D01*
X14356486Y10266070D01*
X14358315Y10262158D01*
X14358315Y10257840D01*
X14356486Y10253878D01*
X14353235Y10251033D01*
X14348713Y10248595D01*
X14339468Y10241584D01*
X14331442Y10233202D01*
X14324736Y10223703D01*
G37*
G36*
X12774117Y10227157D02*
G01*
X12823444Y10227157D01*
X12836956Y10228021D01*
X12849910Y10230612D01*
X12862407Y10234828D01*
X12874244Y10240670D01*
X12885216Y10247985D01*
X12895122Y10256723D01*
X12903860Y10266629D01*
X12911175Y10277602D01*
X12917017Y10289438D01*
X12921234Y10301935D01*
X12923824Y10314889D01*
X12924688Y10328046D01*
X12923824Y10341203D01*
X12921234Y10354157D01*
X12917017Y10366654D01*
X12911175Y10378490D01*
X12903860Y10389463D01*
X12895122Y10399369D01*
X12885216Y10408056D01*
X12874244Y10415422D01*
X12862407Y10421264D01*
X12849910Y10425480D01*
X12836956Y10428071D01*
X12823444Y10428935D01*
X12774117Y10428935D01*
X12760655Y10428071D01*
X12747701Y10425480D01*
X12735204Y10421264D01*
X12723368Y10415422D01*
X12712395Y10408056D01*
X12702438Y10399369D01*
X12693751Y10389463D01*
X12686436Y10378490D01*
X12680594Y10366654D01*
X12676327Y10354157D01*
X12673787Y10341203D01*
X12672923Y10328046D01*
X12673787Y10314889D01*
X12676327Y10301935D01*
X12680594Y10289438D01*
X12686436Y10277602D01*
X12693751Y10266629D01*
X12702438Y10256723D01*
X12712395Y10247985D01*
X12723368Y10240670D01*
X12735204Y10234828D01*
X12747701Y10230612D01*
X12760655Y10228021D01*
G37*
G36*
X13504468Y10232390D02*
G01*
X13504468Y10284206D01*
X13445185Y10284206D01*
X13448436Y10277602D01*
X13455751Y10266629D01*
X13464438Y10256723D01*
X13474395Y10247985D01*
X13485368Y10240670D01*
X13497204Y10234828D01*
G37*
G36*
X13617143Y10232390D02*
G01*
X13624407Y10234828D01*
X13636244Y10240670D01*
X13647216Y10247985D01*
X13657122Y10256723D01*
X13665860Y10266629D01*
X13673175Y10277602D01*
X13676426Y10284206D01*
X13617143Y10284206D01*
G37*
G36*
X13445185Y10371886D02*
G01*
X13504468Y10371886D01*
X13504468Y10423702D01*
X13497204Y10421264D01*
X13485368Y10415422D01*
X13474395Y10408056D01*
X13464438Y10399369D01*
X13455751Y10389463D01*
X13448436Y10378490D01*
G37*
G36*
X13617143Y10371886D02*
G01*
X13676426Y10371886D01*
X13673175Y10378490D01*
X13665860Y10389463D01*
X13657122Y10399369D01*
X13647216Y10408056D01*
X13636244Y10415422D01*
X13624407Y10421264D01*
X13617143Y10423702D01*
G37*
G36*
X5784951Y10459313D02*
G01*
X5795010Y10459313D01*
X5804916Y10460939D01*
X5814415Y10464241D01*
X5819800Y10467136D01*
X5824118Y10468356D01*
X5838494Y10469067D01*
X6999579Y10469067D01*
X7004202Y10469270D01*
X7008622Y10469829D01*
X7012940Y10470794D01*
X7017207Y10472115D01*
X7021271Y10473842D01*
X7025233Y10475874D01*
X7028992Y10478262D01*
X7032498Y10480954D01*
X7035952Y10484104D01*
X7297978Y10746181D01*
X7301280Y10748416D01*
X7305192Y10749178D01*
X10071303Y10749178D01*
X10085628Y10748467D01*
X10089946Y10747248D01*
X10095534Y10744250D01*
X10105034Y10740948D01*
X10114940Y10739323D01*
X10124998Y10739323D01*
X10134904Y10740948D01*
X10144404Y10744250D01*
X10153243Y10749026D01*
X10161219Y10755172D01*
X10168026Y10762589D01*
X10173512Y10771022D01*
X10177526Y10780217D01*
X10180015Y10789970D01*
X10180828Y10799978D01*
X10180015Y10809986D01*
X10177526Y10819739D01*
X10173512Y10828934D01*
X10168026Y10837367D01*
X10161219Y10844784D01*
X10153243Y10850930D01*
X10144404Y10855706D01*
X10134904Y10859008D01*
X10124998Y10860633D01*
X10114940Y10860633D01*
X10105034Y10859008D01*
X10095534Y10855706D01*
X10090302Y10852912D01*
X10085933Y10851692D01*
X10071506Y10850981D01*
X7280097Y10850981D01*
X7275474Y10850778D01*
X7271054Y10850219D01*
X7266736Y10849254D01*
X7262469Y10847933D01*
X7258405Y10846206D01*
X7254443Y10844174D01*
X7250684Y10841786D01*
X7247178Y10839094D01*
X7243724Y10835944D01*
X6981647Y10573867D01*
X6978396Y10571632D01*
X6974484Y10570870D01*
X5838596Y10570870D01*
X5824169Y10571581D01*
X5819851Y10572800D01*
X5814415Y10575696D01*
X5804916Y10578998D01*
X5795010Y10580624D01*
X5784951Y10580624D01*
X5775045Y10578998D01*
X5765546Y10575696D01*
X5756706Y10570921D01*
X5748731Y10564774D01*
X5741924Y10557357D01*
X5736437Y10548924D01*
X5732424Y10539730D01*
X5729935Y10529976D01*
X5729122Y10519968D01*
X5729935Y10509961D01*
X5732424Y10500207D01*
X5736437Y10491012D01*
X5741924Y10482580D01*
X5748731Y10475163D01*
X5756706Y10469016D01*
X5765546Y10464241D01*
X5775045Y10460939D01*
G37*
G36*
X13536117Y10481157D02*
G01*
X13585444Y10481157D01*
X13598956Y10482021D01*
X13611910Y10484612D01*
X13624407Y10488828D01*
X13636244Y10494670D01*
X13647216Y10501985D01*
X13657122Y10510723D01*
X13665860Y10520629D01*
X13673175Y10531602D01*
X13679017Y10543438D01*
X13683234Y10555935D01*
X13685824Y10568889D01*
X13686688Y10582046D01*
X13685824Y10595203D01*
X13683234Y10608157D01*
X13679017Y10620654D01*
X13673175Y10632490D01*
X13665860Y10643463D01*
X13657122Y10653369D01*
X13647216Y10662056D01*
X13636244Y10669422D01*
X13624407Y10675264D01*
X13611910Y10679480D01*
X13598956Y10682071D01*
X13585444Y10682935D01*
X13536117Y10682935D01*
X13522655Y10682071D01*
X13509701Y10679480D01*
X13497204Y10675264D01*
X13485368Y10669422D01*
X13474395Y10662056D01*
X13464438Y10653369D01*
X13455751Y10643463D01*
X13448436Y10632490D01*
X13442594Y10620654D01*
X13438327Y10608157D01*
X13435787Y10595203D01*
X13434923Y10582046D01*
X13435787Y10568889D01*
X13438327Y10555935D01*
X13442594Y10543438D01*
X13448436Y10531602D01*
X13455751Y10520629D01*
X13464438Y10510723D01*
X13474395Y10501985D01*
X13485368Y10494670D01*
X13497204Y10488828D01*
X13509701Y10484612D01*
X13522655Y10482021D01*
G37*
G36*
X12699390Y10481157D02*
G01*
X12898221Y10481157D01*
X12904571Y10481868D01*
X12910007Y10483748D01*
X12914934Y10486847D01*
X12918998Y10490911D01*
X12922097Y10495838D01*
X12923977Y10501274D01*
X12924688Y10507624D01*
X12924688Y10656468D01*
X12923977Y10662767D01*
X12922097Y10668254D01*
X12918998Y10673130D01*
X12914934Y10677245D01*
X12910007Y10680344D01*
X12904571Y10682224D01*
X12898221Y10682935D01*
X12699390Y10682935D01*
X12693040Y10682224D01*
X12687604Y10680344D01*
X12682677Y10677245D01*
X12678613Y10673130D01*
X12675514Y10668254D01*
X12673584Y10662767D01*
X12672872Y10656468D01*
X12672872Y10507624D01*
X12673584Y10501274D01*
X12675514Y10495838D01*
X12678613Y10490911D01*
X12682677Y10486847D01*
X12687604Y10483748D01*
X12693040Y10481868D01*
G37*
G36*
X13868603Y10545876D02*
G01*
X13868603Y10583570D01*
X13831062Y10583570D01*
X13834770Y10576153D01*
X13841425Y10566654D01*
X13849502Y10558272D01*
X13858748Y10551210D01*
G37*
G36*
X13931341Y10546080D02*
G01*
X13936218Y10548264D01*
X13945971Y10554563D01*
X13954658Y10562285D01*
X13962024Y10571276D01*
X13967968Y10581233D01*
X13968882Y10583570D01*
X13931341Y10583570D01*
G37*
G36*
X13831062Y10646257D02*
G01*
X13868603Y10646257D01*
X13868603Y10681716D01*
X13869568Y10686084D01*
X13872311Y10689590D01*
X13876274Y10691571D01*
X13880693Y10691723D01*
X13891260Y10689640D01*
X13902893Y10689234D01*
X13914424Y10690555D01*
X13918488Y10691672D01*
X13922197Y10691977D01*
X13925753Y10690910D01*
X13928699Y10688675D01*
X13930630Y10685526D01*
X13931341Y10681868D01*
X13931341Y10646257D01*
X13968882Y10646257D01*
X13967968Y10648594D01*
X13962024Y10658551D01*
X13954658Y10667542D01*
X13945971Y10675264D01*
X13936421Y10681462D01*
X13933525Y10684256D01*
X13932001Y10687964D01*
X13932001Y10691977D01*
X13933525Y10695686D01*
X13936421Y10698530D01*
X13945971Y10704677D01*
X13954658Y10712399D01*
X13962024Y10721390D01*
X13967968Y10731347D01*
X13972336Y10742117D01*
X13974978Y10753445D01*
X13975842Y10765028D01*
X13974978Y10776610D01*
X13972336Y10787938D01*
X13967968Y10798708D01*
X13962024Y10808665D01*
X13954658Y10817656D01*
X13945971Y10825378D01*
X13936218Y10831677D01*
X13925600Y10836452D01*
X13914424Y10839500D01*
X13902893Y10840872D01*
X13891260Y10840415D01*
X13879880Y10838180D01*
X13868907Y10834268D01*
X13858748Y10828731D01*
X13849502Y10821670D01*
X13841425Y10813288D01*
X13834770Y10803788D01*
X13829588Y10793425D01*
X13826083Y10782300D01*
X13824305Y10770819D01*
X13824305Y10759236D01*
X13826083Y10747756D01*
X13829588Y10736681D01*
X13834770Y10726267D01*
X13841425Y10716768D01*
X13849502Y10708386D01*
X13858748Y10701324D01*
X13863218Y10698886D01*
X13866469Y10696092D01*
X13868298Y10692130D01*
X13868298Y10687812D01*
X13866469Y10683900D01*
X13863218Y10681055D01*
X13858748Y10678617D01*
X13849502Y10671556D01*
X13841425Y10663174D01*
X13834770Y10653674D01*
G37*

%LPD*%
G36*
X10107472Y9541510D02*
G01*
X10097109Y9520123D01*
X10142829Y9520123D01*
X10132466Y9541510D01*
G37*
G36*
X9369806Y9592868D02*
G01*
X9348470Y9582505D01*
X9348470Y9557461D01*
X9369806Y9547098D01*
G37*
G36*
X4190136Y9782860D02*
G01*
X4190187Y9737090D01*
X4211523Y9747453D01*
X4211523Y9772497D01*
G37*
G36*
X7034784Y10337190D02*
G01*
X7016140Y10323830D01*
X7023353Y10295636D01*
X7046061Y10292842D01*
G37*
G36*
X7002830Y10270693D02*
G01*
X6984085Y10233202D01*
X7046569Y10233202D01*
X7027824Y10270693D01*
G37*
G36*
X6824319Y10221214D02*
G01*
X6786829Y10202468D01*
X6786829Y10177475D01*
X6824319Y10158730D01*
G37*
G36*
X4220159Y9962845D02*
G01*
X4220159Y9917125D01*
X4241495Y9927488D01*
X4241495Y9952482D01*
G37*
G36*
X4220159Y10052862D02*
G01*
X4220159Y10007092D01*
X4241495Y10017455D01*
X4241495Y10042499D01*
G37*
G36*
X4180179Y9692843D02*
G01*
X4180179Y9647123D01*
X4201515Y9657486D01*
X4201515Y9682480D01*
G37*
G36*
X4344212Y9148876D02*
G01*
X4304284Y9135618D01*
X4348734Y9091625D01*
X4361992Y9131300D01*
G37*
G36*
X4190136Y9882835D02*
G01*
X4190187Y9837115D01*
X4211523Y9847478D01*
X4211523Y9872472D01*
G37*
G36*
X9499803Y9682835D02*
G01*
X9478416Y9672472D01*
X9478416Y9647478D01*
X9499803Y9637115D01*
G37*
G36*
X2217115Y9819792D02*
G01*
X2227478Y9798456D01*
X2252522Y9798456D01*
X2262886Y9819792D01*
G37*
G36*
X9540138Y9682835D02*
G01*
X9540138Y9637115D01*
X9560001Y9647478D01*
X9560001Y9672472D01*
G37*
G36*
X13214451Y8712454D02*
G01*
X13186460Y8709964D01*
X13186460Y8649919D01*
X13214451Y8647430D01*
G37*
G36*
X13535761Y9895027D02*
G01*
X13438276Y9852558D01*
X13438276Y9787534D01*
X13535761Y9745065D01*
G37*
G36*
X2615082Y9852152D02*
G01*
X2598623Y9833965D01*
X2633980Y9798608D01*
X2652166Y9815068D01*
G37*
G36*
X2585008Y9287611D02*
G01*
X2583738Y9263126D01*
X2636266Y9263126D01*
X2634996Y9287611D01*
G37*
G36*
X10096906Y10826292D02*
G01*
X10072370Y10825073D01*
X10072268Y10775086D01*
X10096754Y10773765D01*
G37*
G36*
X5813145Y10546232D02*
G01*
X5813145Y10493705D01*
X5837631Y10494975D01*
X5837631Y10544962D01*
G37*
D10*
X2649997Y9849977D02*
G01*
X2610002Y9809985D01*
X2610002Y9239986D01*
D11*
X13159993Y8679942D02*
G01*
X13320013Y8679942D01*
X13379958Y8739886D01*
X13379958Y9789921D01*
X13409929Y9820147D01*
X13560806Y9820147D01*
D10*
X10119865Y10800079D02*
G01*
X7279891Y10800079D01*
X6999780Y10519968D01*
X5789980Y10519968D01*
D12*
X9519970Y9419970D02*
G01*
X9559968Y9419970D01*
X9589975Y9449978D01*
X9589975Y9629985D01*
X9559985Y9659980D01*
X9519975Y9659980D01*
X9519965Y9659975D02*
G01*
X8610066Y9659975D01*
X8410066Y9859975D01*
X4169994Y9859975D01*
X4270004Y9056971D02*
G01*
X4359981Y9146959D01*
X4359981Y9640062D01*
X4330062Y9669983D01*
X4159986Y9669983D01*
X2239995Y9839980D02*
G01*
X2239995Y9609980D01*
X6674566Y10029979D02*
G01*
X9059981Y10029979D01*
X9209981Y10179979D01*
X10089979Y10179979D01*
X10179979Y10269979D01*
X4199991Y10029979D02*
G01*
X6674566Y10029979D01*
X7171682Y9940036D02*
G01*
X8430006Y9940036D01*
X8640063Y9729978D01*
X9260077Y9729978D01*
X4199890Y9940036D02*
G01*
X7171682Y9940036D01*
X6674611Y10029952D02*
G01*
X6674611Y10164571D01*
X6700011Y10189971D01*
X6864604Y10189971D01*
X7015225Y10189971D02*
G01*
X7015225Y10305287D01*
X7029958Y10320020D01*
X7059929Y10320020D01*
X4169991Y9759975D02*
G01*
X4279925Y9759975D01*
X4309877Y9789919D01*
X8389876Y9789919D01*
X8609812Y9569983D01*
X9389973Y9569983D01*
X10119868Y9499854D02*
G01*
X10119868Y9679939D01*
X10070084Y9729978D01*
X9260077Y9729978D01*
D13*
G01*
X7015311Y10189979D03*
G01*
X6864661Y10189979D03*
D14*
G01*
X4269993Y9056878D03*
D15*
G01*
X4269993Y8802878D03*
D16*
G01*
X5349493Y8579865D03*
G01*
X5850381Y8579865D03*
G01*
X9849611Y8590026D03*
G01*
X10350500Y8590026D03*
G01*
X16020034Y9322054D03*
G01*
X16020034Y9830054D03*
G01*
X16020034Y10338054D03*
D17*
G01*
X12229947Y9997186D03*
G01*
X12229947Y10251186D03*
G01*
X12229947Y9412986D03*
G01*
X12229947Y9666986D03*
D18*
G01*
X13560882Y9058046D03*
G01*
X13560780Y9312046D03*
G01*
X13560780Y9566046D03*
G01*
X13560780Y9820046D03*
G01*
X13560780Y10074046D03*
G01*
X13560780Y10328046D03*
G01*
X13560780Y10582046D03*
G01*
X12798780Y9058046D03*
G01*
X12798780Y9312046D03*
G01*
X12798780Y9566046D03*
G01*
X12798780Y9820046D03*
G01*
X12798780Y10074046D03*
G01*
X12798780Y10328046D03*
D19*
G01*
X12798806Y10582046D03*
D20*
G01*
X3783838Y8579993D03*
D21*
G01*
X3296158Y8579993D03*
D22*
G01*
X11784914Y10139984D03*
G01*
X11935028Y10139984D03*
G01*
X11794896Y9529978D03*
G01*
X11945010Y9529978D03*
G01*
X13899972Y10614888D03*
G01*
X13899972Y10765002D03*
G01*
X13899972Y9035059D03*
G01*
X13899972Y8884945D03*
G01*
X14389963Y10184917D03*
G01*
X14389963Y10335031D03*
G01*
X14389963Y9324898D03*
G01*
X14389963Y9475012D03*
D23*
G01*
X3709085Y9836200D03*
G01*
X3409365Y9837470D03*
G01*
X3410635Y9537750D03*
G01*
X3710355Y9537750D03*
D24*
G01*
X1980006Y10379989D03*
G01*
X2110003Y10379989D03*
G01*
X2240000Y10379989D03*
G01*
X2240000Y9839985D03*
G01*
X2240000Y9609988D03*
G01*
X2699994Y9489973D03*
G01*
X2689986Y10069982D03*
G01*
X4139996Y9259976D03*
G01*
X3339998Y10399979D03*
G01*
X3599941Y10269981D03*
G01*
X1270000Y10159974D03*
G01*
X1290015Y9209989D03*
G01*
X4159986Y9669983D03*
G01*
X10589971Y10169982D03*
G01*
X9559975Y9309988D03*
G01*
X9599980Y10039985D03*
G01*
X10129977Y9799980D03*
G01*
X10249992Y10719968D03*
G01*
X7309993Y9729978D03*
G01*
X7039990Y9459976D03*
G01*
X1159992Y10159974D03*
G01*
X1159992Y9209989D03*
G01*
X1029995Y9949967D03*
G01*
X1029995Y9409988D03*
G01*
X3350006Y8859977D03*
G01*
X4169994Y9859975D03*
G01*
X4169994Y9759975D03*
D25*
G01*
X2650007Y9849967D03*
D24*
G01*
X10119969Y9499980D03*
G01*
X9529978Y9419970D03*
G01*
X9389973Y9569983D03*
G01*
X9519970Y10289971D03*
G01*
X9519920Y10420095D03*
D25*
G01*
X2610002Y9239986D03*
D24*
G01*
X9519970Y9659975D03*
D25*
G01*
X10119969Y10799978D03*
D26*
G01*
X13159993Y8679942D03*
D25*
G01*
X5789980Y10519968D03*
D24*
G01*
X12019965Y9149969D03*
G01*
X12059970Y10429976D03*
G01*
X13979982Y9679990D03*
G01*
X7839989Y8639987D03*
G01*
X4199991Y10029977D03*
G01*
X4199991Y9939985D03*
G01*
X10179989Y10269981D03*
G01*
X7171690Y9940036D03*
G01*
X7059980Y10319969D03*
G01*
X14009979Y9139986D03*
G01*
X13869974Y9139986D03*
G01*
X13729970Y9229979D03*
G01*
X13729970Y9349968D03*
G01*
X13879982Y9989972D03*
G01*
X13989964Y9989972D03*
G01*
X15089962Y9959975D03*
G01*
X15199969Y9959975D03*
G01*
X15089962Y9839985D03*
G01*
X15199969Y9839985D03*
D23*
G01*
X3459988Y8159978D03*
G01*
X3459988Y8069986D03*
G01*
X3610000Y8159978D03*
G01*
X3610000Y8069986D03*
D24*
G01*
X6339987Y9329981D03*
M02*
