G04 Layer: BottomSilkscreenLayer*
G04 EasyEDA v6.5.23, 2023-06-02 21:13:54*
G04 33ff916c08f040c1a4a9353f5c15a4ee,b642c611f69d48ac97ba22acea37c14c,10*
G04 Gerber Generator version 0.2*
G04 Scale: 100 percent, Rotated: No, Reflected: No *
G04 Dimensions in millimeters *
G04 leading zeros omitted , absolute positions ,4 integer and 5 decimal *
%FSLAX45Y45*%
%MOMM*%

%ADD10C,0.5030*%
%ADD11C,0.1524*%
%ADD12C,0.2500*%

%LPD*%
G36*
X12850012Y8663279D02*
G01*
X12850063Y8646109D01*
X12850469Y8642553D01*
X12851384Y8639352D01*
X12852958Y8636152D01*
X12855498Y8632596D01*
X12859105Y8628430D01*
X12895529Y8591804D01*
X12997738Y8489950D01*
X12997738Y8438743D01*
X13018871Y8438743D01*
X13018922Y8458860D01*
X13019379Y8466582D01*
X13019735Y8467699D01*
X13024510Y8464143D01*
X13032384Y8456066D01*
X13039750Y8447481D01*
X13043001Y8442248D01*
X13042138Y8440775D01*
X13039750Y8439658D01*
X13035940Y8438997D01*
X13030911Y8438743D01*
X12997738Y8438743D01*
X12997738Y8418474D01*
X13045643Y8418474D01*
X13045981Y8415731D01*
X13067944Y8415731D01*
X13068046Y8417407D01*
X13070078Y8415883D01*
X13083235Y8403691D01*
X13104876Y8382863D01*
X13130682Y8357514D01*
X13167969Y8320430D01*
X13185546Y8302447D01*
X13190575Y8297011D01*
X13192353Y8294776D01*
X13191638Y8293506D01*
X13221716Y8293506D01*
X13223189Y8295843D01*
X13227761Y8301329D01*
X13244423Y8319719D01*
X13267994Y8344763D01*
X13323417Y8402015D01*
X13331698Y8410143D01*
X13328345Y8377224D01*
X13316915Y8252002D01*
X13313156Y8215223D01*
X13312597Y8211820D01*
X13312089Y8210296D01*
X13311378Y8209381D01*
X13310209Y8209178D01*
X13308482Y8209838D01*
X13305993Y8211464D01*
X13302640Y8214156D01*
X13292632Y8223300D01*
X13260984Y8253933D01*
X13235381Y8279231D01*
X13223544Y8291372D01*
X13221716Y8293506D01*
X13191638Y8293506D01*
X13187832Y8288934D01*
X13170611Y8270494D01*
X13146074Y8245246D01*
X13113918Y8213039D01*
X13094157Y8194040D01*
X13088315Y8188807D01*
X13086689Y8187588D01*
X13086080Y8187436D01*
X13079069Y8267903D01*
X13072567Y8347405D01*
X13068757Y8399830D01*
X13067944Y8415731D01*
X13045981Y8415731D01*
X13047522Y8402828D01*
X13049859Y8377377D01*
X13059765Y8257133D01*
X13065404Y8194903D01*
X13066928Y8175294D01*
X13067131Y8170316D01*
X13066369Y8168233D01*
X13064083Y8164728D01*
X13060222Y8159699D01*
X13052894Y8151063D01*
X13088162Y8151063D01*
X13089178Y8154517D01*
X13091160Y8158632D01*
X13094106Y8163255D01*
X13097916Y8168233D01*
X13111022Y8182102D01*
X13207441Y8281873D01*
X13286587Y8202726D01*
X13294156Y8194649D01*
X13299897Y8187690D01*
X13302081Y8184489D01*
X13303910Y8181340D01*
X13305383Y8178241D01*
X13306501Y8175091D01*
X13307313Y8171789D01*
X13307872Y8168335D01*
X13308228Y8160664D01*
X13307771Y8151469D01*
X13301014Y8080908D01*
X13143382Y8079384D01*
X13141299Y8094319D01*
X13139826Y8101584D01*
X13137438Y8108645D01*
X13134238Y8115300D01*
X13130276Y8121548D01*
X13125653Y8127238D01*
X13120420Y8132318D01*
X13114680Y8136585D01*
X13108482Y8140039D01*
X13098221Y8144306D01*
X13094258Y8145627D01*
X13089432Y8146694D01*
X13088264Y8148421D01*
X13088162Y8151063D01*
X13052894Y8151063D01*
X13038480Y8135010D01*
X13014960Y8109966D01*
X12995075Y8089138D01*
X13052044Y8089138D01*
X13052399Y8096046D01*
X13053771Y8101126D01*
X13056565Y8105292D01*
X13061340Y8109610D01*
X13066064Y8112861D01*
X13071043Y8115147D01*
X13076224Y8116570D01*
X13081406Y8117179D01*
X13086588Y8116925D01*
X13091515Y8115909D01*
X13096189Y8114131D01*
X13100405Y8111693D01*
X13104164Y8108492D01*
X13107263Y8104682D01*
X13109600Y8100263D01*
X13111124Y8095234D01*
X13111734Y8089900D01*
X13111480Y8084870D01*
X13110413Y8080146D01*
X13108686Y8075777D01*
X13106298Y8071815D01*
X13103352Y8068309D01*
X13099948Y8065312D01*
X13096138Y8062874D01*
X13092023Y8060944D01*
X13087654Y8059724D01*
X13083133Y8059115D01*
X13078510Y8059216D01*
X13073938Y8060080D01*
X13069366Y8061756D01*
X13064998Y8064246D01*
X13060883Y8067649D01*
X13056463Y8072424D01*
X13053771Y8076996D01*
X13052399Y8082280D01*
X13052044Y8089138D01*
X12995075Y8089138D01*
X12885978Y7976209D01*
X12900304Y7963357D01*
X13020090Y8088020D01*
X13023443Y8075320D01*
X13025272Y8069325D01*
X13027304Y8063941D01*
X13029742Y8059115D01*
X13032536Y8054746D01*
X13035788Y8050733D01*
X13039598Y8046974D01*
X13044017Y8043418D01*
X13049046Y8040014D01*
X13053568Y8037372D01*
X13058292Y8035239D01*
X13063067Y8033461D01*
X13067995Y8032191D01*
X13073024Y8031327D01*
X13078053Y8030870D01*
X13083082Y8030870D01*
X13088112Y8031225D01*
X13093141Y8032038D01*
X13098068Y8033308D01*
X13102945Y8034934D01*
X13107669Y8036966D01*
X13112292Y8039404D01*
X13116712Y8042249D01*
X13120928Y8045500D01*
X13124942Y8049158D01*
X13135051Y8059115D01*
X13272007Y8059166D01*
X13273836Y8031632D01*
X13313054Y8031632D01*
X13314426Y8048193D01*
X13315289Y8053120D01*
X13316305Y8057489D01*
X13318134Y8063230D01*
X13320013Y8073796D01*
X13322096Y8089290D01*
X13324027Y8107222D01*
X13325601Y8125002D01*
X13326516Y8139988D01*
X13326872Y8150352D01*
X13327380Y8154162D01*
X13328142Y8156752D01*
X13329107Y8157718D01*
X13332053Y8155686D01*
X13338352Y8150250D01*
X13346988Y8142173D01*
X13424814Y8065058D01*
X13527074Y7963306D01*
X13534440Y7972704D01*
X13536015Y7975193D01*
X13536930Y7977276D01*
X13537082Y7978546D01*
X13530884Y7985201D01*
X13483386Y8033054D01*
X13374776Y8141106D01*
X13330732Y8185200D01*
X13347446Y8362391D01*
X13351103Y8405977D01*
X13352018Y8412124D01*
X13353186Y8417814D01*
X13354761Y8423198D01*
X13356844Y8428431D01*
X13359587Y8433765D01*
X13362990Y8439302D01*
X13367257Y8445195D01*
X13372490Y8451697D01*
X13386206Y8467090D01*
X13405002Y8486800D01*
X13549985Y8636762D01*
X13549985Y8663228D01*
X13521385Y8633256D01*
X13382599Y8489797D01*
X13356386Y8463381D01*
X13363448Y8522766D01*
X13375233Y8522766D01*
X13381888Y8522970D01*
X13385393Y8524138D01*
X13386765Y8527186D01*
X13387019Y8532926D01*
X13386765Y8538667D01*
X13385393Y8541664D01*
X13381837Y8542832D01*
X13368680Y8543340D01*
X13364413Y8544560D01*
X13361314Y8547049D01*
X13356183Y8554974D01*
X13352729Y8559139D01*
X13348614Y8563559D01*
X13344144Y8567877D01*
X13339622Y8571738D01*
X13335507Y8574887D01*
X13332002Y8577021D01*
X13328446Y8578392D01*
X13327532Y8579916D01*
X13326872Y8582253D01*
X13326262Y8589060D01*
X13324332Y8591245D01*
X13319556Y8592108D01*
X13304926Y8592362D01*
X13290600Y8593328D01*
X13274801Y8594902D01*
X13259612Y8596884D01*
X13247319Y8598966D01*
X13242950Y8599932D01*
X13240156Y8600846D01*
X13239140Y8601608D01*
X13238073Y8602065D01*
X13235076Y8602522D01*
X13224052Y8603234D01*
X13207746Y8603691D01*
X13187832Y8603894D01*
X13162940Y8603742D01*
X13147141Y8603132D01*
X13142213Y8602624D01*
X13138912Y8601964D01*
X13137083Y8601151D01*
X13135203Y8598306D01*
X13131495Y8596376D01*
X13125602Y8594445D01*
X13111937Y8591397D01*
X13100100Y8588451D01*
X13088721Y8584946D01*
X13077242Y8580729D01*
X13154660Y8580729D01*
X13155422Y8583930D01*
X13159384Y8585657D01*
X13168884Y8586368D01*
X13186308Y8586520D01*
X13203783Y8586368D01*
X13213283Y8585657D01*
X13217245Y8583930D01*
X13218007Y8580729D01*
X13217245Y8577529D01*
X13213283Y8575802D01*
X13203783Y8575040D01*
X13168884Y8575040D01*
X13159384Y8575802D01*
X13155422Y8577529D01*
X13154660Y8580729D01*
X13077242Y8580729D01*
X13068503Y8576919D01*
X13060070Y8572500D01*
X13050215Y8566556D01*
X13045643Y8564829D01*
X13041528Y8564778D01*
X13031978Y8567775D01*
X13027202Y8568436D01*
X13022478Y8568232D01*
X13017957Y8567318D01*
X13013740Y8565692D01*
X13009829Y8563305D01*
X13006425Y8560257D01*
X13003530Y8556548D01*
X12999212Y8547862D01*
X12998536Y8543036D01*
X13057124Y8543036D01*
X13062915Y8549132D01*
X13066217Y8552230D01*
X13070281Y8555228D01*
X13075056Y8558123D01*
X13080492Y8560866D01*
X13086588Y8563457D01*
X13093293Y8565946D01*
X13100608Y8568232D01*
X13117118Y8572449D01*
X13123824Y8573871D01*
X13128751Y8574582D01*
X13132206Y8574532D01*
X13134492Y8573719D01*
X13135813Y8572093D01*
X13136372Y8569604D01*
X13136524Y8557514D01*
X13239140Y8557514D01*
X13239140Y8569147D01*
X13239343Y8573617D01*
X13239800Y8577224D01*
X13240512Y8579612D01*
X13241426Y8580374D01*
X13263422Y8577072D01*
X13277646Y8574633D01*
X13282371Y8573516D01*
X13285774Y8572246D01*
X13288060Y8570823D01*
X13289483Y8569096D01*
X13290245Y8567013D01*
X13290499Y8564473D01*
X13290448Y8550300D01*
X13326668Y8550300D01*
X13326872Y8555228D01*
X13327786Y8557107D01*
X13329919Y8556040D01*
X13333730Y8552230D01*
X13337387Y8547862D01*
X13338403Y8545017D01*
X13336879Y8543493D01*
X13332713Y8543036D01*
X13329869Y8543442D01*
X13328040Y8544661D01*
X13326973Y8546896D01*
X13326668Y8550300D01*
X13290448Y8550300D01*
X13290448Y8543036D01*
X12998536Y8543036D01*
X12998145Y8540242D01*
X13000431Y8532977D01*
X13006120Y8525408D01*
X13008917Y8522766D01*
X13341756Y8522766D01*
X13341400Y8510778D01*
X13339775Y8491321D01*
X13334187Y8439658D01*
X13207441Y8308594D01*
X13163042Y8351062D01*
X13149834Y8364016D01*
X13139877Y8374176D01*
X13134289Y8380323D01*
X13133527Y8381492D01*
X13134594Y8381898D01*
X13137692Y8382355D01*
X13149021Y8383016D01*
X13165836Y8383524D01*
X13239140Y8383676D01*
X13239140Y8421370D01*
X13112394Y8421370D01*
X13112394Y8402675D01*
X13070128Y8442909D01*
X13070128Y8466886D01*
X13069925Y8478469D01*
X13069265Y8485835D01*
X13067995Y8489746D01*
X13062762Y8492490D01*
X13060273Y8496960D01*
X13058698Y8504021D01*
X13058140Y8513368D01*
X13058089Y8522766D01*
X13008917Y8522766D01*
X13010692Y8521090D01*
X13015061Y8518296D01*
X13019786Y8516823D01*
X13032536Y8515553D01*
X13036956Y8512606D01*
X13039242Y8506764D01*
X13039953Y8497417D01*
X13039598Y8494166D01*
X13038277Y8492185D01*
X13035635Y8491169D01*
X13030708Y8490915D01*
X13029031Y8491270D01*
X13024662Y8493506D01*
X13018058Y8498382D01*
X13008406Y8506764D01*
X12994741Y8519515D01*
X12976199Y8537448D01*
X12920980Y8592159D01*
G37*
G36*
X13080136Y8108238D02*
G01*
X13074345Y8106867D01*
X13069163Y8104022D01*
X13064947Y8099806D01*
X13062102Y8094472D01*
X13061086Y8088172D01*
X13062762Y8080298D01*
X13067284Y8073847D01*
X13073989Y8069478D01*
X13082117Y8067852D01*
X13088518Y8068818D01*
X13093954Y8071408D01*
X13098221Y8075269D01*
X13101218Y8080146D01*
X13102742Y8085581D01*
X13102691Y8091271D01*
X13100913Y8096910D01*
X13097205Y8102092D01*
X13091972Y8106003D01*
X13086181Y8108035D01*
G37*
G36*
X12325959Y8557158D02*
G01*
X12290602Y8556701D01*
X12277090Y8556193D01*
X12266218Y8555431D01*
X12256770Y8554212D01*
X12247575Y8552535D01*
X12237415Y8550198D01*
X12224918Y8546896D01*
X12212574Y8543188D01*
X12200432Y8539073D01*
X12188545Y8534552D01*
X12176810Y8529624D01*
X12165330Y8524290D01*
X12154103Y8518601D01*
X12143079Y8512505D01*
X12132310Y8506002D01*
X12121794Y8499195D01*
X12111532Y8491982D01*
X12101525Y8484412D01*
X12091822Y8476538D01*
X12082424Y8468258D01*
X12073280Y8459673D01*
X12064441Y8450783D01*
X12055906Y8441537D01*
X12047728Y8431936D01*
X12039854Y8422081D01*
X12032284Y8411921D01*
X12025122Y8401405D01*
X12018264Y8390636D01*
X12011761Y8379561D01*
X12005614Y8368233D01*
X11999823Y8356650D01*
X11994540Y8345170D01*
X11989663Y8333740D01*
X11985294Y8322411D01*
X11981383Y8311032D01*
X11977878Y8299653D01*
X11974830Y8288223D01*
X11972188Y8276742D01*
X11970004Y8265159D01*
X11968226Y8253374D01*
X11966854Y8241487D01*
X11965889Y8229396D01*
X11965279Y8217103D01*
X11965127Y8204504D01*
X11965330Y8191804D01*
X11965990Y8179206D01*
X11967108Y8166760D01*
X11968683Y8154314D01*
X11970715Y8141970D01*
X11973204Y8129625D01*
X11976201Y8117281D01*
X11979605Y8104886D01*
X11983567Y8092440D01*
X11987936Y8079943D01*
X11991086Y8071967D01*
X11994896Y8063280D01*
X12003328Y8045856D01*
X12007392Y8038236D01*
X12010948Y8032140D01*
X12013692Y8028025D01*
X12015368Y8026552D01*
X12016689Y8026857D01*
X12021159Y8028990D01*
X12030913Y8034934D01*
X12027916Y8042452D01*
X12014403Y8071866D01*
X12009628Y8083194D01*
X12005411Y8094065D01*
X12001754Y8104784D01*
X11998502Y8115503D01*
X11995708Y8126374D01*
X11993219Y8137702D01*
X11990984Y8149590D01*
X11989104Y8162442D01*
X11987682Y8175447D01*
X11986869Y8188655D01*
X11986514Y8201964D01*
X11986717Y8215325D01*
X11987428Y8228685D01*
X11988698Y8242046D01*
X11990425Y8255355D01*
X11992660Y8268563D01*
X11995404Y8281619D01*
X11998655Y8294471D01*
X12002363Y8307120D01*
X12006580Y8319566D01*
X12011304Y8331657D01*
X12016079Y8342579D01*
X12021261Y8353348D01*
X12026798Y8363915D01*
X12032742Y8374278D01*
X12039041Y8384387D01*
X12045696Y8394344D01*
X12052706Y8403996D01*
X12060021Y8413445D01*
X12067641Y8422640D01*
X12075617Y8431530D01*
X12083846Y8440166D01*
X12092381Y8448497D01*
X12101118Y8456472D01*
X12110161Y8464194D01*
X12119457Y8471560D01*
X12128957Y8478570D01*
X12138710Y8485225D01*
X12148616Y8491524D01*
X12158726Y8497468D01*
X12169038Y8503005D01*
X12179503Y8508136D01*
X12190120Y8512860D01*
X12200890Y8517128D01*
X12211812Y8520988D01*
X12222683Y8524341D01*
X12233960Y8527288D01*
X12245594Y8529878D01*
X12257532Y8532063D01*
X12269622Y8533892D01*
X12281916Y8535314D01*
X12294209Y8536330D01*
X12306554Y8536940D01*
X12318796Y8537143D01*
X12330887Y8536940D01*
X12342774Y8536279D01*
X12354356Y8535212D01*
X12365583Y8533739D01*
X12376353Y8531860D01*
X12388951Y8529066D01*
X12401346Y8525865D01*
X12413538Y8522208D01*
X12425426Y8518194D01*
X12437110Y8513775D01*
X12448590Y8509000D01*
X12459766Y8503767D01*
X12470688Y8498230D01*
X12481306Y8492286D01*
X12491720Y8485936D01*
X12501829Y8479282D01*
X12511633Y8472271D01*
X12521133Y8464905D01*
X12530378Y8457184D01*
X12539268Y8449106D01*
X12547854Y8440724D01*
X12556134Y8432038D01*
X12564110Y8423046D01*
X12571730Y8413699D01*
X12579045Y8404098D01*
X12586004Y8394192D01*
X12592558Y8383981D01*
X12598806Y8373465D01*
X12604699Y8362696D01*
X12610185Y8351672D01*
X12615316Y8340394D01*
X12620091Y8328812D01*
X12624460Y8317026D01*
X12628422Y8304936D01*
X12631978Y8292642D01*
X12635128Y8280146D01*
X12637922Y8267395D01*
X12639497Y8257540D01*
X12640716Y8246059D01*
X12641580Y8233308D01*
X12642088Y8219694D01*
X12642291Y8205724D01*
X12642088Y8191703D01*
X12641580Y8178139D01*
X12640716Y8165338D01*
X12639497Y8153857D01*
X12637922Y8144002D01*
X12635382Y8132470D01*
X12632334Y8120532D01*
X12628829Y8108442D01*
X12624917Y8096402D01*
X12620752Y8084667D01*
X12616332Y8073440D01*
X12611811Y8063026D01*
X12607239Y8053578D01*
X12596774Y8033461D01*
X12608052Y8024977D01*
X12610846Y8023199D01*
X12612878Y8022183D01*
X12613843Y8022081D01*
X12616535Y8026603D01*
X12621412Y8036102D01*
X12633655Y8061858D01*
X12639090Y8074050D01*
X12642850Y8083042D01*
X12646101Y8092389D01*
X12649200Y8102701D01*
X12652197Y8113877D01*
X12654940Y8125612D01*
X12657429Y8137702D01*
X12659614Y8149894D01*
X12661392Y8161985D01*
X12662814Y8173720D01*
X12663779Y8185708D01*
X12664338Y8197697D01*
X12664490Y8209737D01*
X12664186Y8221725D01*
X12663424Y8233714D01*
X12662255Y8245652D01*
X12660680Y8257641D01*
X12658648Y8269579D01*
X12656159Y8281466D01*
X12653314Y8293353D01*
X12650012Y8305139D01*
X12646304Y8316925D01*
X12642138Y8328659D01*
X12637617Y8340293D01*
X12632639Y8351875D01*
X12627254Y8363407D01*
X12621463Y8374837D01*
X12615214Y8386165D01*
X12608610Y8397443D01*
X12601600Y8408568D01*
X12595504Y8417306D01*
X12588646Y8426246D01*
X12581026Y8435340D01*
X12572695Y8444433D01*
X12563856Y8453526D01*
X12554508Y8462518D01*
X12544755Y8471306D01*
X12534747Y8479840D01*
X12524435Y8488019D01*
X12514072Y8495792D01*
X12503607Y8503107D01*
X12493244Y8509812D01*
X12482931Y8515908D01*
X12472924Y8521293D01*
X12463119Y8525916D01*
X12452604Y8530437D01*
X12441478Y8534806D01*
X12429947Y8538972D01*
X12418110Y8542832D01*
X12406172Y8546388D01*
X12394234Y8549640D01*
X12382500Y8552434D01*
X12371070Y8554770D01*
X12360097Y8556599D01*
X12353798Y8556955D01*
G37*
G36*
X12316460Y8503208D02*
G01*
X12314478Y8503005D01*
X12312345Y8500770D01*
X12311684Y8499652D01*
X12310567Y8496554D01*
X12304420Y8485022D01*
X12247067Y8385911D01*
X12225934Y8350046D01*
X12220803Y8342223D01*
X12240260Y8335060D01*
X12244273Y8334044D01*
X12250724Y8332774D01*
X12280036Y8328507D01*
X12295124Y8325561D01*
X12311481Y8321903D01*
X12327636Y8317890D01*
X12342114Y8313978D01*
X12353493Y8310422D01*
X12357557Y8308949D01*
X12360351Y8307679D01*
X12361621Y8306765D01*
X12361214Y8306155D01*
X12359640Y8305393D01*
X12359182Y8304428D01*
X12359944Y8302955D01*
X12361976Y8300770D01*
X12364110Y8298942D01*
X12365939Y8298078D01*
X12367615Y8298180D01*
X12369342Y8299196D01*
X12371324Y8299907D01*
X12373864Y8298688D01*
X12377318Y8295284D01*
X12382195Y8289340D01*
X12392202Y8275980D01*
X12401854Y8262213D01*
X12410490Y8249056D01*
X12417399Y8237626D01*
X12421920Y8228990D01*
X12423140Y8225993D01*
X12423444Y8224113D01*
X12423495Y8222030D01*
X12423952Y8220303D01*
X12424664Y8219186D01*
X12426594Y8218474D01*
X12426797Y8217712D01*
X12426289Y8216493D01*
X12423648Y8212886D01*
X12423140Y8211515D01*
X12423495Y8210550D01*
X12424664Y8209889D01*
X12425629Y8208314D01*
X12426188Y8204708D01*
X12426340Y8199475D01*
X12425680Y8185759D01*
X12424003Y8170519D01*
X12421666Y8157057D01*
X12420396Y8152079D01*
X12419076Y8148777D01*
X12417806Y8147558D01*
X12417044Y8147202D01*
X12416637Y8146237D01*
X12416586Y8144865D01*
X12416942Y8143087D01*
X12416942Y8140395D01*
X12415012Y8136991D01*
X12410948Y8132470D01*
X12404344Y8126475D01*
X12394996Y8118754D01*
X12389205Y8115147D01*
X12385903Y8115249D01*
X12383973Y8118703D01*
X12383668Y8122666D01*
X12384633Y8128101D01*
X12386513Y8134350D01*
X12389002Y8140903D01*
X12391948Y8147050D01*
X12395047Y8152180D01*
X12397943Y8155736D01*
X12403124Y8158225D01*
X12403886Y8161070D01*
X12402820Y8164575D01*
X12400026Y8167725D01*
X12398298Y8170113D01*
X12396825Y8174126D01*
X12395708Y8179308D01*
X12394946Y8185048D01*
X12394590Y8190839D01*
X12394692Y8196072D01*
X12395352Y8200237D01*
X12396571Y8202777D01*
X12398400Y8205470D01*
X12399162Y8208365D01*
X12398908Y8210600D01*
X12397486Y8211362D01*
X12394234Y8211159D01*
X12391796Y8211769D01*
X12390272Y8213140D01*
X12389408Y8216595D01*
X12388443Y8217712D01*
X12387021Y8218474D01*
X12385294Y8218728D01*
X12381992Y8219948D01*
X12378131Y8223148D01*
X12373965Y8227872D01*
X12369952Y8233460D01*
X12366396Y8239506D01*
X12363653Y8245398D01*
X12362078Y8250580D01*
X12362027Y8254492D01*
X12362230Y8256524D01*
X12361875Y8258860D01*
X12361113Y8261146D01*
X12359944Y8263128D01*
X12358116Y8265363D01*
X12357150Y8266023D01*
X12356744Y8265058D01*
X12356642Y8262416D01*
X12356236Y8259825D01*
X12354915Y8258352D01*
X12352121Y8257794D01*
X12347397Y8257895D01*
X12343028Y8258556D01*
X12338050Y8259876D01*
X12332919Y8261756D01*
X12321997Y8266887D01*
X12317577Y8267750D01*
X12316053Y8266531D01*
X12318136Y8263331D01*
X12320371Y8260537D01*
X12320422Y8258149D01*
X12318034Y8255558D01*
X12315532Y8253882D01*
X12332817Y8253882D01*
X12350750Y8251952D01*
X12354204Y8251037D01*
X12356033Y8249615D01*
X12357100Y8244789D01*
X12358573Y8241131D01*
X12360859Y8236864D01*
X12363754Y8232241D01*
X12367056Y8227517D01*
X12370612Y8223046D01*
X12374270Y8218982D01*
X12382042Y8211616D01*
X12384633Y8207298D01*
X12386259Y8200999D01*
X12388443Y8183880D01*
X12390272Y8171942D01*
X12390983Y8168792D01*
X12390983Y8165795D01*
X12389916Y8160918D01*
X12387935Y8154720D01*
X12382347Y8140801D01*
X12380010Y8133791D01*
X12378486Y8127644D01*
X12377623Y8119668D01*
X12376810Y8116366D01*
X12375591Y8113623D01*
X12374067Y8111744D01*
X12371984Y8110270D01*
X12370358Y8109966D01*
X12368834Y8110880D01*
X12366955Y8113115D01*
X12365685Y8115249D01*
X12364618Y8117738D01*
X12363958Y8120278D01*
X12363704Y8122513D01*
X12365431Y8129676D01*
X12369495Y8139226D01*
X12374168Y8147659D01*
X12377724Y8151418D01*
X12383058Y8152028D01*
X12383770Y8152536D01*
X12383566Y8153806D01*
X12382500Y8155584D01*
X12380671Y8157819D01*
X12378588Y8160969D01*
X12376962Y8165185D01*
X12375896Y8170164D01*
X12375388Y8175548D01*
X12375438Y8180984D01*
X12376048Y8186166D01*
X12377267Y8190687D01*
X12379096Y8194344D01*
X12380874Y8197240D01*
X12381128Y8199374D01*
X12379502Y8201507D01*
X12375743Y8204352D01*
X12372797Y8206943D01*
X12369495Y8210550D01*
X12366193Y8214868D01*
X12362992Y8219541D01*
X12360148Y8224215D01*
X12357862Y8228634D01*
X12356338Y8232444D01*
X12355220Y8238896D01*
X12353340Y8241944D01*
X12350648Y8244078D01*
X12345416Y8245297D01*
X12342876Y8246313D01*
X12340183Y8247786D01*
X12335357Y8251393D01*
X12332817Y8253628D01*
X12332817Y8253882D01*
X12315532Y8253882D01*
X12308892Y8249767D01*
X12320981Y8249767D01*
X12321235Y8250631D01*
X12321997Y8251342D01*
X12323114Y8251799D01*
X12324537Y8251952D01*
X12325908Y8251799D01*
X12327026Y8251393D01*
X12327788Y8250783D01*
X12328550Y8249005D01*
X12329820Y8247684D01*
X12331750Y8246211D01*
X12336576Y8243316D01*
X12337897Y8241995D01*
X12338100Y8240826D01*
X12337135Y8239861D01*
X12333325Y8240064D01*
X12327890Y8242706D01*
X12323064Y8246364D01*
X12320981Y8249767D01*
X12308892Y8249767D01*
X12307163Y8248751D01*
X12303912Y8247481D01*
X12302896Y8248294D01*
X12304115Y8253069D01*
X12303607Y8254034D01*
X12301829Y8254085D01*
X12285218Y8250428D01*
X12280188Y8248497D01*
X12277394Y8245500D01*
X12277156Y8242604D01*
X12282982Y8242604D01*
X12283287Y8243468D01*
X12283998Y8244179D01*
X12285116Y8244687D01*
X12286488Y8244840D01*
X12287808Y8244586D01*
X12288621Y8243874D01*
X12288926Y8242757D01*
X12288621Y8241284D01*
X12288223Y8240775D01*
X12293447Y8240775D01*
X12293803Y8241385D01*
X12295022Y8241182D01*
X12299848Y8239048D01*
X12302185Y8238845D01*
X12304572Y8239556D01*
X12311684Y8243773D01*
X12315190Y8244636D01*
X12318136Y8243824D01*
X12320981Y8241284D01*
X12322251Y8239506D01*
X12322403Y8238388D01*
X12321235Y8237880D01*
X12316815Y8237524D01*
X12315494Y8237016D01*
X12314885Y8236305D01*
X12315240Y8233765D01*
X12313259Y8233105D01*
X12308992Y8233308D01*
X12302439Y8234425D01*
X12299492Y8235289D01*
X12296902Y8236458D01*
X12294920Y8237829D01*
X12293854Y8239252D01*
X12293447Y8240775D01*
X12288223Y8240775D01*
X12287148Y8239404D01*
X12285268Y8239099D01*
X12283643Y8240217D01*
X12282982Y8242604D01*
X12277156Y8242604D01*
X12277090Y8241792D01*
X12281509Y8234425D01*
X12283626Y8230260D01*
X12322708Y8230260D01*
X12323013Y8232241D01*
X12323622Y8233714D01*
X12324537Y8234476D01*
X12327737Y8234425D01*
X12330876Y8232190D01*
X12340844Y8232190D01*
X12341199Y8233968D01*
X12342418Y8235188D01*
X12344603Y8236051D01*
X12346686Y8236356D01*
X12348210Y8236102D01*
X12349124Y8235289D01*
X12349429Y8233918D01*
X12351613Y8227669D01*
X12356693Y8217763D01*
X12362637Y8208009D01*
X12367361Y8202066D01*
X12368936Y8199577D01*
X12370003Y8195005D01*
X12370612Y8187791D01*
X12370765Y8177479D01*
X12370612Y8164982D01*
X12369596Y8156854D01*
X12367056Y8150199D01*
X12362230Y8142071D01*
X12357862Y8135366D01*
X12354712Y8131606D01*
X12352375Y8130336D01*
X12350394Y8131149D01*
X12348210Y8134197D01*
X12347244Y8138363D01*
X12347346Y8143189D01*
X12348413Y8148269D01*
X12350343Y8153196D01*
X12352934Y8157514D01*
X12356134Y8160867D01*
X12359792Y8162696D01*
X12362434Y8163509D01*
X12363348Y8164474D01*
X12362637Y8165998D01*
X12360249Y8168741D01*
X12358166Y8171637D01*
X12357049Y8175091D01*
X12356744Y8179663D01*
X12357150Y8185962D01*
X12357811Y8190839D01*
X12358776Y8195005D01*
X12359843Y8197951D01*
X12361011Y8199272D01*
X12363246Y8200694D01*
X12363348Y8202675D01*
X12361316Y8204911D01*
X12357252Y8207349D01*
X12352528Y8210753D01*
X12348006Y8215934D01*
X12344146Y8222488D01*
X12341301Y8229752D01*
X12340844Y8232190D01*
X12330876Y8232190D01*
X12334646Y8227161D01*
X12340894Y8214969D01*
X12343434Y8210600D01*
X12345720Y8207146D01*
X12347600Y8205063D01*
X12349327Y8202117D01*
X12350445Y8197138D01*
X12350953Y8190738D01*
X12350902Y8183473D01*
X12350292Y8175955D01*
X12349175Y8168741D01*
X12347498Y8162442D01*
X12345416Y8157667D01*
X12343434Y8154771D01*
X12341606Y8152688D01*
X12340132Y8151520D01*
X12339116Y8151520D01*
X12337694Y8155482D01*
X12337694Y8161578D01*
X12338913Y8167827D01*
X12341148Y8172145D01*
X12343638Y8175345D01*
X12344400Y8176818D01*
X12344704Y8177987D01*
X12344400Y8179003D01*
X12343638Y8180019D01*
X12342520Y8180933D01*
X12341148Y8181644D01*
X12338659Y8185505D01*
X12337542Y8192465D01*
X12337897Y8199170D01*
X12339929Y8202117D01*
X12342012Y8202726D01*
X12342114Y8204200D01*
X12340437Y8206130D01*
X12337135Y8208111D01*
X12332208Y8211464D01*
X12327788Y8216442D01*
X12324435Y8222234D01*
X12322759Y8227974D01*
X12322708Y8230260D01*
X12283626Y8230260D01*
X12288367Y8220049D01*
X12294260Y8205978D01*
X12298984Y8195919D01*
X12304064Y8186318D01*
X12308840Y8178393D01*
X12315190Y8169656D01*
X12324080Y8156498D01*
X12327636Y8150809D01*
X12331192Y8144459D01*
X12332716Y8140953D01*
X12332360Y8139633D01*
X12330226Y8139836D01*
X12325299Y8139531D01*
X12319762Y8136940D01*
X12314682Y8132724D01*
X12311075Y8127492D01*
X12310008Y8124444D01*
X12309856Y8121548D01*
X12310284Y8119618D01*
X12315545Y8119618D01*
X12315901Y8122615D01*
X12317984Y8126526D01*
X12322200Y8132318D01*
X12326416Y8134197D01*
X12331344Y8132165D01*
X12337796Y8126222D01*
X12343180Y8119668D01*
X12345365Y8114436D01*
X12344298Y8109864D01*
X12340082Y8105495D01*
X12335510Y8103057D01*
X12331090Y8103108D01*
X12326467Y8105800D01*
X12321235Y8111185D01*
X12317222Y8116265D01*
X12315545Y8119618D01*
X12310284Y8119618D01*
X12310567Y8118348D01*
X12314123Y8110575D01*
X12314682Y8108645D01*
X12313818Y8108442D01*
X12311481Y8109559D01*
X12308992Y8111185D01*
X12305792Y8113725D01*
X12297765Y8121040D01*
X12288570Y8130286D01*
X12279172Y8140344D01*
X12270841Y8150047D01*
X12259868Y8164525D01*
X12254128Y8171078D01*
X12248134Y8177174D01*
X12242546Y8181949D01*
X12228220Y8193328D01*
X12216638Y8203336D01*
X12212269Y8207451D01*
X12209018Y8210854D01*
X12207036Y8213344D01*
X12205868Y8217814D01*
X12203226Y8221370D01*
X12199874Y8224062D01*
X12197283Y8224520D01*
X12195454Y8225281D01*
X12192965Y8229041D01*
X12189968Y8235289D01*
X12185802Y8245957D01*
X12185040Y8246465D01*
X12184227Y8244992D01*
X12183110Y8241385D01*
X12182348Y8237880D01*
X12182398Y8234984D01*
X12183262Y8232495D01*
X12187885Y8226094D01*
X12187021Y8224875D01*
X12182754Y8226399D01*
X12170867Y8233409D01*
X12164009Y8237118D01*
X12162485Y8237677D01*
X12159386Y8233409D01*
X12142165Y8204657D01*
X12070334Y8079740D01*
X12059208Y8059216D01*
X12057583Y8055356D01*
X12058345Y8054695D01*
X12060682Y8054086D01*
X12070588Y8053273D01*
X12088063Y8052816D01*
X12426137Y8050682D01*
X12532614Y8050428D01*
X12563805Y8050733D01*
X12568631Y8051038D01*
X12570561Y8052155D01*
X12570917Y8053882D01*
X12569596Y8057032D01*
X12557404Y8077758D01*
X12455601Y8257692D01*
X12323165Y8494623D01*
X12319203Y8500567D01*
G37*
G36*
X12294565Y8270697D02*
G01*
X12293752Y8270443D01*
X12290653Y8268004D01*
X12288621Y8267039D01*
X12286437Y8266379D01*
X12284303Y8266125D01*
X12279884Y8265109D01*
X12275210Y8262772D01*
X12271908Y8260080D01*
X12271400Y8258048D01*
X12272670Y8257844D01*
X12275261Y8258149D01*
X12283084Y8260029D01*
X12287758Y8261705D01*
X12291212Y8263534D01*
X12293447Y8265515D01*
X12294514Y8267649D01*
X12294768Y8269782D01*
G37*
G36*
X12273483Y8254339D02*
G01*
X12272568Y8254085D01*
X12271806Y8253323D01*
X12271298Y8252155D01*
X12271146Y8250783D01*
X12271298Y8249412D01*
X12271806Y8248294D01*
X12272568Y8247481D01*
X12273483Y8247227D01*
X12274397Y8247481D01*
X12275159Y8248294D01*
X12275667Y8249412D01*
X12275870Y8250783D01*
X12275667Y8252155D01*
X12275159Y8253323D01*
X12274397Y8254085D01*
G37*
G36*
X12171324Y8254339D02*
G01*
X12169800Y8253831D01*
X12169140Y8252459D01*
X12169394Y8250681D01*
X12170613Y8248853D01*
X12172442Y8248091D01*
X12174169Y8248700D01*
X12175236Y8250224D01*
X12174931Y8252155D01*
X12174220Y8253018D01*
X12172289Y8254187D01*
G37*
G36*
X12310872Y8168741D02*
G01*
X12309906Y8168131D01*
X12306350Y8163864D01*
X12305030Y8163052D01*
X12303709Y8163559D01*
X12300356Y8166912D01*
X12298680Y8167573D01*
X12296648Y8167268D01*
X12294006Y8166100D01*
X12291974Y8164830D01*
X12290958Y8163814D01*
X12291009Y8162950D01*
X12293244Y8161528D01*
X12293295Y8160258D01*
X12292177Y8158327D01*
X12287961Y8153298D01*
X12286589Y8151164D01*
X12285980Y8149437D01*
X12286183Y8148320D01*
X12287199Y8148116D01*
X12288774Y8148777D01*
X12290755Y8150148D01*
X12295327Y8154568D01*
X12297206Y8155736D01*
X12298578Y8155635D01*
X12299746Y8154416D01*
X12302744Y8153298D01*
X12306604Y8155635D01*
X12310008Y8160003D01*
X12311380Y8165134D01*
X12311278Y8167776D01*
G37*
D10*
X16809966Y8442711D02*
G01*
X16700875Y8156346D01*
X16591785Y8442711D02*
G01*
X16700875Y8156346D01*
X16501785Y8442711D02*
G01*
X16501785Y8238164D01*
X16488148Y8197255D01*
X16460876Y8169983D01*
X16419967Y8156346D01*
X16392695Y8156346D01*
X16351785Y8169983D01*
X16324513Y8197255D01*
X16310876Y8238164D01*
X16310876Y8442711D01*
X16010877Y8442711D02*
G01*
X16010877Y8156346D01*
X16010877Y8442711D02*
G01*
X15901786Y8156346D01*
X15792696Y8442711D02*
G01*
X15901786Y8156346D01*
X15792696Y8442711D02*
G01*
X15792696Y8156346D01*
X15702696Y8265436D02*
G01*
X15539059Y8265436D01*
X15539059Y8292711D01*
X15552696Y8319983D01*
X15566331Y8333620D01*
X15593606Y8347255D01*
X15634515Y8347255D01*
X15661787Y8333620D01*
X15689059Y8306346D01*
X15702696Y8265436D01*
X15702696Y8238164D01*
X15689059Y8197255D01*
X15661787Y8169983D01*
X15634515Y8156346D01*
X15593606Y8156346D01*
X15566331Y8169983D01*
X15539059Y8197255D01*
X15408150Y8442711D02*
G01*
X15408150Y8210892D01*
X15394515Y8169983D01*
X15367241Y8156346D01*
X15339969Y8156346D01*
X15449059Y8347255D02*
G01*
X15353606Y8347255D01*
X15249969Y8265436D02*
G01*
X15086332Y8265436D01*
X15086332Y8292711D01*
X15099969Y8319983D01*
X15113607Y8333620D01*
X15140879Y8347255D01*
X15181788Y8347255D01*
X15209060Y8333620D01*
X15236332Y8306346D01*
X15249969Y8265436D01*
X15249969Y8238164D01*
X15236332Y8197255D01*
X15209060Y8169983D01*
X15181788Y8156346D01*
X15140879Y8156346D01*
X15113607Y8169983D01*
X15086332Y8197255D01*
X14996332Y8347255D02*
G01*
X14996332Y8156346D01*
X14996332Y8265436D02*
G01*
X14982697Y8306346D01*
X14955423Y8333620D01*
X14928151Y8347255D01*
X14887242Y8347255D01*
X14587242Y8442711D02*
G01*
X14478152Y8156346D01*
X14369061Y8442711D02*
G01*
X14478152Y8156346D01*
X14279062Y8388164D02*
G01*
X14251790Y8401801D01*
X14210880Y8442711D01*
X14210880Y8156346D01*
X14107243Y8224530D02*
G01*
X14120881Y8210892D01*
X14107243Y8197255D01*
X14093609Y8210892D01*
X14107243Y8224530D01*
X13921790Y8442711D02*
G01*
X13962700Y8429073D01*
X13989972Y8388164D01*
X14003609Y8319983D01*
X14003609Y8279074D01*
X13989972Y8210892D01*
X13962700Y8169983D01*
X13921790Y8156346D01*
X13894518Y8156346D01*
X13853609Y8169983D01*
X13826335Y8210892D01*
X13812700Y8279074D01*
X13812700Y8319983D01*
X13826335Y8388164D01*
X13853609Y8429073D01*
X13894518Y8442711D01*
X13921790Y8442711D01*
D11*
X7345075Y10243604D02*
G01*
X7345075Y10134638D01*
X7345075Y10243604D02*
G01*
X7298339Y10243604D01*
X7282845Y10238524D01*
X7277511Y10233190D01*
X7272431Y10222776D01*
X7272431Y10212362D01*
X7277511Y10201948D01*
X7282845Y10196868D01*
X7298339Y10191788D01*
X7345075Y10191788D01*
X7308753Y10191788D02*
G01*
X7272431Y10134638D01*
X7238141Y10222776D02*
G01*
X7227727Y10228110D01*
X7211979Y10243604D01*
X7211979Y10134638D01*
X7125873Y10243604D02*
G01*
X7177689Y10170960D01*
X7099965Y10170960D01*
X7125873Y10243604D02*
G01*
X7125873Y10134638D01*
X6982607Y10256039D02*
G01*
X7078494Y10256039D01*
X7078494Y10123919D01*
X6982607Y10123919D01*
X6897364Y10256039D02*
G01*
X6801477Y10256039D01*
X6801477Y10123919D01*
X6897364Y10123919D01*
D12*
G75*
G01
X5720817Y11789969D02*
G03X5720817Y11789969I-970813J0D01*
G75*
G01
X14220800Y11799976D02*
G03X14220800Y11799976I-970813J0D01*
M02*
