G04 Layer: TopSolderMaskLayer*
G04 EasyEDA v6.5.23, 2023-06-02 21:13:54*
G04 33ff916c08f040c1a4a9353f5c15a4ee,b642c611f69d48ac97ba22acea37c14c,10*
G04 Gerber Generator version 0.2*
G04 Scale: 100 percent, Rotated: No, Reflected: No *
G04 Dimensions in millimeters *
G04 leading zeros omitted , absolute positions ,4 integer and 5 decimal *
%FSLAX45Y45*%
%MOMM*%

%AMMACRO1*1,1,$1,$2,$3*1,1,$1,$4,$5*1,1,$1,0-$2,0-$3*1,1,$1,0-$4,0-$5*20,1,$1,$2,$3,$4,$5,0*20,1,$1,$4,$5,0-$2,0-$3,0*20,1,$1,0-$2,0-$3,0-$4,0-$5,0*20,1,$1,0-$4,0-$5,$2,$3,0*4,1,4,$2,$3,$4,$5,0-$2,0-$3,0-$4,0-$5,$2,$3,0*%
%AMMACRO2*4,1,4,-0.8509,-1.651,-0.8509,1.651,0.8509,1.651,0.8509,-1.651,-0.8509,-1.651,0*%
%ADD10O,1.5031974X0.5031994000000001*%
%ADD11O,0.5031994000000001X1.5031974*%
%ADD12MACRO1,0.2032X-2.6X2.6X2.6X2.6*%
%ADD13MACRO1,0.1016X0.7874X-0.7874X-0.7874X-0.7874*%
%ADD14C,1.6764*%
%ADD15C,2.1016*%
%ADD16MACRO1,0.1016X0.4X-0.45X-0.4X-0.45*%
%ADD17MACRO1,0.1016X0.675X-0.705X-0.675X-0.705*%
%ADD18MACRO1,0.1016X0.675X0.705X-0.675X0.705*%
%ADD19MACRO1,0.1016X0.705X0.675X0.705X-0.675*%
%ADD20MACRO1,0.1016X-0.705X0.675X-0.705X-0.675*%
%ADD21MACRO1,0.1016X0.9X-1X-0.9X-1*%
%ADD22MACRO1,0.1016X0.6885X-0.5663X-0.6885X-0.5663*%
%ADD23MACRO1,0.1016X0.6885X0.5663X-0.6885X0.5663*%
%ADD24MACRO1,0.1016X-0.5663X-0.6885X-0.5663X0.6885*%
%ADD25MACRO1,0.1016X0.5663X-0.6885X0.5663X0.6885*%
%ADD26MACRO1,0.1016X-0.6885X0.5663X0.6885X0.5663*%
%ADD27MACRO1,0.1016X-0.6885X-0.5663X0.6885X-0.5663*%
%ADD28MACRO1,0.1016X0.5663X0.6885X0.5663X-0.6885*%
%ADD29MACRO1,0.1016X-0.5663X0.6885X-0.5663X-0.6885*%
%ADD30MACRO2*%
%ADD31MACRO1,0.1016X-0.4X0.45X0.4X0.45*%
%ADD32MACRO1,0.1016X0.4032X0.432X0.4032X-0.432*%
%ADD33MACRO1,0.1016X-0.4032X0.432X-0.4032X-0.432*%
%ADD34MACRO1,0.1016X0.432X-0.4032X-0.432X-0.4032*%
%ADD35MACRO1,0.1016X0.432X0.4032X-0.432X0.4032*%
%ADD36C,1.2954*%
%ADD37MACRO1,0.1016X0.8X-0.2X-0.8X-0.2*%
%ADD38MACRO1,0.1016X0.7X0.7X0.7X-0.7*%
%ADD39MACRO1,0.1016X-0.7499X0.7X0.7499X0.7*%
%ADD40O,2.1015960000000002X1.6015970000000002*%
%ADD41MACRO1,0.1016X-1X0.75X1X0.75*%
%ADD42O,2.4031956000000005X0.9031986000000001*%
%ADD43MACRO1,0.1016X-0.45X-0.4X-0.45X0.4*%
%ADD44MACRO1,0.1016X-0.3X-0.3X-0.3X0.3*%
%ADD45MACRO1,0.1016X0.3X0.3X0.3X-0.3*%
%ADD46MACRO1,0.1016X0.5X-0.375X-0.5X-0.375*%
%ADD47MACRO1,0.2032X0.75X-0.75X-0.75X-0.75*%
%ADD48C,1.7032*%
%ADD49MACRO1,0.1016X-0.536X-0.266X-0.536X0.266*%
%ADD50C,1.2032*%
%ADD51R,1.0016X0.9016*%
%ADD52R,0.0142X0.9016*%

%LPD*%
D10*
G01*
X3210077Y9940086D03*
G01*
X3210077Y9890099D03*
G01*
X3210077Y9840087D03*
G01*
X3210077Y9790099D03*
G01*
X3210077Y9740087D03*
G01*
X3210077Y9690100D03*
G01*
X3210077Y9640087D03*
G01*
X3210077Y9590100D03*
G01*
X3210077Y9540087D03*
G01*
X3210077Y9490100D03*
G01*
X3210077Y9440087D03*
D11*
G01*
X3310077Y9340087D03*
G01*
X3360064Y9340087D03*
G01*
X3410077Y9340087D03*
G01*
X3460064Y9340087D03*
G01*
X3510076Y9340087D03*
G01*
X3560063Y9340087D03*
G01*
X3610076Y9340087D03*
G01*
X3660063Y9340087D03*
G01*
X3710076Y9340087D03*
G01*
X3760063Y9340087D03*
G01*
X3810076Y9340087D03*
D10*
G01*
X3910075Y9440087D03*
G01*
X3910075Y9490100D03*
G01*
X3910075Y9540087D03*
G01*
X3910075Y9590100D03*
G01*
X3910075Y9640087D03*
G01*
X3910075Y9690100D03*
G01*
X3910075Y9740087D03*
G01*
X3910075Y9790099D03*
G01*
X3910075Y9840087D03*
G01*
X3910075Y9890099D03*
G01*
X3910075Y9940086D03*
D11*
G01*
X3810076Y10040086D03*
G01*
X3760063Y10040086D03*
G01*
X3710076Y10040086D03*
G01*
X3660063Y10040086D03*
G01*
X3610076Y10040086D03*
G01*
X3560063Y10040086D03*
G01*
X3510076Y10040086D03*
G01*
X3460064Y10040086D03*
G01*
X3410077Y10040086D03*
G01*
X3360064Y10040086D03*
G01*
X3310077Y10040086D03*
D12*
G01*
X3560066Y9690102D03*
G01*
X3560066Y9690102D03*
D13*
G01*
X4269994Y9056877D03*
D14*
G01*
X4269993Y8802878D03*
D15*
G01*
X5349493Y8579865D03*
G01*
X5850381Y8579865D03*
G01*
X9849611Y8590026D03*
G01*
X10350500Y8590026D03*
G01*
X16020034Y9322054D03*
G01*
X16020034Y9830054D03*
G01*
X16020034Y10338054D03*
D16*
G01*
X2859890Y9590024D03*
G01*
X2999889Y9590024D03*
D17*
G01*
X7839984Y9029984D03*
D18*
G01*
X7839984Y8829979D03*
D19*
G01*
X6339913Y9160001D03*
D20*
G01*
X6539918Y9160001D03*
D21*
G01*
X7615984Y9089981D03*
G01*
X7203986Y9089981D03*
D22*
G01*
X12539974Y10139984D03*
D23*
G01*
X12539974Y9939975D03*
D22*
G01*
X12539974Y9679985D03*
D23*
G01*
X12539974Y9479975D03*
D24*
G01*
X11969981Y10649978D03*
D25*
G01*
X11769971Y10649978D03*
D24*
G01*
X11909981Y8929982D03*
D25*
G01*
X11709971Y8929982D03*
D22*
G01*
X13889972Y10339984D03*
D23*
G01*
X13889972Y10139974D03*
D26*
G01*
X13899972Y9279976D03*
D27*
G01*
X13899972Y9479986D03*
D22*
G01*
X15149969Y10339984D03*
D23*
G01*
X15149969Y10139974D03*
D24*
G01*
X14889975Y10339979D03*
D25*
G01*
X14689965Y10339979D03*
D24*
G01*
X14889975Y9469981D03*
D25*
G01*
X14689965Y9469981D03*
D22*
G01*
X15149969Y9659985D03*
D23*
G01*
X15149969Y9459976D03*
D16*
G01*
X13829972Y9819980D03*
G01*
X13969972Y9819980D03*
G01*
X11739976Y9149981D03*
G01*
X11879976Y9149981D03*
G01*
X11789976Y10429979D03*
G01*
X11929976Y10429979D03*
D24*
G01*
X7390058Y9349993D03*
D25*
G01*
X7190049Y9349993D03*
D28*
G01*
X7189980Y9599980D03*
D29*
G01*
X7389990Y9599980D03*
D24*
G01*
X1840001Y9609980D03*
D25*
G01*
X1639991Y9609980D03*
D24*
G01*
X1840001Y9829980D03*
D25*
G01*
X1639991Y9829980D03*
D30*
G01*
X7344918Y8379968D03*
G01*
X6454901Y8379968D03*
D31*
G01*
X2999994Y9389981D03*
G01*
X2859994Y9389981D03*
G01*
X2999994Y9959980D03*
G01*
X2859994Y9959980D03*
D16*
G01*
X3339993Y10269979D03*
G01*
X3479993Y10269979D03*
D32*
G01*
X3504667Y10439979D03*
D33*
G01*
X3655317Y10439979D03*
D34*
G01*
X3179993Y9135306D03*
D35*
G01*
X3179993Y8984656D03*
D36*
G01*
X12229947Y9997186D03*
G01*
X12229947Y10251186D03*
G01*
X12229947Y9412986D03*
G01*
X12229947Y9666986D03*
D37*
G01*
X1351757Y9809952D03*
G01*
X1351757Y9744953D03*
G01*
X1351757Y9679942D03*
G01*
X1351757Y9614951D03*
G01*
X1351757Y9549952D03*
D38*
G01*
X1284451Y9354939D03*
G01*
X1284451Y10004925D03*
D39*
G01*
X1028466Y10085047D03*
G01*
X1028466Y9274837D03*
D40*
G01*
X13560882Y9058046D03*
G01*
X13560780Y9312046D03*
G01*
X13560780Y9566046D03*
G01*
X13560780Y9820046D03*
G01*
X13560780Y10074046D03*
G01*
X13560780Y10328046D03*
G01*
X13560780Y10582046D03*
G01*
X12798780Y9058046D03*
G01*
X12798780Y9312046D03*
G01*
X12798780Y9566046D03*
G01*
X12798780Y9820046D03*
G01*
X12798780Y10074046D03*
G01*
X12798780Y10328046D03*
D41*
G01*
X12798798Y10582041D03*
D42*
G01*
X9767697Y10420451D03*
G01*
X9767697Y10293451D03*
G01*
X9767697Y10166451D03*
G01*
X9767697Y10039451D03*
G01*
X10372216Y10420451D03*
G01*
X10372216Y10293451D03*
G01*
X10372216Y10166451D03*
G01*
X10372216Y10039451D03*
G01*
X9777729Y9630460D03*
G01*
X9777729Y9503460D03*
G01*
X9777729Y9376460D03*
G01*
X9777729Y9249460D03*
G01*
X10382250Y9630460D03*
G01*
X10382250Y9503460D03*
G01*
X10382250Y9376460D03*
G01*
X10382250Y9249460D03*
D43*
G01*
X3349993Y9129981D03*
G01*
X3349993Y8989982D03*
D31*
G01*
X3859992Y10269979D03*
G01*
X3719992Y10269979D03*
D16*
G01*
X10249979Y10599978D03*
G01*
X10389979Y10599978D03*
G01*
X10259979Y9799980D03*
G01*
X10399979Y9799980D03*
D44*
G01*
X1979996Y10124975D03*
D45*
G01*
X1979996Y10274983D03*
D44*
G01*
X2109995Y10124975D03*
D45*
G01*
X2109995Y10274983D03*
D44*
G01*
X2239995Y10124975D03*
D45*
G01*
X2239995Y10274983D03*
D46*
G01*
X1562741Y10199979D03*
G01*
X1797246Y10199979D03*
D47*
G01*
X3783831Y8579984D03*
D48*
G01*
X3296158Y8579993D03*
D49*
G01*
X7014895Y9154985D03*
G01*
X7014895Y9249981D03*
G01*
X7014895Y9344977D03*
G01*
X6785076Y9344977D03*
G01*
X6785076Y9249981D03*
G01*
X6785076Y9154985D03*
D50*
G01*
X11784914Y10139984D03*
G01*
X11935028Y10139984D03*
G01*
X11794896Y9529978D03*
G01*
X11945010Y9529978D03*
G01*
X13899972Y10614888D03*
G01*
X13899972Y10765002D03*
G01*
X13899972Y9035059D03*
G01*
X13899972Y8884945D03*
G01*
X14389963Y10184917D03*
G01*
X14389963Y10335031D03*
G01*
X14389963Y9324898D03*
G01*
X14389963Y9475012D03*
D51*
G01*
X3299993Y8259978D03*
D43*
G01*
X3299993Y8119983D03*
D51*
G01*
X3789984Y8259978D03*
D43*
G01*
X3789992Y8119983D03*
G01*
X4139991Y9539980D03*
G01*
X4139991Y9399981D03*
M02*
